<?xml version="1.0" encoding="UTF-8"?>
<svg xmlns="http://www.w3.org/2000/svg" xmlns:xlink="http://www.w3.org/1999/xlink" width="246.697pt" height="56.429pt" viewBox="0 0 246.697 56.429">
<defs>
<g>
<g id="glyph-0-0">
<path d="M 0.3125 -0.3125 L 0.3125 -0.015625 L 2.4375 -0.015625 L 2.4375 -0.3125 C 2.125 -0.3125 1.71875 -0.46875 1.703125 -0.8125 C 1.703125 -0.90625 1.75 -1 1.78125 -1.078125 C 1.890625 -1.40625 1.984375 -1.734375 2.125 -2.046875 C 2.15625 -2.140625 2.15625 -2.25 2.28125 -2.25 L 4.53125 -2.25 C 4.640625 -2.25 4.65625 -2.15625 4.6875 -2.0625 L 4.90625 -1.4375 C 5 -1.1875 5.171875 -0.8125 5.171875 -0.59375 L 5.171875 -0.5625 C 5.09375 -0.328125 4.703125 -0.3125 4.421875 -0.3125 L 4.359375 -0.3125 L 4.359375 -0.015625 L 7.0625 -0.015625 L 7.0625 -0.3125 L 6.78125 -0.3125 C 6.5625 -0.3125 6.3125 -0.328125 6.203125 -0.453125 C 6.09375 -0.578125 6.046875 -0.734375 6 -0.890625 C 5.484375 -2.359375 4.984375 -3.828125 4.46875 -5.296875 C 4.28125 -5.8125 4.046875 -6.359375 3.921875 -6.875 C 3.890625 -7.015625 3.828125 -7.0625 3.6875 -7.0625 C 3.484375 -7.0625 3.453125 -6.859375 3.390625 -6.671875 C 2.84375 -5 2.234375 -3.359375 1.671875 -1.703125 L 1.453125 -1.109375 C 1.40625 -0.921875 1.34375 -0.75 1.203125 -0.609375 C 0.96875 -0.375 0.625 -0.3125 0.3125 -0.3125 Z M 2.296875 -2.5625 L 3.40625 -5.765625 L 4.515625 -2.5625 Z M 2.296875 -2.5625 "/>
</g>
<g id="glyph-0-1">
<path d="M 0.3125 -4.25 L 0.3125 -3.9375 L 0.453125 -3.9375 C 0.734375 -3.9375 1.015625 -3.921875 1.078125 -3.625 C 1.078125 -3.515625 1.078125 -3.421875 1.078125 -3.3125 L 1.078125 -1.34375 C 1.078125 -1.03125 1.09375 -0.71875 1.265625 -0.4375 C 1.53125 -0.015625 2.09375 0.109375 2.5625 0.109375 C 3 0.109375 3.40625 -0.09375 3.65625 -0.453125 C 3.734375 -0.546875 3.796875 -0.65625 3.828125 -0.765625 L 3.828125 0.09375 L 5.265625 -0.015625 L 5.265625 -0.3125 L 5.109375 -0.3125 C 4.796875 -0.3125 4.5 -0.34375 4.5 -0.78125 L 4.5 -4.359375 L 3.03125 -4.25 L 3.03125 -3.9375 L 3.1875 -3.9375 C 3.515625 -3.9375 3.8125 -3.921875 3.8125 -3.453125 L 3.8125 -1.671875 C 3.8125 -0.9375 3.4375 -0.125 2.609375 -0.125 C 2.0625 -0.125 1.78125 -0.265625 1.78125 -1.3125 L 1.78125 -4.359375 Z M 0.3125 -4.25 "/>
</g>
<g id="glyph-0-2">
<path d="M 1.09375 -4.25 L 0.328125 -4.25 L 0.328125 -3.9375 L 1.09375 -3.9375 L 1.09375 -0.6875 C 1.09375 -0.34375 0.8125 -0.3125 0.515625 -0.3125 L 0.328125 -0.3125 L 0.328125 -0.015625 L 2.71875 -0.015625 L 2.71875 -0.3125 L 2.390625 -0.3125 C 2.171875 -0.3125 1.953125 -0.328125 1.828125 -0.4375 C 1.75 -0.515625 1.75 -0.65625 1.75 -0.765625 L 1.75 -3.9375 L 2.875 -3.9375 L 2.875 -4.25 L 1.71875 -4.25 L 1.71875 -5.546875 C 1.71875 -6.078125 2.09375 -6.75 2.625 -6.75 C 2.734375 -6.75 2.875 -6.71875 2.953125 -6.671875 C 2.765625 -6.609375 2.65625 -6.4375 2.65625 -6.25 C 2.65625 -6 2.84375 -5.828125 3.09375 -5.828125 C 3.34375 -5.828125 3.53125 -6.03125 3.53125 -6.234375 C 3.53125 -6.71875 3.03125 -6.953125 2.625 -6.953125 C 1.734375 -6.953125 1.09375 -6.265625 1.09375 -5.296875 Z M 1.09375 -4.25 "/>
</g>
<g id="glyph-0-3">
<path d="M 0.359375 -4.25 L 0.359375 -3.9375 L 0.546875 -3.9375 C 0.84375 -3.9375 1.09375 -3.90625 1.09375 -3.453125 L 1.09375 -0.71875 C 1.09375 -0.375 0.921875 -0.3125 0.328125 -0.3125 L 0.328125 -0.015625 L 2.4375 -0.015625 L 2.4375 -0.3125 L 2.25 -0.3125 C 1.984375 -0.3125 1.75 -0.34375 1.75 -0.65625 L 1.75 -4.359375 Z M 1.1875 -6.59375 C 0.953125 -6.5625 0.75 -6.34375 0.75 -6.078125 C 0.75 -5.796875 1 -5.5625 1.265625 -5.5625 C 1.53125 -5.5625 1.796875 -5.78125 1.796875 -6.078125 C 1.796875 -6.375 1.546875 -6.609375 1.265625 -6.609375 C 1.25 -6.609375 1.21875 -6.59375 1.1875 -6.59375 Z M 1.1875 -6.59375 "/>
</g>
<g id="glyph-0-4">
<path d="M 1.734375 -4.421875 C 1.375 -4.375 0.984375 -4.3125 0.703125 -4.0625 C 0.46875 -3.859375 0.328125 -3.515625 0.328125 -3.203125 C 0.328125 -1.515625 3.0625 -2.46875 3.0625 -1 C 3.0625 -0.390625 2.53125 -0.125 1.984375 -0.125 C 1.234375 -0.125 0.734375 -0.65625 0.59375 -1.5 C 0.578125 -1.59375 0.5625 -1.671875 0.4375 -1.671875 C 0.359375 -1.671875 0.328125 -1.609375 0.328125 -1.546875 L 0.328125 0.015625 C 0.328125 0.0625 0.359375 0.09375 0.421875 0.09375 L 0.4375 0.09375 C 0.59375 0.09375 0.75 -0.265625 0.875 -0.296875 C 0.953125 -0.296875 1.21875 -0.046875 1.421875 0.015625 C 1.59375 0.078125 1.78125 0.09375 1.953125 0.09375 C 2.765625 0.09375 3.546875 -0.328125 3.546875 -1.25 C 3.546875 -1.890625 3.078125 -2.421875 2.421875 -2.59375 C 1.8125 -2.765625 0.8125 -2.765625 0.8125 -3.484375 C 0.8125 -4.078125 1.46875 -4.234375 1.90625 -4.234375 C 2.390625 -4.234375 3.0625 -3.96875 3.0625 -3.109375 C 3.0625 -3.03125 3.0625 -2.953125 3.171875 -2.953125 C 3.265625 -2.953125 3.3125 -3.03125 3.3125 -3.125 C 3.3125 -3.171875 3.296875 -3.21875 3.296875 -3.265625 L 3.296875 -4.28125 C 3.296875 -4.34375 3.265625 -4.421875 3.1875 -4.421875 C 3.03125 -4.421875 2.9375 -4.171875 2.828125 -4.171875 L 2.8125 -4.171875 C 2.734375 -4.171875 2.578125 -4.296875 2.46875 -4.34375 C 2.28125 -4.390625 2.09375 -4.421875 1.90625 -4.421875 C 1.84375 -4.421875 1.796875 -4.421875 1.734375 -4.421875 Z M 1.734375 -4.421875 "/>
</g>
<g id="glyph-0-5">
<path d="M 1.46875 -6.078125 C 1.46875 -5.390625 1.1875 -4.15625 0.171875 -4.15625 L 0.171875 -3.9375 L 1.03125 -3.9375 L 1.03125 -1.40625 C 1.03125 -1.078125 1.046875 -0.75 1.203125 -0.46875 C 1.421875 -0.0625 1.890625 0.09375 2.3125 0.09375 C 3.125 0.09375 3.28125 -0.8125 3.28125 -1.421875 L 3.28125 -1.796875 L 3.03125 -1.796875 C 3.03125 -1.640625 3.046875 -1.5 3.046875 -1.34375 C 3.046875 -0.90625 2.953125 -0.140625 2.359375 -0.140625 C 1.796875 -0.140625 1.71875 -0.828125 1.71875 -1.265625 L 1.71875 -3.9375 L 3.109375 -3.9375 L 3.109375 -4.25 L 1.71875 -4.25 L 1.71875 -6.078125 Z M 1.46875 -6.078125 "/>
</g>
<g id="glyph-0-6">
<path d="M 0.265625 -4.25 L 0.265625 -3.9375 L 0.421875 -3.9375 C 0.734375 -3.9375 1.03125 -3.921875 1.03125 -3.453125 L 1.03125 -0.734375 C 1.03125 -0.328125 0.765625 -0.3125 0.328125 -0.3125 L 0.265625 -0.3125 L 0.265625 -0.015625 L 2.65625 -0.015625 L 2.65625 -0.3125 C 2.53125 -0.3125 2.390625 -0.3125 2.28125 -0.3125 C 1.96875 -0.3125 1.703125 -0.359375 1.703125 -0.71875 L 1.703125 -2.03125 C 1.703125 -2.875 1.890625 -4.140625 2.859375 -4.140625 C 2.90625 -4.140625 2.921875 -4.140625 2.96875 -4.125 C 2.8125 -4.0625 2.734375 -3.90625 2.734375 -3.75 C 2.734375 -3.515625 2.890625 -3.359375 3.109375 -3.328125 C 3.40625 -3.328125 3.59375 -3.5 3.59375 -3.75 C 3.59375 -4.140625 3.21875 -4.359375 2.859375 -4.359375 C 2.28125 -4.359375 1.75 -3.828125 1.65625 -3.296875 L 1.640625 -4.359375 Z M 0.265625 -4.25 "/>
</g>
<g id="glyph-0-7">
<path d="M 1.109375 -3.75 C 1.34375 -4.0625 1.78125 -4.203125 2.15625 -4.203125 C 2.875 -4.203125 3.203125 -3.546875 3.203125 -2.84375 L 3.203125 -2.578125 C 2.078125 -2.578125 0.40625 -2.234375 0.40625 -0.9375 L 0.40625 -0.859375 C 0.484375 -0.09375 1.4375 0.09375 2 0.09375 C 2.5 0.09375 3.140625 -0.234375 3.265625 -0.734375 L 3.28125 -0.734375 C 3.34375 -0.3125 3.609375 0.046875 4.046875 0.046875 C 4.453125 0.046875 4.8125 -0.28125 4.859375 -0.71875 L 4.859375 -1.4375 L 4.609375 -1.4375 L 4.609375 -0.9375 C 4.609375 -0.671875 4.5625 -0.265625 4.265625 -0.265625 C 3.9375 -0.265625 3.890625 -0.65625 3.890625 -0.921875 L 3.890625 -2.5625 C 3.890625 -2.6875 3.90625 -2.8125 3.90625 -2.9375 C 3.90625 -3.890625 3 -4.421875 2.1875 -4.421875 C 1.5625 -4.421875 0.6875 -4.109375 0.6875 -3.328125 C 0.6875 -3.03125 0.890625 -2.84375 1.15625 -2.84375 C 1.421875 -2.84375 1.59375 -3.0625 1.59375 -3.296875 C 1.59375 -3.59375 1.375 -3.75 1.109375 -3.75 Z M 3.203125 -2.375 L 3.203125 -1.375 C 3.203125 -0.703125 2.734375 -0.15625 2.09375 -0.125 L 2.046875 -0.125 C 1.59375 -0.125 1.171875 -0.484375 1.171875 -0.953125 L 1.171875 -1 C 1.25 -2 2.359375 -2.34375 3.203125 -2.375 Z M 3.203125 -2.375 "/>
</g>
<g id="glyph-0-8">
<path d="M 2.3125 -4.421875 C 1.078125 -4.28125 0.28125 -3.25 0.28125 -2.09375 C 0.28125 -0.984375 1.15625 0.09375 2.46875 0.09375 C 3.640625 0.09375 4.640625 -0.875 4.640625 -2.109375 C 4.640625 -3.28125 3.75 -4.421875 2.4375 -4.421875 C 2.40625 -4.421875 2.359375 -4.421875 2.3125 -4.421875 Z M 1.109375 -1.875 L 1.109375 -2.3125 C 1.109375 -3.0625 1.34375 -4.203125 2.453125 -4.203125 C 3.25 -4.203125 3.703125 -3.53125 3.796875 -2.78125 C 3.8125 -2.5625 3.8125 -2.359375 3.8125 -2.140625 C 3.8125 -1.5 3.75 -0.703125 3.109375 -0.328125 C 2.921875 -0.203125 2.703125 -0.140625 2.46875 -0.140625 C 1.75 -0.140625 1.25 -0.703125 1.140625 -1.484375 C 1.125 -1.609375 1.125 -1.75 1.109375 -1.875 Z M 1.109375 -1.875 "/>
</g>
<g id="glyph-0-9">
<path d="M 0.3125 -4.25 L 0.3125 -3.9375 L 0.46875 -3.9375 C 0.78125 -3.9375 1.078125 -3.921875 1.078125 -3.453125 L 1.078125 -0.734375 C 1.078125 -0.328125 0.8125 -0.3125 0.375 -0.3125 L 0.3125 -0.3125 L 0.3125 -0.015625 L 2.546875 -0.015625 L 2.546875 -0.3125 L 2.28125 -0.3125 C 2.015625 -0.3125 1.78125 -0.359375 1.78125 -0.71875 L 1.78125 -2.53125 C 1.78125 -3.234375 2.140625 -4.140625 3.109375 -4.140625 C 3.75 -4.140625 3.8125 -3.453125 3.8125 -3.03125 L 3.8125 -0.6875 C 3.8125 -0.34375 3.515625 -0.3125 3.21875 -0.3125 L 3.03125 -0.3125 L 3.03125 -0.015625 L 5.265625 -0.015625 L 5.265625 -0.3125 L 5.015625 -0.3125 C 4.75 -0.3125 4.5 -0.359375 4.5 -0.6875 L 4.5 -2.84375 C 4.5 -3.171875 4.484375 -3.515625 4.328125 -3.8125 C 4.09375 -4.234375 3.59375 -4.359375 3.140625 -4.359375 C 2.546875 -4.359375 1.921875 -3.9375 1.71875 -3.359375 L 1.71875 -4.359375 Z M 0.3125 -4.25 "/>
</g>
<g id="glyph-0-10">
<path d="M 0.328125 -6.75 L 0.328125 -6.4375 L 0.46875 -6.4375 C 0.84375 -6.4375 1.09375 -6.40625 1.09375 -5.921875 L 1.09375 -0.953125 C 1.09375 -0.875 1.109375 -0.8125 1.109375 -0.734375 C 1.109375 -0.359375 0.84375 -0.3125 0.5625 -0.3125 L 0.328125 -0.3125 L 0.328125 -0.015625 L 2.53125 -0.015625 L 2.53125 -0.3125 L 2.28125 -0.3125 C 1.984375 -0.3125 1.75 -0.359375 1.75 -0.734375 L 1.75 -6.859375 Z M 0.328125 -6.75 "/>
</g>
<g id="glyph-0-11">
<path d="M 1.765625 -0.1875 C 1.78125 -0.140625 1.796875 -0.078125 1.796875 -0.015625 C 1.796875 0.65625 1.484375 1.21875 1.046875 1.703125 C 1.03125 1.71875 1 1.765625 1 1.796875 C 1 1.828125 1.0625 1.890625 1.109375 1.890625 C 1.25 1.890625 1.515625 1.515625 1.640625 1.296875 C 1.875 0.890625 2 0.4375 2 -0.03125 C 2 -0.46875 1.875 -1.0625 1.359375 -1.0625 C 1.0625 -1.0625 0.84375 -0.828125 0.84375 -0.53125 C 0.84375 -0.203125 1.109375 -0.015625 1.375 -0.015625 C 1.515625 -0.015625 1.671875 -0.0625 1.765625 -0.1875 Z M 1.765625 -0.1875 "/>
</g>
<g id="glyph-0-12">
<path d="M 1.109375 -2.28125 L 3.9375 -2.28125 C 4.046875 -2.28125 4.09375 -2.359375 4.09375 -2.46875 C 4.09375 -3.515625 3.453125 -4.421875 2.359375 -4.421875 C 1.140625 -4.421875 0.28125 -3.34375 0.28125 -2.171875 C 0.28125 -1.265625 0.78125 -0.453125 1.640625 -0.0625 C 1.875 0.046875 2.140625 0.09375 2.390625 0.09375 L 2.421875 0.09375 C 3.171875 0.09375 3.8125 -0.328125 4.078125 -1.078125 C 4.078125 -1.109375 4.078125 -1.15625 4.078125 -1.1875 C 4.078125 -1.25 4.046875 -1.296875 3.96875 -1.296875 C 3.828125 -1.296875 3.765625 -0.96875 3.703125 -0.875 C 3.453125 -0.4375 2.984375 -0.140625 2.46875 -0.140625 C 2.109375 -0.140625 1.796875 -0.359375 1.53125 -0.625 C 1.140625 -1.078125 1.109375 -1.71875 1.109375 -2.28125 Z M 1.109375 -2.5 C 1.109375 -3.25 1.515625 -4.203125 2.328125 -4.203125 L 2.375 -4.203125 C 3.34375 -4.109375 3.328125 -3.09375 3.4375 -2.5 Z M 1.109375 -2.5 "/>
</g>
<g id="glyph-0-13">
<path d="M 1.171875 -0.234375 L 1.171875 -0.21875 C 0.703125 -0.125 0.28125 0.3125 0.28125 0.78125 C 0.28125 1.703125 1.703125 2.015625 2.453125 2.015625 C 3.28125 2.015625 4.640625 1.71875 4.640625 0.703125 C 4.640625 0.0625 4.1875 -0.375 3.59375 -0.546875 C 3.25 -0.65625 2.875 -0.65625 2.5 -0.65625 L 1.609375 -0.65625 C 1.296875 -0.6875 1.046875 -1 1.046875 -1.328125 L 1.046875 -1.375 C 1.0625 -1.5 1.125 -1.75 1.21875 -1.75 C 1.34375 -1.71875 1.484375 -1.609375 1.640625 -1.5625 C 1.8125 -1.515625 2.015625 -1.484375 2.203125 -1.484375 C 3 -1.484375 3.796875 -2.078125 3.796875 -2.921875 C 3.796875 -3.25 3.65625 -3.640625 3.390625 -3.859375 L 3.390625 -3.875 C 3.65625 -4.078125 3.921875 -4.25 4.265625 -4.25 C 4.296875 -4.25 4.328125 -4.25 4.359375 -4.234375 C 4.265625 -4.1875 4.203125 -4.109375 4.203125 -3.984375 C 4.203125 -3.828125 4.34375 -3.6875 4.5 -3.6875 C 4.65625 -3.6875 4.78125 -3.828125 4.78125 -3.984375 C 4.78125 -4.25 4.5625 -4.46875 4.28125 -4.46875 C 3.9375 -4.46875 3.609375 -4.328125 3.359375 -4.109375 C 3.328125 -4.078125 3.28125 -4.046875 3.25 -4.03125 L 3.234375 -4.03125 C 3.171875 -4.03125 3.09375 -4.109375 3.046875 -4.140625 C 2.796875 -4.28125 2.5 -4.359375 2.203125 -4.359375 C 1.421875 -4.359375 0.578125 -3.8125 0.578125 -2.921875 C 0.578125 -2.59375 0.703125 -2.296875 0.90625 -2.046875 C 0.953125 -2 1.015625 -1.953125 1.015625 -1.90625 C 1.015625 -1.859375 0.953125 -1.796875 0.9375 -1.765625 C 0.8125 -1.5625 0.734375 -1.328125 0.734375 -1.078125 C 0.734375 -0.78125 0.875 -0.375 1.171875 -0.234375 Z M 0.796875 0.828125 L 0.796875 0.75 C 0.796875 0.234375 1.25 -0.078125 1.78125 -0.078125 L 2.546875 -0.078125 C 3.171875 -0.078125 4.125 0.015625 4.125 0.765625 C 4.125 1.484375 3.0625 1.796875 2.453125 1.796875 C 1.796875 1.796875 0.890625 1.5 0.796875 0.828125 Z M 1.328125 -2.71875 L 1.328125 -2.84375 C 1.328125 -3.390625 1.453125 -4.125 2.1875 -4.125 C 2.796875 -4.125 3.046875 -3.546875 3.046875 -2.921875 C 3.046875 -2.515625 2.96875 -1.71875 2.203125 -1.71875 C 1.9375 -1.71875 1.703125 -1.828125 1.53125 -2.046875 C 1.375 -2.25 1.359375 -2.484375 1.328125 -2.71875 Z M 1.328125 -2.71875 "/>
</g>
<g id="glyph-0-14">
<path d="M 3.125 -7.390625 C 2.984375 -7.34375 2.8125 -7.140625 2.6875 -7.03125 C 1.484375 -5.8125 0.984375 -4.140625 0.984375 -2.46875 C 0.984375 -0.6875 1.5625 1.21875 3.015625 2.375 C 3.0625 2.40625 3.125 2.453125 3.1875 2.453125 C 3.25 2.453125 3.265625 2.390625 3.265625 2.359375 C 3.265625 2.25 3 2.046875 2.90625 1.90625 C 1.890625 0.703125 1.5625 -0.921875 1.5625 -2.46875 C 1.5625 -4.09375 1.890625 -5.875 3.109375 -7.09375 C 3.171875 -7.15625 3.265625 -7.234375 3.265625 -7.3125 C 3.265625 -7.359375 3.21875 -7.40625 3.171875 -7.40625 C 3.15625 -7.40625 3.140625 -7.390625 3.125 -7.390625 Z M 3.125 -7.390625 "/>
</g>
<g id="glyph-0-15">
<path d="M 0.875 -5.265625 C 1.109375 -5.765625 1.484375 -6.265625 2.1875 -6.265625 C 3.109375 -6.265625 3.53125 -5.421875 3.53125 -4.65625 C 3.53125 -3.75 2.921875 -3 2.359375 -2.34375 C 1.796875 -1.6875 1.1875 -1.0625 0.625 -0.40625 C 0.53125 -0.3125 0.5 -0.25 0.5 -0.125 L 0.5 -0.015625 L 4.15625 -0.015625 L 4.421875 -1.734375 L 4.1875 -1.734375 C 4.09375 -1.28125 4.15625 -0.78125 3.640625 -0.78125 L 3.25 -0.78125 C 2.96875 -0.78125 2.6875 -0.765625 2.390625 -0.765625 C 2.015625 -0.765625 1.640625 -0.78125 1.265625 -0.78125 L 1.9375 -1.421875 C 2.21875 -1.703125 2.484375 -1.96875 2.765625 -2.203125 C 3.5 -2.859375 4.421875 -3.5625 4.421875 -4.65625 C 4.421875 -5.78125 3.484375 -6.59375 2.359375 -6.59375 C 1.421875 -6.59375 0.5 -5.859375 0.5 -4.8125 C 0.5 -4.5625 0.59375 -4.25 1 -4.25 C 1.296875 -4.25 1.53125 -4.453125 1.53125 -4.75 C 1.53125 -5.015625 1.328125 -5.28125 1.03125 -5.28125 C 0.96875 -5.28125 0.921875 -5.265625 0.875 -5.265625 Z M 0.875 -5.265625 "/>
</g>
<g id="glyph-0-16">
<path d="M 1.296875 -1.046875 C 1.046875 -1.015625 0.84375 -0.78125 0.84375 -0.546875 C 0.84375 -0.296875 1.046875 -0.015625 1.34375 -0.015625 C 1.609375 -0.015625 1.890625 -0.21875 1.890625 -0.515625 C 1.890625 -0.78125 1.703125 -1.0625 1.375 -1.0625 C 1.34375 -1.0625 1.328125 -1.046875 1.296875 -1.046875 Z M 1.296875 -1.046875 "/>
</g>
<g id="glyph-0-17">
<path d="M 1.078125 -5.71875 C 1.40625 -6.1875 1.9375 -6.328125 2.46875 -6.328125 C 3.0625 -6.328125 3.328125 -5.734375 3.328125 -5.25 C 3.328125 -4.625 3.109375 -3.8125 2.453125 -3.625 C 2.234375 -3.5625 1.640625 -3.625 1.640625 -3.4375 L 1.640625 -3.40625 C 1.65625 -3.34375 1.71875 -3.328125 1.796875 -3.328125 L 1.921875 -3.328125 C 2.03125 -3.328125 2.15625 -3.34375 2.265625 -3.34375 C 3.234375 -3.34375 3.484375 -2.421875 3.484375 -1.71875 L 3.484375 -1.5625 C 3.484375 -0.9375 3.203125 -0.0625 2.359375 -0.0625 C 1.8125 -0.0625 1.15625 -0.328125 0.875 -0.828125 C 0.890625 -0.828125 0.921875 -0.8125 0.96875 -0.8125 C 1.28125 -0.8125 1.515625 -1.0625 1.515625 -1.375 C 1.515625 -1.640625 1.328125 -1.875 1.046875 -1.90625 L 0.984375 -1.90625 C 0.59375 -1.90625 0.421875 -1.640625 0.421875 -1.328125 C 0.421875 -0.296875 1.53125 0.203125 2.390625 0.203125 C 3.453125 0.203125 4.5 -0.578125 4.5 -1.703125 C 4.5 -2.625 3.734375 -3.328125 2.84375 -3.484375 C 3.5625 -3.734375 4.234375 -4.34375 4.234375 -5.203125 C 4.234375 -6.0625 3.34375 -6.578125 2.421875 -6.578125 C 1.65625 -6.578125 0.6875 -6.15625 0.6875 -5.21875 C 0.6875 -4.90625 0.921875 -4.71875 1.1875 -4.71875 C 1.453125 -4.71875 1.671875 -4.921875 1.671875 -5.21875 C 1.671875 -5.515625 1.453125 -5.71875 1.15625 -5.71875 Z M 1.078125 -5.71875 "/>
</g>
<g id="glyph-0-18">
<path d="M 0.890625 -5.9375 L 0.890625 -5.640625 C 1.3125 -5.640625 1.78125 -5.6875 2.171875 -5.890625 L 2.171875 -0.75 C 2.171875 -0.359375 1.796875 -0.3125 1.40625 -0.3125 C 1.25 -0.3125 1.078125 -0.3125 0.9375 -0.3125 L 0.9375 -0.015625 L 4.140625 -0.015625 L 4.140625 -0.3125 C 3.96875 -0.3125 3.8125 -0.3125 3.640625 -0.3125 C 3.25 -0.3125 2.90625 -0.359375 2.90625 -0.734375 L 2.90625 -6.421875 C 2.90625 -6.5 2.875 -6.578125 2.765625 -6.578125 C 2.625 -6.578125 2.46875 -6.390625 2.359375 -6.3125 C 1.921875 -6.03125 1.390625 -5.9375 0.890625 -5.9375 Z M 0.890625 -5.9375 "/>
</g>
<g id="glyph-0-19">
<path d="M 2.328125 -6.578125 C 0.421875 -6.40625 0.390625 -4.078125 0.390625 -3.109375 C 0.390625 -2.203125 0.46875 -1.125 1.078125 -0.390625 C 1.40625 -0.015625 1.9375 0.21875 2.4375 0.21875 C 3.28125 0.21875 3.9375 -0.328125 4.234375 -1.078125 C 4.5 -1.765625 4.53125 -2.515625 4.53125 -3.234375 C 4.53125 -4.15625 4.4375 -5.28125 3.828125 -5.96875 C 3.5 -6.34375 2.96875 -6.59375 2.46875 -6.59375 C 2.421875 -6.59375 2.375 -6.578125 2.328125 -6.578125 Z M 1.21875 -2.546875 C 1.203125 -2.640625 1.203125 -2.71875 1.203125 -2.8125 L 1.203125 -3.28125 C 1.203125 -3.75 1.203125 -4.21875 1.25 -4.6875 C 1.28125 -5.0625 1.328125 -5.484375 1.53125 -5.8125 C 1.75 -6.125 2.09375 -6.359375 2.46875 -6.359375 C 3.625 -6.359375 3.703125 -4.921875 3.703125 -3.9375 L 3.703125 -3.484375 C 3.703125 -3.21875 3.71875 -2.921875 3.71875 -2.625 C 3.71875 -1.375 3.546875 -0.015625 2.46875 -0.015625 C 1.140625 -0.015625 1.265625 -1.921875 1.21875 -2.546875 Z M 1.21875 -2.546875 "/>
</g>
<g id="glyph-0-20">
<path d="M 0.609375 -7.390625 C 0.578125 -7.375 0.546875 -7.34375 0.546875 -7.3125 C 0.546875 -7.203125 0.78125 -7.03125 0.890625 -6.90625 C 1.9375 -5.6875 2.25 -4.015625 2.25 -2.46875 C 2.25 -0.875 1.9375 0.921875 0.75 2.109375 C 0.6875 2.171875 0.546875 2.28125 0.546875 2.359375 C 0.546875 2.40625 0.59375 2.453125 0.65625 2.453125 L 0.671875 2.453125 C 0.78125 2.4375 0.984375 2.234375 1.109375 2.109375 C 2.34375 0.875 2.84375 -0.8125 2.84375 -2.484375 C 2.84375 -4.296875 2.25 -6.109375 0.8125 -7.328125 C 0.765625 -7.359375 0.703125 -7.40625 0.65625 -7.40625 C 0.640625 -7.40625 0.625 -7.40625 0.609375 -7.390625 Z M 0.609375 -7.390625 "/>
</g>
<g id="glyph-0-21">
<path d="M 0.28125 -6.75 L 0.28125 -6.4375 C 0.421875 -6.4375 0.546875 -6.453125 0.6875 -6.453125 C 1.03125 -6.453125 1.34375 -6.40625 1.34375 -6.03125 L 1.34375 -0.734375 C 1.34375 -0.359375 1.03125 -0.3125 0.703125 -0.3125 C 0.546875 -0.3125 0.40625 -0.3125 0.28125 -0.3125 L 0.28125 -0.015625 L 3.265625 -0.015625 L 3.265625 -0.3125 C 3.140625 -0.3125 3 -0.3125 2.875 -0.3125 C 2.53125 -0.3125 2.21875 -0.359375 2.21875 -0.734375 L 2.21875 -6.03125 C 2.21875 -6.40625 2.546875 -6.453125 2.890625 -6.453125 C 3.015625 -6.453125 3.15625 -6.4375 3.265625 -6.4375 L 3.265625 -6.75 Z M 0.28125 -6.75 "/>
</g>
<g id="glyph-0-22">
<path d="M 1.296875 -4.234375 C 1.046875 -4.203125 0.84375 -3.984375 0.84375 -3.734375 C 0.84375 -3.484375 1.046875 -3.203125 1.34375 -3.203125 C 1.609375 -3.203125 1.890625 -3.40625 1.890625 -3.71875 C 1.890625 -3.96875 1.703125 -4.25 1.375 -4.25 C 1.34375 -4.25 1.328125 -4.234375 1.296875 -4.234375 Z M 1.296875 -1.046875 C 1.046875 -1.015625 0.84375 -0.78125 0.84375 -0.546875 C 0.84375 -0.296875 1.046875 -0.015625 1.34375 -0.015625 C 1.609375 -0.015625 1.890625 -0.21875 1.890625 -0.515625 C 1.890625 -0.78125 1.703125 -1.0625 1.375 -1.0625 C 1.34375 -1.0625 1.328125 -1.046875 1.296875 -1.046875 Z M 1.296875 -1.046875 "/>
</g>
<g id="glyph-0-23">
<path d="M 0.3125 -4.25 L 0.3125 -3.9375 L 0.453125 -3.9375 C 0.734375 -3.9375 1.015625 -3.921875 1.078125 -3.625 C 1.078125 -3.515625 1.078125 -3.421875 1.078125 -3.3125 L 1.078125 -1.34375 C 1.078125 -1.03125 1.09375 -0.71875 1.265625 -0.4375 C 1.53125 -0.015625 2.09375 0.109375 2.5625 0.109375 C 3 0.109375 3.40625 -0.09375 3.65625 -0.453125 C 3.734375 -0.546875 3.796875 -0.65625 3.828125 -0.765625 L 3.828125 0.09375 L 5.265625 -0.015625 L 5.265625 -0.3125 L 5.109375 -0.3125 C 4.796875 -0.3125 4.5 -0.34375 4.5 -0.78125 L 4.5 -4.359375 L 3.03125 -4.25 L 3.03125 -3.9375 L 3.1875 -3.9375 C 3.515625 -3.9375 3.8125 -3.921875 3.8125 -3.453125 L 3.8125 -1.671875 C 3.8125 -0.9375 3.4375 -0.125 2.609375 -0.125 C 2.0625 -0.125 1.78125 -0.265625 1.78125 -1.3125 L 1.78125 -4.359375 Z M 1.765625 -6.5 C 1.484375 -6.5 1.3125 -6.1875 1.3125 -5.984375 C 1.3125 -5.703125 1.546875 -5.46875 1.84375 -5.46875 L 1.90625 -5.46875 C 2.15625 -5.5 2.359375 -5.734375 2.359375 -5.96875 C 2.359375 -6.25 2.125 -6.5 1.84375 -6.5 C 1.8125 -6.5 1.796875 -6.5 1.765625 -6.5 Z M 3.671875 -6.5 C 3.421875 -6.453125 3.21875 -6.234375 3.21875 -5.984375 C 3.21875 -5.703125 3.453125 -5.46875 3.75 -5.46875 C 4.03125 -5.46875 4.265625 -5.6875 4.265625 -5.984375 C 4.265625 -6.265625 4.03125 -6.5 3.75 -6.5 C 3.71875 -6.5 3.703125 -6.5 3.671875 -6.5 Z M 3.671875 -6.5 "/>
</g>
<g id="glyph-1-0">
<path d="M 9.125 -5.96875 C 9.21875 -6.328125 9.234375 -6.421875 9.984375 -6.421875 C 10.203125 -6.421875 10.296875 -6.421875 10.296875 -6.625 C 10.296875 -6.734375 10.1875 -6.734375 10.03125 -6.734375 L 8.71875 -6.734375 C 8.46875 -6.734375 8.453125 -6.734375 8.34375 -6.546875 L 4.75 -0.921875 L 3.96875 -6.5 C 3.9375 -6.734375 3.921875 -6.734375 3.671875 -6.734375 L 2.3125 -6.734375 C 2.125 -6.734375 2.015625 -6.734375 2.015625 -6.546875 C 2.015625 -6.421875 2.109375 -6.421875 2.3125 -6.421875 C 2.4375 -6.421875 2.609375 -6.421875 2.734375 -6.40625 C 2.890625 -6.390625 2.953125 -6.359375 2.953125 -6.25 C 2.953125 -6.21875 2.9375 -6.1875 2.90625 -6.0625 L 1.65625 -1.046875 C 1.5625 -0.65625 1.390625 -0.328125 0.59375 -0.3125 C 0.546875 -0.3125 0.421875 -0.296875 0.421875 -0.125 C 0.421875 -0.03125 0.46875 0 0.546875 0 C 0.875 0 1.21875 -0.03125 1.53125 -0.03125 C 1.875 -0.03125 2.234375 0 2.546875 0 C 2.609375 0 2.734375 0 2.734375 -0.203125 C 2.734375 -0.3125 2.625 -0.3125 2.546875 -0.3125 C 1.984375 -0.3125 1.890625 -0.515625 1.890625 -0.734375 C 1.890625 -0.8125 1.890625 -0.859375 1.921875 -0.96875 L 3.265625 -6.34375 L 4.125 -0.234375 C 4.140625 -0.109375 4.15625 0 4.265625 0 C 4.375 0 4.4375 -0.109375 4.484375 -0.171875 L 8.46875 -6.421875 L 8.484375 -6.421875 L 7.0625 -0.765625 C 6.96875 -0.390625 6.953125 -0.3125 6.171875 -0.3125 C 6 -0.3125 5.890625 -0.3125 5.890625 -0.125 C 5.890625 0 6.015625 0 6.046875 0 C 6.3125 0 6.984375 -0.03125 7.265625 -0.03125 C 7.671875 -0.03125 8.09375 0 8.5 0 C 8.5625 0 8.6875 0 8.6875 -0.203125 C 8.6875 -0.3125 8.59375 -0.3125 8.40625 -0.3125 C 8.046875 -0.3125 7.765625 -0.3125 7.765625 -0.484375 C 7.765625 -0.515625 7.765625 -0.546875 7.8125 -0.71875 Z M 9.125 -5.96875 "/>
</g>
<g id="glyph-1-1">
<path d="M 3.625 -3.9375 L 4.46875 -3.9375 C 4.65625 -3.9375 4.765625 -3.9375 4.765625 -4.140625 C 4.765625 -4.25 4.65625 -4.25 4.5 -4.25 L 3.671875 -4.25 L 3.890625 -5.375 C 3.921875 -5.578125 4.0625 -6.28125 4.125 -6.40625 C 4.203125 -6.59375 4.375 -6.734375 4.578125 -6.734375 C 4.625 -6.734375 4.875 -6.734375 5.0625 -6.5625 C 4.640625 -6.515625 4.53125 -6.171875 4.53125 -6.03125 C 4.53125 -5.796875 4.71875 -5.671875 4.90625 -5.671875 C 5.15625 -5.671875 5.4375 -5.890625 5.4375 -6.265625 C 5.4375 -6.71875 4.984375 -6.953125 4.578125 -6.953125 C 4.25 -6.953125 3.625 -6.765625 3.328125 -5.796875 C 3.265625 -5.59375 3.25 -5.484375 3 -4.25 L 2.328125 -4.25 C 2.140625 -4.25 2.03125 -4.25 2.03125 -4.0625 C 2.03125 -3.9375 2.125 -3.9375 2.3125 -3.9375 L 2.953125 -3.9375 L 2.21875 -0.046875 C 2.046875 0.90625 1.875 1.796875 1.359375 1.796875 C 1.328125 1.796875 1.078125 1.796875 0.890625 1.625 C 1.34375 1.59375 1.421875 1.25 1.421875 1.09375 C 1.421875 0.875 1.25 0.75 1.0625 0.75 C 0.8125 0.75 0.515625 0.96875 0.515625 1.34375 C 0.515625 1.78125 0.953125 2.015625 1.359375 2.015625 C 1.90625 2.015625 2.296875 1.4375 2.46875 1.0625 C 2.796875 0.4375 3.015625 -0.75 3.03125 -0.8125 Z M 3.625 -3.9375 "/>
</g>
<g id="glyph-1-2">
<path d="M 2 -0.015625 C 2 -0.65625 1.75 -1.046875 1.375 -1.046875 C 1.046875 -1.046875 0.84375 -0.796875 0.84375 -0.515625 C 0.84375 -0.25 1.046875 0 1.375 0 C 1.484375 0 1.609375 -0.046875 1.71875 -0.125 C 1.75 -0.140625 1.75 -0.15625 1.765625 -0.15625 C 1.78125 -0.15625 1.78125 -0.140625 1.78125 -0.015625 C 1.78125 0.71875 1.4375 1.3125 1.109375 1.640625 C 1 1.75 1 1.765625 1 1.796875 C 1 1.859375 1.0625 1.90625 1.109375 1.90625 C 1.21875 1.90625 2 1.140625 2 -0.015625 Z M 2 -0.015625 "/>
</g>
<g id="glyph-2-0">
<path d="M 6.765625 -3.21875 C 6.921875 -3.21875 7.109375 -3.21875 7.109375 -3.421875 C 7.109375 -3.625 6.921875 -3.625 6.78125 -3.625 L 0.875 -3.625 C 0.734375 -3.625 0.546875 -3.625 0.546875 -3.421875 C 0.546875 -3.21875 0.734375 -3.21875 0.890625 -3.21875 Z M 6.78125 -1.3125 C 6.921875 -1.3125 7.109375 -1.3125 7.109375 -1.515625 C 7.109375 -1.703125 6.921875 -1.703125 6.765625 -1.703125 L 0.890625 -1.703125 C 0.734375 -1.703125 0.546875 -1.703125 0.546875 -1.515625 C 0.546875 -1.3125 0.734375 -1.3125 0.875 -1.3125 Z M 6.78125 -1.3125 "/>
</g>
<g id="glyph-2-1">
<path d="M 4.53125 -3.15625 C 4.53125 -3.9375 4.484375 -4.734375 4.140625 -5.46875 C 3.6875 -6.40625 2.875 -6.5625 2.46875 -6.5625 C 1.875 -6.5625 1.15625 -6.3125 0.75 -5.390625 C 0.4375 -4.71875 0.390625 -3.9375 0.390625 -3.15625 C 0.390625 -2.421875 0.421875 -1.53125 0.828125 -0.78125 C 1.25 0.015625 1.96875 0.21875 2.453125 0.21875 C 2.984375 0.21875 3.734375 0.015625 4.171875 -0.921875 C 4.484375 -1.609375 4.53125 -2.375 4.53125 -3.15625 Z M 2.453125 0 C 2.078125 0 1.484375 -0.25 1.3125 -1.1875 C 1.203125 -1.78125 1.203125 -2.6875 1.203125 -3.265625 C 1.203125 -3.90625 1.203125 -4.5625 1.28125 -5.09375 C 1.46875 -6.265625 2.203125 -6.34375 2.453125 -6.34375 C 2.78125 -6.34375 3.4375 -6.171875 3.625 -5.203125 C 3.71875 -4.640625 3.71875 -3.890625 3.71875 -3.265625 C 3.71875 -2.53125 3.71875 -1.859375 3.609375 -1.234375 C 3.453125 -0.296875 2.90625 0 2.453125 0 Z M 2.453125 0 "/>
</g>
<g id="glyph-2-2">
<path d="M 3.265625 2.359375 C 3.265625 2.34375 3.265625 2.3125 3.09375 2.15625 C 1.859375 0.90625 1.546875 -0.953125 1.546875 -2.46875 C 1.546875 -4.1875 1.921875 -5.890625 3.140625 -7.125 C 3.265625 -7.25 3.265625 -7.265625 3.265625 -7.296875 C 3.265625 -7.359375 3.21875 -7.390625 3.171875 -7.390625 C 3.0625 -7.390625 2.171875 -6.71875 1.59375 -5.46875 C 1.09375 -4.390625 0.96875 -3.296875 0.96875 -2.46875 C 0.96875 -1.703125 1.078125 -0.5 1.625 0.609375 C 2.21875 1.828125 3.0625 2.46875 3.171875 2.46875 C 3.21875 2.46875 3.265625 2.4375 3.265625 2.359375 Z M 3.265625 2.359375 "/>
</g>
<g id="glyph-2-3">
<path d="M 2.84375 -2.46875 C 2.84375 -3.234375 2.734375 -4.421875 2.203125 -5.546875 C 1.609375 -6.75 0.765625 -7.390625 0.65625 -7.390625 C 0.59375 -7.390625 0.5625 -7.359375 0.5625 -7.296875 C 0.5625 -7.265625 0.5625 -7.25 0.75 -7.0625 C 1.71875 -6.09375 2.28125 -4.53125 2.28125 -2.46875 C 2.28125 -0.78125 1.90625 0.953125 0.6875 2.203125 C 0.5625 2.3125 0.5625 2.34375 0.5625 2.359375 C 0.5625 2.421875 0.59375 2.46875 0.65625 2.46875 C 0.765625 2.46875 1.640625 1.796875 2.234375 0.546875 C 2.734375 -0.546875 2.84375 -1.640625 2.84375 -2.46875 Z M 2.84375 -2.46875 "/>
</g>
<g id="glyph-3-0">
<path d="M 2.640625 -3.09375 L 3 -3.09375 L 4.46875 -0.8125 C 4.578125 -0.65625 4.8125 -0.265625 4.921875 -0.125 C 4.984375 0 5.015625 0 5.25 0 L 6.609375 0 C 6.78125 0 6.9375 0 6.9375 -0.171875 C 6.9375 -0.25 6.875 -0.328125 6.78125 -0.34375 C 6.421875 -0.421875 5.9375 -1.078125 5.703125 -1.390625 C 5.625 -1.484375 5.140625 -2.140625 4.46875 -3.203125 C 5.359375 -3.359375 6.203125 -3.734375 6.203125 -4.90625 C 6.203125 -6.28125 4.75 -6.75 3.59375 -6.75 L 0.5 -6.75 C 0.3125 -6.75 0.15625 -6.75 0.15625 -6.578125 C 0.15625 -6.40625 0.34375 -6.40625 0.421875 -6.40625 C 0.984375 -6.40625 1.03125 -6.34375 1.03125 -5.84375 L 1.03125 -0.90625 C 1.03125 -0.421875 0.984375 -0.34375 0.421875 -0.34375 C 0.34375 -0.34375 0.15625 -0.34375 0.15625 -0.171875 C 0.15625 0 0.3125 0 0.5 0 L 3.1875 0 C 3.375 0 3.515625 0 3.515625 -0.171875 C 3.515625 -0.34375 3.359375 -0.34375 3.25 -0.34375 C 2.6875 -0.34375 2.640625 -0.421875 2.640625 -0.90625 Z M 4.546875 -3.578125 C 4.828125 -3.9375 4.84375 -4.46875 4.84375 -4.90625 C 4.84375 -5.375 4.796875 -5.890625 4.46875 -6.296875 C 4.875 -6.21875 5.859375 -5.90625 5.859375 -4.90625 C 5.859375 -4.265625 5.5625 -3.765625 4.546875 -3.578125 Z M 2.640625 -5.875 C 2.640625 -6.078125 2.640625 -6.40625 3.25 -6.40625 C 4.09375 -6.40625 4.5 -6.0625 4.5 -4.90625 C 4.5 -3.625 4.203125 -3.4375 2.640625 -3.4375 Z M 1.296875 -0.34375 C 1.375 -0.515625 1.375 -0.796875 1.375 -0.890625 L 1.375 -5.859375 C 1.375 -5.96875 1.375 -6.234375 1.296875 -6.40625 L 2.421875 -6.40625 C 2.296875 -6.25 2.296875 -6.046875 2.296875 -5.90625 L 2.296875 -0.890625 C 2.296875 -0.78125 2.296875 -0.515625 2.375 -0.34375 Z M 3.40625 -3.09375 C 3.46875 -3.109375 3.515625 -3.109375 3.59375 -3.109375 C 3.734375 -3.109375 3.953125 -3.140625 4.09375 -3.15625 C 4.25 -2.921875 5.3125 -1.15625 6.125 -0.34375 L 5.171875 -0.34375 Z M 3.40625 -3.09375 "/>
</g>
<g id="glyph-4-0">
<path d="M 3.484375 -1.25 L 3.25 -1.25 C 3.234375 -1.109375 3.15625 -0.703125 3.078125 -0.625 C 3.015625 -0.59375 2.484375 -0.59375 2.390625 -0.59375 L 1.125 -0.59375 C 1.84375 -1.234375 2.078125 -1.421875 2.5 -1.75 C 3.015625 -2.15625 3.484375 -2.578125 3.484375 -3.234375 C 3.484375 -4.078125 2.75 -4.578125 1.875 -4.578125 C 1.015625 -4.578125 0.4375 -3.984375 0.4375 -3.34375 C 0.4375 -3 0.734375 -2.96875 0.796875 -2.96875 C 0.96875 -2.96875 1.171875 -3.078125 1.171875 -3.328125 C 1.171875 -3.453125 1.125 -3.6875 0.765625 -3.6875 C 0.96875 -4.1875 1.4375 -4.34375 1.765625 -4.34375 C 2.453125 -4.34375 2.8125 -3.796875 2.8125 -3.234375 C 2.8125 -2.640625 2.390625 -2.15625 2.171875 -1.90625 L 0.5 -0.265625 C 0.4375 -0.203125 0.4375 -0.1875 0.4375 0 L 3.28125 0 Z M 3.484375 -1.25 "/>
</g>
<g id="glyph-4-1">
<path d="M 3.5625 -2.203125 C 3.5625 -2.96875 3.46875 -3.515625 3.15625 -3.984375 C 2.9375 -4.3125 2.515625 -4.578125 1.96875 -4.578125 C 0.359375 -4.578125 0.359375 -2.703125 0.359375 -2.203125 C 0.359375 -1.703125 0.359375 0.140625 1.96875 0.140625 C 3.5625 0.140625 3.5625 -1.703125 3.5625 -2.203125 Z M 1.96875 -0.0625 C 1.640625 -0.0625 1.21875 -0.234375 1.078125 -0.8125 C 0.984375 -1.21875 0.984375 -1.78125 0.984375 -2.296875 C 0.984375 -2.796875 0.984375 -3.328125 1.09375 -3.703125 C 1.234375 -4.25 1.671875 -4.390625 1.96875 -4.390625 C 2.328125 -4.390625 2.6875 -4.171875 2.8125 -3.765625 C 2.921875 -3.390625 2.9375 -2.890625 2.9375 -2.296875 C 2.9375 -1.78125 2.9375 -1.265625 2.84375 -0.828125 C 2.703125 -0.203125 2.234375 -0.0625 1.96875 -0.0625 Z M 1.96875 -0.0625 "/>
</g>
<g id="glyph-4-2">
<path d="M 2.3125 -4.390625 C 2.3125 -4.578125 2.296875 -4.578125 2.109375 -4.578125 C 1.671875 -4.15625 1.03125 -4.140625 0.75 -4.140625 L 0.75 -3.890625 C 0.921875 -3.890625 1.375 -3.890625 1.75 -4.09375 L 1.75 -0.5625 C 1.75 -0.34375 1.75 -0.25 1.0625 -0.25 L 0.796875 -0.25 L 0.796875 0 C 0.921875 0 1.78125 -0.03125 2.03125 -0.03125 C 2.25 -0.03125 3.109375 0 3.265625 0 L 3.265625 -0.25 L 3 -0.25 C 2.3125 -0.25 2.3125 -0.34375 2.3125 -0.5625 Z M 2.3125 -4.390625 "/>
</g>
<g id="glyph-5-0">
<path d="M 3.953125 2.234375 C 4 2.359375 4.046875 2.46875 4.1875 2.46875 C 4.28125 2.46875 4.375 2.375 4.375 2.265625 C 4.375 2.25 4.375 2.234375 4.328125 2.109375 L 0.953125 -7.15625 C 0.890625 -7.328125 0.875 -7.390625 0.734375 -7.390625 C 0.625 -7.390625 0.546875 -7.3125 0.546875 -7.203125 C 0.546875 -7.171875 0.546875 -7.15625 0.59375 -7.046875 Z M 3.953125 2.234375 "/>
</g>
<g id="glyph-5-1">
<path d="M 2.796875 -6.078125 C 2.796875 -6.484375 3.046875 -7.109375 4.125 -7.171875 C 4.171875 -7.1875 4.203125 -7.234375 4.203125 -7.28125 C 4.203125 -7.390625 4.125 -7.390625 4.015625 -7.390625 C 3.03125 -7.390625 2.140625 -6.890625 2.125 -6.15625 L 2.125 -3.921875 C 2.125 -3.53125 2.125 -3.21875 1.734375 -2.890625 C 1.390625 -2.609375 1.015625 -2.578125 0.796875 -2.578125 C 0.75 -2.5625 0.703125 -2.53125 0.703125 -2.46875 C 0.703125 -2.359375 0.765625 -2.359375 0.875 -2.359375 C 1.515625 -2.3125 1.984375 -1.96875 2.09375 -1.484375 C 2.125 -1.375 2.125 -1.34375 2.125 -1 L 2.125 0.953125 C 2.125 1.375 2.125 1.6875 2.609375 2.0625 C 2.984375 2.359375 3.640625 2.46875 4.015625 2.46875 C 4.125 2.46875 4.203125 2.46875 4.203125 2.359375 C 4.203125 2.25 4.15625 2.25 4.046875 2.25 C 3.4375 2.203125 2.953125 1.890625 2.8125 1.390625 C 2.796875 1.296875 2.796875 1.28125 2.796875 0.921875 L 2.796875 -1.140625 C 2.796875 -1.59375 2.71875 -1.765625 2.390625 -2.078125 C 2.1875 -2.28125 1.90625 -2.390625 1.625 -2.46875 C 2.4375 -2.6875 2.796875 -3.140625 2.796875 -3.71875 Z M 2.796875 -6.078125 "/>
</g>
<g id="glyph-5-2">
<path d="M 2.125 1.15625 C 2.125 1.546875 1.875 2.171875 0.796875 2.25 C 0.75 2.25 0.703125 2.296875 0.703125 2.359375 C 0.703125 2.46875 0.8125 2.46875 0.90625 2.46875 C 1.859375 2.46875 2.78125 1.984375 2.796875 1.234375 L 2.796875 -1.015625 C 2.796875 -1.40625 2.796875 -1.71875 3.1875 -2.046875 C 3.53125 -2.328125 3.90625 -2.34375 4.125 -2.359375 C 4.171875 -2.359375 4.203125 -2.40625 4.203125 -2.46875 C 4.203125 -2.5625 4.15625 -2.5625 4.046875 -2.578125 C 3.40625 -2.609375 2.921875 -2.96875 2.8125 -3.453125 C 2.796875 -3.5625 2.796875 -3.578125 2.796875 -3.9375 L 2.796875 -5.890625 C 2.796875 -6.296875 2.796875 -6.609375 2.3125 -6.984375 C 1.921875 -7.296875 1.25 -7.390625 0.90625 -7.390625 C 0.8125 -7.390625 0.703125 -7.390625 0.703125 -7.28125 C 0.703125 -7.1875 0.765625 -7.1875 0.875 -7.171875 C 1.484375 -7.140625 1.96875 -6.828125 2.09375 -6.3125 C 2.125 -6.234375 2.125 -6.21875 2.125 -5.859375 L 2.125 -3.78125 C 2.125 -3.328125 2.203125 -3.171875 2.53125 -2.84375 C 2.734375 -2.640625 3.015625 -2.546875 3.296875 -2.46875 C 2.484375 -2.234375 2.125 -1.78125 2.125 -1.21875 Z M 2.125 1.15625 "/>
</g>
<g id="glyph-5-3">
<path d="M 8.21875 -2.265625 C 7.6875 -1.859375 7.421875 -1.453125 7.328125 -1.328125 C 6.890625 -0.640625 6.8125 -0.015625 6.8125 -0.015625 C 6.8125 0.109375 6.9375 0.109375 7.015625 0.109375 C 7.171875 0.109375 7.1875 0.09375 7.234375 -0.09375 C 7.453125 -1.0625 8.03125 -1.890625 9.15625 -2.34375 C 9.265625 -2.375 9.296875 -2.390625 9.296875 -2.46875 C 9.296875 -2.53125 9.234375 -2.5625 9.21875 -2.578125 C 8.78125 -2.734375 7.59375 -3.234375 7.21875 -4.890625 C 7.1875 -5.015625 7.171875 -5.03125 7.015625 -5.03125 C 6.9375 -5.03125 6.8125 -5.03125 6.8125 -4.921875 C 6.8125 -4.90625 6.90625 -4.28125 7.3125 -3.625 C 7.515625 -3.328125 7.796875 -2.984375 8.21875 -2.65625 L 0.890625 -2.65625 C 0.71875 -2.65625 0.546875 -2.65625 0.546875 -2.46875 C 0.546875 -2.265625 0.71875 -2.265625 0.890625 -2.265625 Z M 8.21875 -2.265625 "/>
</g>
<g id="glyph-5-4">
<path d="M 6.21875 -6.671875 C 6.296875 -6.8125 6.296875 -6.828125 6.296875 -6.859375 C 6.296875 -6.9375 6.234375 -7.0625 6.09375 -7.0625 C 5.96875 -7.0625 5.9375 -7 5.875 -6.859375 L 1.453125 1.75 C 1.375 1.890625 1.375 1.90625 1.375 1.9375 C 1.375 2.015625 1.4375 2.125 1.5625 2.125 C 1.6875 2.125 1.71875 2.078125 1.78125 1.9375 Z M 6.21875 -6.671875 "/>
</g>
<g id="glyph-6-0">
<path d="M 4.078125 11.328125 C 4.078125 11.28125 4.046875 11.265625 4.03125 11.234375 C 3.578125 10.75 2.90625 9.953125 2.5 8.34375 C 2.265625 7.453125 2.171875 6.4375 2.171875 5.515625 C 2.171875 2.921875 2.796875 1.109375 3.984375 -0.171875 C 4.078125 -0.25 4.078125 -0.28125 4.078125 -0.296875 C 4.078125 -0.390625 4 -0.390625 3.953125 -0.390625 C 3.8125 -0.390625 3.265625 0.203125 3.140625 0.34375 C 2.140625 1.53125 1.5 3.3125 1.5 5.515625 C 1.5 6.90625 1.75 8.890625 3.03125 10.5625 C 3.140625 10.671875 3.78125 11.421875 3.953125 11.421875 C 4 11.421875 4.078125 11.421875 4.078125 11.328125 Z M 4.078125 11.328125 "/>
</g>
<g id="glyph-6-1">
<path d="M 3 5.515625 C 3 4.125 2.765625 2.140625 1.46875 0.46875 C 1.375 0.359375 0.734375 -0.390625 0.546875 -0.390625 C 0.5 -0.390625 0.4375 -0.375 0.4375 -0.296875 C 0.4375 -0.25 0.453125 -0.234375 0.5 -0.203125 C 0.96875 0.3125 1.609375 1.109375 2.015625 2.6875 C 2.234375 3.578125 2.328125 4.59375 2.328125 5.515625 C 2.328125 6.5 2.234375 7.515625 1.984375 8.484375 C 1.609375 9.859375 1.03125 10.640625 0.515625 11.203125 C 0.4375 11.28125 0.4375 11.3125 0.4375 11.328125 C 0.4375 11.40625 0.5 11.421875 0.546875 11.421875 C 0.703125 11.421875 1.25 10.828125 1.359375 10.6875 C 2.359375 9.5 3 7.71875 3 5.515625 Z M 3 5.515625 "/>
</g>
<g id="glyph-7-0">
<path d="M 1.703125 -2.734375 L 2.40625 -2.734375 C 2.53125 -2.734375 2.625 -2.734375 2.625 -2.875 C 2.625 -2.984375 2.53125 -2.984375 2.421875 -2.984375 L 1.765625 -2.984375 L 2.015625 -4 C 2.03125 -4.03125 2.03125 -4.0625 2.03125 -4.09375 C 2.03125 -4.21875 1.9375 -4.3125 1.796875 -4.3125 C 1.625 -4.3125 1.53125 -4.203125 1.484375 -4.015625 C 1.421875 -3.84375 1.515625 -4.171875 1.21875 -2.984375 L 0.515625 -2.984375 C 0.375 -2.984375 0.296875 -2.984375 0.296875 -2.828125 C 0.296875 -2.734375 0.375 -2.734375 0.5 -2.734375 L 1.15625 -2.734375 L 0.75 -1.09375 C 0.703125 -0.921875 0.640625 -0.671875 0.640625 -0.59375 C 0.640625 -0.171875 0.984375 0.0625 1.375 0.0625 C 2.140625 0.0625 2.578125 -0.890625 2.578125 -0.984375 C 2.578125 -1.078125 2.5 -1.078125 2.46875 -1.078125 C 2.390625 -1.078125 2.375 -1.0625 2.328125 -0.953125 C 2.140625 -0.515625 1.78125 -0.125 1.40625 -0.125 C 1.25 -0.125 1.15625 -0.21875 1.15625 -0.46875 C 1.15625 -0.53125 1.1875 -0.671875 1.203125 -0.75 Z M 1.703125 -2.734375 "/>
</g>
<g id="glyph-7-1">
<path d="M 2.15625 -4.578125 C 2.171875 -4.59375 2.1875 -4.6875 2.1875 -4.703125 C 2.1875 -4.734375 2.15625 -4.796875 2.078125 -4.796875 C 1.9375 -4.796875 1.375 -4.734375 1.1875 -4.71875 C 1.140625 -4.71875 1.046875 -4.703125 1.046875 -4.5625 C 1.046875 -4.46875 1.140625 -4.46875 1.21875 -4.46875 C 1.546875 -4.46875 1.546875 -4.421875 1.546875 -4.359375 C 1.546875 -4.3125 1.546875 -4.28125 1.53125 -4.21875 L 0.546875 -0.296875 C 0.515625 -0.171875 0.515625 -0.171875 0.515625 -0.15625 C 0.515625 -0.046875 0.59375 0.0625 0.75 0.0625 C 0.9375 0.0625 1.03125 -0.0625 1.078125 -0.21875 C 1.078125 -0.25 1.375 -1.46875 1.40625 -1.5625 C 1.90625 -1.515625 2.296875 -1.359375 2.296875 -1 C 2.296875 -0.953125 2.296875 -0.921875 2.28125 -0.859375 C 2.25 -0.75 2.25 -0.71875 2.25 -0.640625 C 2.25 -0.15625 2.65625 0.0625 2.984375 0.0625 C 3.65625 0.0625 3.859375 -0.984375 3.859375 -0.984375 C 3.859375 -1.078125 3.765625 -1.078125 3.75 -1.078125 C 3.65625 -1.078125 3.640625 -1.046875 3.609375 -0.90625 C 3.53125 -0.609375 3.34375 -0.125 3 -0.125 C 2.8125 -0.125 2.765625 -0.296875 2.765625 -0.484375 C 2.765625 -0.59375 2.765625 -0.609375 2.796875 -0.796875 C 2.8125 -0.8125 2.84375 -0.9375 2.84375 -1.015625 C 2.84375 -1.625 2.015625 -1.71875 1.71875 -1.734375 C 1.921875 -1.859375 2.171875 -2.09375 2.296875 -2.203125 C 2.640625 -2.53125 2.984375 -2.859375 3.375 -2.859375 C 3.453125 -2.859375 3.546875 -2.828125 3.609375 -2.765625 C 3.3125 -2.71875 3.25 -2.484375 3.25 -2.375 C 3.25 -2.21875 3.359375 -2.125 3.515625 -2.125 C 3.703125 -2.125 3.921875 -2.265625 3.921875 -2.5625 C 3.921875 -2.796875 3.75 -3.046875 3.390625 -3.046875 C 2.984375 -3.046875 2.625 -2.765625 2.28125 -2.4375 C 1.984375 -2.15625 1.765625 -1.953125 1.484375 -1.828125 Z M 2.15625 -4.578125 "/>
</g>
</g>
</defs>
<g fill="rgb(0%, 0%, 0%)" fill-opacity="1">
<use xlink:href="#glyph-0-0" x="10.948862" y="17.891953"/>
<use xlink:href="#glyph-0-1" x="18.343989" y="17.891953"/>
<use xlink:href="#glyph-0-2" x="23.821787" y="17.891953"/>
</g>
<g fill="rgb(0%, 0%, 0%)" fill-opacity="1">
<use xlink:href="#glyph-1-0" x="33.571164" y="17.891953"/>
</g>
<g fill="rgb(0%, 0%, 0%)" fill-opacity="1">
<use xlink:href="#glyph-2-0" x="52.705981" y="17.891953"/>
</g>
<g fill="rgb(0%, 0%, 0%)" fill-opacity="1">
<use xlink:href="#glyph-3-0" x="68.869137" y="17.891953"/>
</g>
<g fill="rgb(0%, 0%, 0%)" fill-opacity="1">
<use xlink:href="#glyph-4-0" x="75.991699" y="14.312176"/>
</g>
<g fill="rgb(0%, 0%, 0%)" fill-opacity="1">
<use xlink:href="#glyph-5-0" x="84.908471" y="17.891953"/>
</g>
<g fill="rgb(0%, 0%, 0%)" fill-opacity="1">
<use xlink:href="#glyph-5-1" x="94.327444" y="17.891953"/>
</g>
<g fill="rgb(0%, 0%, 0%)" fill-opacity="1">
<use xlink:href="#glyph-2-1" x="99.258844" y="17.891953"/>
</g>
<g fill="rgb(0%, 0%, 0%)" fill-opacity="1">
<use xlink:href="#glyph-5-2" x="104.190244" y="17.891953"/>
</g>
<g fill="rgb(0%, 0%, 0%)" fill-opacity="1">
<use xlink:href="#glyph-0-3" x="115.867798" y="17.891953"/>
<use xlink:href="#glyph-0-4" x="118.606697" y="17.891953"/>
<use xlink:href="#glyph-0-5" x="122.495599" y="17.891953"/>
</g>
<g fill="rgb(0%, 0%, 0%)" fill-opacity="1">
<use xlink:href="#glyph-1-1" x="133.066547" y="17.891953"/>
</g>
<g fill="rgb(0%, 0%, 0%)" fill-opacity="1">
<use xlink:href="#glyph-0-6" x="145.686985" y="17.891953"/>
<use xlink:href="#glyph-0-7" x="149.549257" y="17.891953"/>
<use xlink:href="#glyph-0-5" x="154.479671" y="17.891953"/>
<use xlink:href="#glyph-0-3" x="158.314327" y="17.891953"/>
<use xlink:href="#glyph-0-8" x="161.053226" y="17.891953"/>
<use xlink:href="#glyph-0-9" x="165.98364" y="17.891953"/>
<use xlink:href="#glyph-0-7" x="171.461438" y="17.891953"/>
<use xlink:href="#glyph-0-10" x="176.391852" y="17.891953"/>
<use xlink:href="#glyph-0-11" x="179.130751" y="17.891953"/>
</g>
<g fill="rgb(0%, 0%, 0%)" fill-opacity="1">
<use xlink:href="#glyph-0-7" x="188.615805" y="17.891953"/>
<use xlink:href="#glyph-0-10" x="193.546218" y="17.891953"/>
<use xlink:href="#glyph-0-4" x="196.285118" y="17.891953"/>
<use xlink:href="#glyph-0-8" x="200.174019" y="17.891953"/>
</g>
<g fill="rgb(0%, 0%, 0%)" fill-opacity="1">
<use xlink:href="#glyph-0-4" x="211.840725" y="17.891953"/>
<use xlink:href="#glyph-0-5" x="215.729626" y="17.891953"/>
<use xlink:href="#glyph-0-12" x="219.564283" y="17.891953"/>
<use xlink:href="#glyph-0-5" x="223.946324" y="17.891953"/>
<use xlink:href="#glyph-0-3" x="227.780981" y="17.891953"/>
<use xlink:href="#glyph-0-13" x="230.51988" y="17.891953"/>
</g>
<g fill="rgb(0%, 0%, 0%)" fill-opacity="1">
<use xlink:href="#glyph-0-14" x="10.948862" y="29.727193"/>
<use xlink:href="#glyph-0-15" x="14.783518" y="29.727193"/>
<use xlink:href="#glyph-0-16" x="19.713932" y="29.727193"/>
<use xlink:href="#glyph-0-17" x="22.452831" y="29.727193"/>
<use xlink:href="#glyph-0-16" x="27.383244" y="29.727193"/>
<use xlink:href="#glyph-0-18" x="30.122144" y="29.727193"/>
<use xlink:href="#glyph-0-19" x="35.052557" y="29.727193"/>
<use xlink:href="#glyph-0-14" x="39.98297" y="29.727193"/>
<use xlink:href="#glyph-0-3" x="43.817627" y="29.727193"/>
<use xlink:href="#glyph-0-3" x="46.556526" y="29.727193"/>
<use xlink:href="#glyph-0-3" x="49.295425" y="29.727193"/>
<use xlink:href="#glyph-0-20" x="52.034325" y="29.727193"/>
<use xlink:href="#glyph-0-20" x="55.868981" y="29.727193"/>
<use xlink:href="#glyph-0-16" x="59.703637" y="29.727193"/>
</g>
<g fill="rgb(0%, 0%, 0%)" fill-opacity="1">
<use xlink:href="#glyph-0-21" x="66.663815" y="29.727193"/>
<use xlink:href="#glyph-0-9" x="70.224285" y="29.727193"/>
</g>
<g fill="rgb(0%, 0%, 0%)" fill-opacity="1">
<use xlink:href="#glyph-6-0" x="79.92391" y="21.738035"/>
</g>
<g fill="rgb(0%, 0%, 0%)" fill-opacity="1">
<use xlink:href="#glyph-4-1" x="84.444169" y="25.350481"/>
</g>
<g fill="rgb(0%, 0%, 0%)" fill-opacity="1">
<use xlink:href="#glyph-4-1" x="84.444169" y="33.127783"/>
</g>
<g fill="rgb(0%, 0%, 0%)" fill-opacity="1">
<use xlink:href="#glyph-6-1" x="88.37638" y="21.738035"/>
</g>
<g fill="rgb(0%, 0%, 0%)" fill-opacity="1">
<use xlink:href="#glyph-0-1" x="97.114955" y="29.727193"/>
<use xlink:href="#glyph-0-9" x="102.592754" y="29.727193"/>
<use xlink:href="#glyph-0-4" x="108.070552" y="29.727193"/>
<use xlink:href="#glyph-0-5" x="111.959454" y="29.727193"/>
<use xlink:href="#glyph-0-12" x="115.79411" y="29.727193"/>
<use xlink:href="#glyph-0-5" x="120.176152" y="29.727193"/>
<use xlink:href="#glyph-0-3" x="124.010808" y="29.727193"/>
<use xlink:href="#glyph-0-13" x="126.749708" y="29.727193"/>
<use xlink:href="#glyph-0-22" x="131.680121" y="29.727193"/>
</g>
<g fill="rgb(0%, 0%, 0%)" fill-opacity="1">
<use xlink:href="#glyph-0-2" x="138.640298" y="29.727193"/>
<use xlink:href="#glyph-0-23" x="141.653384" y="29.727193"/>
<use xlink:href="#glyph-0-6" x="147.131182" y="29.727193"/>
</g>
<g fill="rgb(0%, 0%, 0%)" fill-opacity="1">
<use xlink:href="#glyph-7-0" x="155.214055" y="26.147417"/>
</g>
<g fill="rgb(0%, 0%, 0%)" fill-opacity="1">
<use xlink:href="#glyph-6-0" x="158.686914" y="21.738035"/>
</g>
<g fill="rgb(0%, 0%, 0%)" fill-opacity="1">
<use xlink:href="#glyph-4-2" x="164.605029" y="25.843492"/>
</g>
<path fill="none" stroke-width="0.398" stroke-linecap="butt" stroke-linejoin="miter" stroke="rgb(0%, 0%, 0%)" stroke-opacity="1" stroke-miterlimit="10" d="M -0.000573411 -0.000577642 L 4.402914 -0.000577642 " transform="matrix(0.989982, 0, 0, -0.989982, 164.391193, 27.261147)"/>
<g fill="rgb(0%, 0%, 0%)" fill-opacity="1">
<use xlink:href="#glyph-7-1" x="164.391193" y="33.127783"/>
</g>
<g fill="rgb(0%, 0%, 0%)" fill-opacity="1">
<use xlink:href="#glyph-1-2" x="169.934104" y="29.727193"/>
</g>
<g fill="rgb(0%, 0%, 0%)" fill-opacity="1">
<use xlink:href="#glyph-4-2" x="175.714612" y="25.843492"/>
</g>
<path fill="none" stroke-width="0.398" stroke-linecap="butt" stroke-linejoin="miter" stroke="rgb(0%, 0%, 0%)" stroke-opacity="1" stroke-miterlimit="10" d="M -0.00078364 -0.000577642 L 4.402703 -0.000577642 " transform="matrix(0.989982, 0, 0, -0.989982, 175.500776, 27.261147)"/>
<g fill="rgb(0%, 0%, 0%)" fill-opacity="1">
<use xlink:href="#glyph-7-1" x="175.500776" y="33.127783"/>
</g>
<g fill="rgb(0%, 0%, 0%)" fill-opacity="1">
<use xlink:href="#glyph-6-1" x="181.043688" y="21.738035"/>
</g>
<g fill="rgb(0%, 0%, 0%)" fill-opacity="1">
<use xlink:href="#glyph-5-3" x="189.857501" y="29.727193"/>
</g>
<g fill="rgb(0%, 0%, 0%)" fill-opacity="1">
<use xlink:href="#glyph-6-0" x="204.01425" y="21.738035"/>
</g>
<g fill="rgb(0%, 0%, 0%)" fill-opacity="1">
<use xlink:href="#glyph-4-1" x="208.53451" y="25.350481"/>
</g>
<g fill="rgb(0%, 0%, 0%)" fill-opacity="1">
<use xlink:href="#glyph-4-1" x="208.53451" y="33.127783"/>
</g>
<g fill="rgb(0%, 0%, 0%)" fill-opacity="1">
<use xlink:href="#glyph-6-1" x="212.465731" y="21.738035"/>
</g>
<g fill="rgb(0%, 0%, 0%)" fill-opacity="1">
<use xlink:href="#glyph-0-13" x="221.205296" y="29.727193"/>
<use xlink:href="#glyph-0-3" x="226.135709" y="29.727193"/>
<use xlink:href="#glyph-0-10" x="228.874609" y="29.727193"/>
<use xlink:href="#glyph-0-5" x="231.613508" y="29.727193"/>
</g>
<g fill="rgb(0%, 0%, 0%)" fill-opacity="1">
<use xlink:href="#glyph-1-1" x="10.948862" y="42.548456"/>
</g>
<g fill="rgb(0%, 0%, 0%)" fill-opacity="1">
<use xlink:href="#glyph-6-0" x="16.839257" y="34.560288"/>
</g>
<g fill="rgb(0%, 0%, 0%)" fill-opacity="1">
<use xlink:href="#glyph-4-2" x="22.756383" y="38.665745"/>
</g>
<path fill="none" stroke-width="0.398" stroke-linecap="butt" stroke-linejoin="miter" stroke="rgb(0%, 0%, 0%)" stroke-opacity="1" stroke-miterlimit="10" d="M 0.000426602 0.00138226 L 4.403914 0.00138226 " transform="matrix(0.989982, 0, 0, -0.989982, 22.542546, 40.0834)"/>
<g fill="rgb(0%, 0%, 0%)" fill-opacity="1">
<use xlink:href="#glyph-7-1" x="22.542546" y="45.950036"/>
</g>
<g fill="rgb(0%, 0%, 0%)" fill-opacity="1">
<use xlink:href="#glyph-1-2" x="28.085458" y="42.548456"/>
</g>
<g fill="rgb(0%, 0%, 0%)" fill-opacity="1">
<use xlink:href="#glyph-4-2" x="33.866956" y="38.665745"/>
</g>
<path fill="none" stroke-width="0.398" stroke-linecap="butt" stroke-linejoin="miter" stroke="rgb(0%, 0%, 0%)" stroke-opacity="1" stroke-miterlimit="10" d="M -0.000783626 0.00138226 L 4.402703 0.00138226 " transform="matrix(0.989982, 0, 0, -0.989982, 33.65312, 40.0834)"/>
<g fill="rgb(0%, 0%, 0%)" fill-opacity="1">
<use xlink:href="#glyph-7-1" x="33.65312" y="45.950036"/>
</g>
<g fill="rgb(0%, 0%, 0%)" fill-opacity="1">
<use xlink:href="#glyph-6-1" x="39.196031" y="34.560288"/>
</g>
<g fill="rgb(0%, 0%, 0%)" fill-opacity="1">
<use xlink:href="#glyph-2-0" x="46.456563" y="42.548456"/>
</g>
<g fill="rgb(0%, 0%, 0%)" fill-opacity="1">
<use xlink:href="#glyph-4-2" x="58.050247" y="38.665745"/>
</g>
<path fill="none" stroke-width="0.398" stroke-linecap="butt" stroke-linejoin="miter" stroke="rgb(0%, 0%, 0%)" stroke-opacity="1" stroke-miterlimit="10" d="M 0.000539479 0.00138226 L 3.969991 0.00138226 " transform="matrix(0.989982, 0, 0, -0.989982, 58.050247, 40.0834)"/>
<g fill="rgb(0%, 0%, 0%)" fill-opacity="1">
<use xlink:href="#glyph-4-0" x="58.050247" y="45.950036"/>
</g>
<g fill="rgb(0%, 0%, 0%)" fill-opacity="1">
<use xlink:href="#glyph-5-3" x="65.904768" y="42.548456"/>
</g>
<g fill="rgb(0%, 0%, 0%)" fill-opacity="1">
<use xlink:href="#glyph-4-2" x="79.691264" y="38.665745"/>
</g>
<path fill="none" stroke-width="0.398" stroke-linecap="butt" stroke-linejoin="miter" stroke="rgb(0%, 0%, 0%)" stroke-opacity="1" stroke-miterlimit="10" d="M 0.000144026 0.00138226 L 3.969596 0.00138226 " transform="matrix(0.989982, 0, 0, -0.989982, 79.691264, 40.0834)"/>
<g fill="rgb(0%, 0%, 0%)" fill-opacity="1">
<use xlink:href="#glyph-4-0" x="79.691264" y="45.950036"/>
</g>
<g fill="rgb(0%, 0%, 0%)" fill-opacity="1">
<use xlink:href="#glyph-5-4" x="87.545784" y="42.548456"/>
</g>
<g fill="rgb(0%, 0%, 0%)" fill-opacity="1">
<use xlink:href="#glyph-2-0" x="87.545784" y="42.548456"/>
</g>
<g fill="rgb(0%, 0%, 0%)" fill-opacity="1">
<use xlink:href="#glyph-2-1" x="97.958928" y="42.548456"/>
</g>
<g fill="rgb(0%, 0%, 0%)" fill-opacity="1">
<use xlink:href="#glyph-2-0" x="105.632186" y="42.548456"/>
</g>
<g fill="rgb(0%, 0%, 0%)" fill-opacity="1">
<use xlink:href="#glyph-1-1" x="116.035466" y="42.548456"/>
</g>
<g fill="rgb(0%, 0%, 0%)" fill-opacity="1">
<use xlink:href="#glyph-2-2" x="121.929475" y="42.548456"/>
<use xlink:href="#glyph-2-1" x="125.765118" y="42.548456"/>
</g>
<g fill="rgb(0%, 0%, 0%)" fill-opacity="1">
<use xlink:href="#glyph-1-2" x="130.696517" y="42.548456"/>
</g>
<g fill="rgb(0%, 0%, 0%)" fill-opacity="1">
<use xlink:href="#glyph-2-1" x="135.08349" y="42.548456"/>
<use xlink:href="#glyph-2-3" x="140.01489" y="42.548456"/>
</g>
<g fill="rgb(0%, 0%, 0%)" fill-opacity="1">
<use xlink:href="#glyph-0-16" x="143.850533" y="42.548456"/>
</g>
</svg>
