<?xml version="1.0" encoding="UTF-8"?>
<svg xmlns="http://www.w3.org/2000/svg" xmlns:xlink="http://www.w3.org/1999/xlink" width="246.697pt" height="71.406pt" viewBox="0 0 246.697 71.406">
<defs>
<g>
<g id="glyph-0-0">
<path d="M 0.234375 -6.78125 L 0.234375 -6.3125 L 0.96875 -6.3125 C 1.09375 -6.3125 1.109375 -6.265625 1.140625 -6.1875 L 1.234375 -5.921875 C 1.984375 -4.078125 2.671875 -2.21875 3.390625 -0.34375 C 3.46875 -0.140625 3.5 0.0625 3.8125 0.0625 C 4.09375 0.0625 4.15625 -0.171875 4.25 -0.46875 L 4.609375 -1.375 C 5.015625 -2.453125 5.421875 -3.546875 5.859375 -4.625 C 6.15625 -3.984375 6.375 -3.265625 6.640625 -2.609375 C 6.796875 -2.1875 6.96875 -1.78125 7.125 -1.375 L 7.46875 -0.453125 C 7.578125 -0.21875 7.609375 0.0625 7.921875 0.0625 C 8.21875 0.0625 8.25 -0.140625 8.34375 -0.34375 C 8.9375 -1.859375 9.515625 -3.375 10.109375 -4.890625 L 10.453125 -5.8125 C 10.5625 -6.109375 10.578125 -6.25 10.875 -6.296875 C 11.078125 -6.3125 11.28125 -6.3125 11.5 -6.3125 L 11.5 -6.78125 L 9.09375 -6.78125 L 9.09375 -6.3125 C 9.4375 -6.3125 10.078125 -6.3125 10.078125 -6.1875 C 10.078125 -6.109375 10.015625 -6 10 -5.921875 L 9.671875 -5.078125 C 9.296875 -4.140625 8.96875 -3.1875 8.578125 -2.25 C 8.515625 -2.109375 8.453125 -1.96875 8.40625 -1.8125 L 8.390625 -1.8125 L 6.65625 -6.3125 L 7.609375 -6.3125 L 7.609375 -6.78125 L 4.359375 -6.78125 L 4.359375 -6.3125 L 5.078125 -6.3125 C 5.234375 -6.3125 5.265625 -6.1875 5.3125 -6.0625 C 5.40625 -5.8125 5.59375 -5.4375 5.59375 -5.265625 L 5.59375 -5.234375 C 5.515625 -4.921875 5.359375 -4.625 5.25 -4.328125 C 5.015625 -3.734375 4.796875 -3.140625 4.5625 -2.53125 L 4.390625 -2.09375 C 4.359375 -2 4.3125 -1.921875 4.28125 -1.8125 L 4.265625 -1.8125 L 2.53125 -6.3125 L 3.46875 -6.3125 L 3.46875 -6.78125 Z M 0.234375 -6.78125 "/>
</g>
<g id="glyph-0-1">
<path d="M 1.71875 -4.0625 C 1.953125 -4.125 2.21875 -4.125 2.453125 -4.125 C 3.015625 -4.125 3.53125 -3.84375 3.53125 -2.859375 L 3.53125 -2.625 C 2.71875 -2.625 1.78125 -2.53125 1.09375 -2.15625 C 0.671875 -1.953125 0.3125 -1.5625 0.3125 -1.09375 C 0.3125 -0.125 1.546875 0.046875 2.21875 0.046875 C 2.75 0.046875 3.5 -0.1875 3.6875 -0.78125 C 3.71875 -0.640625 3.6875 -0.515625 3.765625 -0.375 C 3.9375 -0.015625 4.46875 -0.015625 4.859375 -0.015625 L 5.265625 -0.015625 C 5.40625 -0.015625 5.515625 -0.0625 5.515625 -0.25 C 5.515625 -0.6875 4.71875 -0.328125 4.65625 -0.703125 L 4.65625 -2.890625 C 4.65625 -4.0625 3.609375 -4.484375 2.671875 -4.484375 L 2.421875 -4.484375 C 1.75 -4.484375 0.703125 -4.4375 0.703125 -3.59375 C 0.703125 -3.25 0.921875 -2.953125 1.359375 -2.953125 C 1.734375 -3 1.9375 -3.265625 1.9375 -3.578125 C 1.9375 -3.765625 1.859375 -3.921875 1.71875 -4.0625 Z M 3.53125 -2.328125 L 3.53125 -1.40625 C 3.53125 -0.734375 3.015625 -0.3125 2.390625 -0.3125 C 1.96875 -0.3125 1.46875 -0.578125 1.46875 -1.09375 C 1.46875 -1.921875 2.5 -2.21875 3.171875 -2.296875 C 3.28125 -2.296875 3.421875 -2.296875 3.53125 -2.328125 Z M 3.53125 -2.328125 "/>
</g>
<g id="glyph-0-2">
<path d="M 0.4375 -6.78125 L 0.4375 -6.3125 L 0.65625 -6.3125 C 0.90625 -6.3125 1.125 -6.296875 1.125 -5.96875 L 1.125 -0.46875 L 0.4375 -0.46875 L 0.4375 -0.015625 L 2.9375 -0.015625 L 2.9375 -0.46875 L 2.25 -0.46875 L 2.25 -2.6875 C 2.328125 -3.4375 2.921875 -4.09375 3.71875 -4.09375 C 4.15625 -4.09375 4.265625 -3.640625 4.265625 -3.125 L 4.265625 -0.46875 L 3.578125 -0.46875 L 3.578125 -0.015625 L 6.078125 -0.015625 L 6.078125 -0.46875 L 5.390625 -0.46875 L 5.390625 -2.96875 C 5.390625 -3.265625 5.375 -3.578125 5.21875 -3.859375 C 4.9375 -4.359375 4.359375 -4.453125 3.84375 -4.453125 C 3.1875 -4.453125 2.5 -4.09375 2.203125 -3.484375 L 2.1875 -6.859375 L 0.8125 -6.859375 Z M 0.4375 -6.78125 "/>
</g>
<g id="glyph-0-3">
<path d="M 0.359375 -4.375 L 0.359375 -3.90625 L 0.546875 -3.90625 C 0.8125 -3.90625 1.03125 -3.875 1.03125 -3.578125 L 1.03125 -0.46875 L 0.359375 -0.46875 L 0.359375 -0.015625 L 2.96875 -0.015625 L 2.96875 -0.46875 L 2.109375 -0.46875 L 2.109375 -1.84375 C 2.109375 -2.6875 2.1875 -4.09375 3.34375 -4.09375 C 3.21875 -3.96875 3.15625 -3.796875 3.15625 -3.640625 C 3.15625 -3.296875 3.421875 -3.046875 3.75 -3.046875 C 4.09375 -3.046875 4.359375 -3.3125 4.359375 -3.640625 C 4.359375 -4.1875 3.796875 -4.453125 3.3125 -4.453125 C 2.71875 -4.453125 2.140625 -3.984375 2 -3.34375 L 2 -4.453125 L 0.90625 -4.40625 Z M 0.359375 -4.375 "/>
</g>
<g id="glyph-0-4">
<path d="M 1.46875 -1.546875 C 1.0625 -1.515625 0.796875 -1.125 0.796875 -0.765625 C 0.796875 -0.421875 1.09375 -0.015625 1.5625 -0.015625 C 2.03125 -0.015625 2.34375 -0.390625 2.34375 -0.796875 C 2.34375 -1.140625 2.046875 -1.546875 1.578125 -1.546875 C 1.546875 -1.546875 1.5 -1.546875 1.46875 -1.546875 Z M 1.46875 -1.546875 "/>
</g>
<g id="glyph-1-0">
<path d="M 0.328125 -6.71875 L 0.328125 -6.421875 C 0.453125 -6.421875 0.578125 -6.421875 0.703125 -6.421875 C 1.0625 -6.421875 1.34375 -6.375 1.34375 -5.984375 L 1.34375 -0.734375 C 1.34375 -0.359375 1.015625 -0.3125 0.6875 -0.3125 C 0.546875 -0.3125 0.4375 -0.3125 0.328125 -0.3125 L 0.328125 -0.015625 L 3.484375 -0.015625 L 3.484375 -0.3125 C 3.34375 -0.3125 3.1875 -0.3125 3.015625 -0.3125 C 2.515625 -0.3125 2.21875 -0.34375 2.21875 -0.796875 L 2.21875 -3.21875 L 3.046875 -3.21875 C 3.390625 -3.21875 3.796875 -3.203125 3.984375 -2.90625 C 4.125 -2.703125 4.125 -2.421875 4.125 -2.15625 L 4.125 -2.0625 L 4.375 -2.0625 L 4.375 -4.6875 L 4.125 -4.6875 L 4.125 -4.578125 C 4.125 -4.0625 4.03125 -3.625 3.421875 -3.546875 C 3.25 -3.53125 3.0625 -3.53125 2.890625 -3.53125 L 2.21875 -3.53125 L 2.21875 -6.0625 C 2.21875 -6.40625 2.421875 -6.421875 2.625 -6.421875 L 3.78125 -6.421875 C 4.296875 -6.421875 4.921875 -6.40625 5.296875 -6.015625 C 5.671875 -5.625 5.703125 -5.015625 5.78125 -4.5 L 6.03125 -4.5 L 5.75 -6.71875 Z M 0.328125 -6.71875 "/>
</g>
<g id="glyph-1-1">
<path d="M 0.3125 -4.25 L 0.3125 -3.953125 L 0.453125 -3.953125 C 0.734375 -3.953125 1.015625 -3.9375 1.078125 -3.640625 C 1.09375 -3.53125 1.09375 -3.421875 1.09375 -3.3125 L 1.09375 -1.359375 C 1.09375 -1.03125 1.09375 -0.71875 1.28125 -0.4375 C 1.546875 -0.015625 2.109375 0.109375 2.5625 0.109375 C 3.015625 0.109375 3.421875 -0.09375 3.65625 -0.453125 C 3.734375 -0.546875 3.796875 -0.65625 3.828125 -0.765625 L 3.84375 0.09375 L 5.265625 -0.015625 L 5.265625 -0.3125 L 5.125 -0.3125 C 4.796875 -0.3125 4.5 -0.34375 4.5 -0.796875 L 4.5 -4.359375 L 3.046875 -4.25 L 3.046875 -3.953125 L 3.1875 -3.953125 C 3.515625 -3.953125 3.8125 -3.921875 3.8125 -3.453125 L 3.8125 -1.671875 C 3.8125 -0.9375 3.4375 -0.125 2.609375 -0.125 C 2.0625 -0.125 1.78125 -0.265625 1.78125 -1.3125 L 1.78125 -4.359375 Z M 1.765625 -6.5 C 1.484375 -6.5 1.3125 -6.203125 1.3125 -6 C 1.3125 -5.703125 1.546875 -5.46875 1.84375 -5.46875 L 1.90625 -5.46875 C 2.15625 -5.515625 2.359375 -5.75 2.359375 -5.984375 C 2.359375 -6.265625 2.140625 -6.515625 1.84375 -6.515625 C 1.8125 -6.515625 1.796875 -6.5 1.765625 -6.5 Z M 3.671875 -6.5 C 3.421875 -6.46875 3.234375 -6.25 3.234375 -6 C 3.234375 -5.703125 3.46875 -5.46875 3.75 -5.46875 C 4.03125 -5.46875 4.28125 -5.703125 4.28125 -6 C 4.28125 -6.265625 4.03125 -6.515625 3.75 -6.515625 C 3.71875 -6.515625 3.703125 -6.5 3.671875 -6.5 Z M 3.671875 -6.5 "/>
</g>
<g id="glyph-1-2">
<path d="M 0.265625 -4.25 L 0.265625 -3.953125 L 0.421875 -3.953125 C 0.734375 -3.953125 1.03125 -3.921875 1.03125 -3.453125 L 1.03125 -0.734375 C 1.03125 -0.328125 0.765625 -0.3125 0.328125 -0.3125 L 0.265625 -0.3125 L 0.265625 -0.015625 L 2.65625 -0.015625 L 2.65625 -0.3125 C 2.53125 -0.3125 2.40625 -0.3125 2.28125 -0.3125 C 1.96875 -0.3125 1.703125 -0.359375 1.703125 -0.71875 L 1.703125 -2.03125 C 1.703125 -2.875 1.890625 -4.140625 2.859375 -4.140625 C 2.90625 -4.140625 2.9375 -4.140625 2.96875 -4.140625 L 2.96875 -4.125 C 2.828125 -4.0625 2.75 -3.90625 2.75 -3.75 C 2.75 -3.53125 2.890625 -3.375 3.125 -3.328125 C 3.40625 -3.328125 3.59375 -3.5 3.59375 -3.75 C 3.59375 -4.140625 3.21875 -4.359375 2.859375 -4.359375 C 2.28125 -4.359375 1.75 -3.84375 1.65625 -3.3125 L 1.65625 -4.359375 Z M 0.265625 -4.25 "/>
</g>
<g id="glyph-1-3">
<path d="M 1.171875 -0.234375 L 1.171875 -0.21875 C 0.71875 -0.125 0.28125 0.3125 0.28125 0.78125 C 0.28125 1.703125 1.703125 2.03125 2.453125 2.03125 C 3.28125 2.03125 4.65625 1.734375 4.65625 0.71875 C 4.65625 0.0625 4.203125 -0.375 3.609375 -0.546875 C 3.25 -0.65625 2.890625 -0.65625 2.515625 -0.65625 L 1.609375 -0.65625 C 1.296875 -0.6875 1.046875 -1 1.046875 -1.328125 L 1.046875 -1.375 C 1.0625 -1.5 1.125 -1.75 1.21875 -1.75 C 1.359375 -1.734375 1.484375 -1.625 1.640625 -1.5625 C 1.8125 -1.515625 2.015625 -1.484375 2.203125 -1.484375 C 3.015625 -1.484375 3.796875 -2.078125 3.796875 -2.921875 C 3.796875 -3.265625 3.65625 -3.65625 3.390625 -3.875 C 3.65625 -4.078125 3.921875 -4.25 4.28125 -4.25 C 4.3125 -4.25 4.328125 -4.25 4.359375 -4.25 C 4.28125 -4.1875 4.21875 -4.125 4.21875 -3.984375 C 4.21875 -3.828125 4.34375 -3.6875 4.5 -3.6875 C 4.671875 -3.6875 4.796875 -3.828125 4.796875 -3.984375 C 4.796875 -4.25 4.578125 -4.46875 4.296875 -4.46875 C 3.953125 -4.46875 3.609375 -4.328125 3.359375 -4.125 C 3.328125 -4.09375 3.28125 -4.046875 3.25 -4.03125 L 3.234375 -4.03125 C 3.1875 -4.03125 3.09375 -4.125 3.046875 -4.140625 C 2.796875 -4.28125 2.5 -4.359375 2.203125 -4.359375 C 1.421875 -4.359375 0.578125 -3.828125 0.578125 -2.921875 C 0.578125 -2.59375 0.71875 -2.296875 0.90625 -2.046875 C 0.953125 -2 1.015625 -1.953125 1.015625 -1.90625 C 1.015625 -1.859375 0.953125 -1.8125 0.9375 -1.765625 C 0.8125 -1.5625 0.734375 -1.328125 0.734375 -1.09375 C 0.734375 -0.78125 0.875 -0.375 1.171875 -0.234375 Z M 0.796875 0.828125 L 0.796875 0.75 C 0.796875 0.234375 1.25 -0.078125 1.78125 -0.078125 L 2.5625 -0.078125 C 3.1875 -0.078125 4.125 0.015625 4.125 0.765625 C 4.125 1.484375 3.078125 1.796875 2.453125 1.796875 C 1.8125 1.796875 0.90625 1.5 0.796875 0.828125 Z M 1.328125 -2.71875 L 1.328125 -2.859375 C 1.328125 -3.390625 1.46875 -4.125 2.1875 -4.125 C 2.796875 -4.125 3.046875 -3.5625 3.046875 -2.921875 C 3.046875 -2.515625 2.96875 -1.71875 2.203125 -1.71875 C 1.953125 -1.71875 1.703125 -1.84375 1.53125 -2.046875 C 1.375 -2.25 1.359375 -2.484375 1.328125 -2.71875 Z M 1.328125 -2.71875 "/>
</g>
<g id="glyph-1-4">
<path d="M 0.359375 -4.25 L 0.359375 -3.953125 L 0.546875 -3.953125 C 0.84375 -3.953125 1.09375 -3.90625 1.09375 -3.453125 L 1.09375 -0.71875 C 1.09375 -0.375 0.921875 -0.3125 0.328125 -0.3125 L 0.328125 -0.015625 L 2.453125 -0.015625 L 2.453125 -0.3125 L 2.25 -0.3125 C 2 -0.3125 1.75 -0.34375 1.75 -0.65625 L 1.75 -4.359375 Z M 1.1875 -6.609375 C 0.953125 -6.578125 0.75 -6.359375 0.75 -6.09375 C 0.75 -5.8125 1 -5.5625 1.28125 -5.5625 C 1.546875 -5.5625 1.796875 -5.78125 1.796875 -6.09375 C 1.796875 -6.375 1.546875 -6.609375 1.28125 -6.609375 C 1.25 -6.609375 1.21875 -6.609375 1.1875 -6.609375 Z M 1.1875 -6.609375 "/>
</g>
<g id="glyph-1-5">
<path d="M 0.328125 -6.75 L 0.328125 -6.453125 L 0.46875 -6.453125 C 0.84375 -6.453125 1.09375 -6.40625 1.09375 -5.9375 L 1.09375 -0.953125 C 1.09375 -0.875 1.109375 -0.8125 1.109375 -0.734375 C 1.109375 -0.359375 0.84375 -0.3125 0.5625 -0.3125 L 0.328125 -0.3125 L 0.328125 -0.015625 L 2.53125 -0.015625 L 2.53125 -0.3125 L 2.28125 -0.3125 C 2 -0.3125 1.75 -0.359375 1.75 -0.734375 L 1.75 -6.859375 Z M 0.328125 -6.75 "/>
</g>
<g id="glyph-1-6">
<path d="M 1.46875 -6.078125 C 1.46875 -5.40625 1.1875 -4.171875 0.171875 -4.171875 L 0.171875 -3.953125 L 1.03125 -3.953125 L 1.03125 -1.40625 C 1.03125 -1.078125 1.046875 -0.75 1.203125 -0.46875 C 1.421875 -0.0625 1.890625 0.09375 2.328125 0.09375 C 3.125 0.09375 3.28125 -0.8125 3.28125 -1.4375 L 3.28125 -1.796875 L 3.046875 -1.796875 C 3.046875 -1.65625 3.046875 -1.5 3.046875 -1.34375 C 3.046875 -0.90625 2.953125 -0.140625 2.375 -0.140625 C 1.8125 -0.140625 1.71875 -0.828125 1.71875 -1.28125 L 1.71875 -3.953125 L 3.125 -3.953125 L 3.125 -4.25 L 1.71875 -4.25 L 1.71875 -6.078125 Z M 1.46875 -6.078125 "/>
</g>
<g id="glyph-2-0">
<path d="M 3.296875 -2.984375 C 3.359375 -3.234375 3.578125 -4.140625 4.28125 -4.140625 C 4.328125 -4.140625 4.5625 -4.140625 4.765625 -4.015625 C 4.5 -3.96875 4.296875 -3.71875 4.296875 -3.484375 C 4.296875 -3.328125 4.40625 -3.140625 4.671875 -3.140625 C 4.890625 -3.140625 5.203125 -3.3125 5.203125 -3.71875 C 5.203125 -4.21875 4.625 -4.359375 4.28125 -4.359375 C 3.71875 -4.359375 3.375 -3.84375 3.25 -3.609375 C 3 -4.265625 2.46875 -4.359375 2.1875 -4.359375 C 1.15625 -4.359375 0.59375 -3.09375 0.59375 -2.84375 C 0.59375 -2.75 0.6875 -2.75 0.71875 -2.75 C 0.796875 -2.75 0.8125 -2.765625 0.84375 -2.859375 C 1.171875 -3.90625 1.828125 -4.140625 2.15625 -4.140625 C 2.34375 -4.140625 2.703125 -4.0625 2.703125 -3.484375 C 2.703125 -3.1875 2.53125 -2.515625 2.15625 -1.140625 C 2 -0.515625 1.65625 -0.109375 1.21875 -0.109375 C 1.171875 -0.109375 0.9375 -0.109375 0.734375 -0.234375 C 0.984375 -0.28125 1.1875 -0.5 1.1875 -0.765625 C 1.1875 -1.03125 0.984375 -1.109375 0.828125 -1.109375 C 0.53125 -1.109375 0.28125 -0.859375 0.28125 -0.546875 C 0.28125 -0.09375 0.78125 0.109375 1.21875 0.109375 C 1.859375 0.109375 2.21875 -0.578125 2.25 -0.640625 C 2.375 -0.28125 2.71875 0.109375 3.3125 0.109375 C 4.328125 0.109375 4.890625 -1.171875 4.890625 -1.40625 C 4.890625 -1.515625 4.8125 -1.515625 4.78125 -1.515625 C 4.6875 -1.515625 4.671875 -1.46875 4.65625 -1.40625 C 4.328125 -0.34375 3.65625 -0.109375 3.34375 -0.109375 C 2.953125 -0.109375 2.796875 -0.421875 2.796875 -0.765625 C 2.796875 -0.984375 2.859375 -1.1875 2.96875 -1.625 Z M 3.296875 -2.984375 "/>
</g>
<g id="glyph-2-1">
<path d="M 2 -0.015625 C 2 -0.65625 1.75 -1.046875 1.375 -1.046875 C 1.046875 -1.046875 0.84375 -0.796875 0.84375 -0.515625 C 0.84375 -0.25 1.046875 0 1.375 0 C 1.484375 0 1.625 -0.046875 1.71875 -0.125 C 1.75 -0.140625 1.75 -0.15625 1.765625 -0.15625 C 1.78125 -0.15625 1.78125 -0.140625 1.78125 -0.015625 C 1.78125 0.71875 1.4375 1.3125 1.109375 1.640625 C 1 1.75 1 1.765625 1 1.796875 C 1 1.859375 1.0625 1.90625 1.109375 1.90625 C 1.21875 1.90625 2 1.140625 2 -0.015625 Z M 2 -0.015625 "/>
</g>
<g id="glyph-2-2">
<path d="M 1.890625 -0.515625 C 1.890625 -0.8125 1.65625 -1.046875 1.375 -1.046875 C 1.09375 -1.046875 0.84375 -0.8125 0.84375 -0.515625 C 0.84375 -0.234375 1.09375 0 1.375 0 C 1.65625 0 1.890625 -0.234375 1.890625 -0.515625 Z M 1.890625 -0.515625 "/>
</g>
<g id="glyph-3-0">
<path d="M 6.78125 -3.234375 C 6.9375 -3.234375 7.125 -3.234375 7.125 -3.421875 C 7.125 -3.625 6.9375 -3.625 6.796875 -3.625 L 0.875 -3.625 C 0.734375 -3.625 0.546875 -3.625 0.546875 -3.421875 C 0.546875 -3.234375 0.734375 -3.234375 0.890625 -3.234375 Z M 6.796875 -1.3125 C 6.9375 -1.3125 7.125 -1.3125 7.125 -1.515625 C 7.125 -1.703125 6.9375 -1.703125 6.78125 -1.703125 L 0.890625 -1.703125 C 0.734375 -1.703125 0.546875 -1.703125 0.546875 -1.515625 C 0.546875 -1.3125 0.734375 -1.3125 0.875 -1.3125 Z M 6.796875 -1.3125 "/>
</g>
<g id="glyph-3-1">
<path d="M 3.265625 2.375 C 3.265625 2.34375 3.265625 2.328125 3.09375 2.15625 C 1.859375 0.90625 1.546875 -0.953125 1.546875 -2.46875 C 1.546875 -4.1875 1.921875 -5.90625 3.140625 -7.140625 C 3.265625 -7.265625 3.265625 -7.28125 3.265625 -7.3125 C 3.265625 -7.375 3.234375 -7.40625 3.171875 -7.40625 C 3.078125 -7.40625 2.1875 -6.734375 1.59375 -5.484375 C 1.09375 -4.390625 0.984375 -3.296875 0.984375 -2.46875 C 0.984375 -1.703125 1.09375 -0.5 1.625 0.609375 C 2.21875 1.828125 3.078125 2.46875 3.171875 2.46875 C 3.234375 2.46875 3.265625 2.4375 3.265625 2.375 Z M 3.265625 2.375 "/>
</g>
<g id="glyph-3-2">
<path d="M 2.859375 -2.46875 C 2.859375 -3.234375 2.75 -4.4375 2.203125 -5.546875 C 1.609375 -6.765625 0.765625 -7.40625 0.65625 -7.40625 C 0.609375 -7.40625 0.5625 -7.359375 0.5625 -7.3125 C 0.5625 -7.28125 0.5625 -7.265625 0.75 -7.078125 C 1.71875 -6.109375 2.28125 -4.53125 2.28125 -2.46875 C 2.28125 -0.78125 1.921875 0.953125 0.6875 2.203125 C 0.5625 2.328125 0.5625 2.34375 0.5625 2.375 C 0.5625 2.421875 0.609375 2.46875 0.65625 2.46875 C 0.765625 2.46875 1.65625 1.796875 2.234375 0.546875 C 2.734375 -0.546875 2.859375 -1.640625 2.859375 -2.46875 Z M 2.859375 -2.46875 "/>
</g>
<g id="glyph-3-3">
<path d="M 1.09375 -3.390625 L 1.09375 -0.75 C 1.09375 -0.3125 0.984375 -0.3125 0.3125 -0.3125 L 0.3125 0 C 0.65625 -0.015625 1.171875 -0.03125 1.4375 -0.03125 C 1.6875 -0.03125 2.203125 -0.015625 2.53125 0 L 2.53125 -0.3125 C 1.875 -0.3125 1.765625 -0.3125 1.765625 -0.75 L 1.765625 -2.5625 C 1.765625 -3.59375 2.46875 -4.140625 3.09375 -4.140625 C 3.71875 -4.140625 3.828125 -3.609375 3.828125 -3.046875 L 3.828125 -0.75 C 3.828125 -0.3125 3.71875 -0.3125 3.0625 -0.3125 L 3.0625 0 C 3.40625 -0.015625 3.90625 -0.03125 4.171875 -0.03125 C 4.4375 -0.03125 4.953125 -0.015625 5.28125 0 L 5.28125 -0.3125 C 4.625 -0.3125 4.515625 -0.3125 4.515625 -0.75 L 4.515625 -2.5625 C 4.515625 -3.59375 5.21875 -4.140625 5.84375 -4.140625 C 6.46875 -4.140625 6.578125 -3.609375 6.578125 -3.046875 L 6.578125 -0.75 C 6.578125 -0.3125 6.46875 -0.3125 5.8125 -0.3125 L 5.8125 0 C 6.15625 -0.015625 6.65625 -0.03125 6.921875 -0.03125 C 7.171875 -0.03125 7.6875 -0.015625 8.03125 0 L 8.03125 -0.3125 C 7.515625 -0.3125 7.265625 -0.3125 7.265625 -0.609375 L 7.265625 -2.484375 C 7.265625 -3.34375 7.265625 -3.640625 6.953125 -4 C 6.8125 -4.171875 6.484375 -4.359375 5.921875 -4.359375 C 5.078125 -4.359375 4.65625 -3.765625 4.484375 -3.390625 C 4.34375 -4.25 3.609375 -4.359375 3.171875 -4.359375 C 2.453125 -4.359375 1.984375 -3.9375 1.703125 -3.328125 L 1.703125 -4.359375 L 0.3125 -4.25 L 0.3125 -3.953125 C 1 -3.953125 1.09375 -3.875 1.09375 -3.390625 Z M 1.09375 -3.390625 "/>
</g>
<g id="glyph-3-4">
<path d="M 3.28125 -0.75 C 3.328125 -0.359375 3.59375 0.0625 4.0625 0.0625 C 4.265625 0.0625 4.875 -0.078125 4.875 -0.875 L 4.875 -1.4375 L 4.625 -1.4375 L 4.625 -0.875 C 4.625 -0.3125 4.375 -0.25 4.265625 -0.25 C 3.9375 -0.25 3.90625 -0.6875 3.90625 -0.734375 L 3.90625 -2.71875 C 3.90625 -3.125 3.90625 -3.515625 3.546875 -3.875 C 3.15625 -4.265625 2.671875 -4.421875 2.1875 -4.421875 C 1.375 -4.421875 0.703125 -3.953125 0.703125 -3.3125 C 0.703125 -3.015625 0.90625 -2.84375 1.15625 -2.84375 C 1.4375 -2.84375 1.609375 -3.046875 1.609375 -3.296875 C 1.609375 -3.421875 1.5625 -3.75 1.109375 -3.75 C 1.375 -4.09375 1.859375 -4.203125 2.171875 -4.203125 C 2.65625 -4.203125 3.21875 -3.828125 3.21875 -2.9375 L 3.21875 -2.578125 C 2.71875 -2.546875 2.03125 -2.515625 1.40625 -2.21875 C 0.65625 -1.890625 0.421875 -1.375 0.421875 -0.9375 C 0.421875 -0.140625 1.375 0.109375 2 0.109375 C 2.640625 0.109375 3.09375 -0.28125 3.28125 -0.75 Z M 3.21875 -2.375 L 3.21875 -1.375 C 3.21875 -0.4375 2.515625 -0.109375 2.0625 -0.109375 C 1.578125 -0.109375 1.171875 -0.453125 1.171875 -0.953125 C 1.171875 -1.484375 1.59375 -2.3125 3.21875 -2.375 Z M 3.21875 -2.375 "/>
</g>
<g id="glyph-3-5">
<path d="M 2.828125 -2.328125 C 3.125 -2.703125 3.5 -3.1875 3.75 -3.4375 C 4.046875 -3.796875 4.453125 -3.9375 4.921875 -3.953125 L 4.921875 -4.25 C 4.65625 -4.234375 4.359375 -4.21875 4.109375 -4.21875 C 3.8125 -4.21875 3.28125 -4.25 3.15625 -4.25 L 3.15625 -3.953125 C 3.375 -3.9375 3.453125 -3.796875 3.453125 -3.640625 C 3.453125 -3.484375 3.34375 -3.359375 3.296875 -3.296875 L 2.6875 -2.53125 L 1.921875 -3.53125 C 1.828125 -3.625 1.828125 -3.640625 1.828125 -3.703125 C 1.828125 -3.84375 1.96875 -3.9375 2.171875 -3.953125 L 2.171875 -4.25 C 1.921875 -4.25 1.265625 -4.21875 1.109375 -4.21875 C 0.90625 -4.21875 0.4375 -4.234375 0.171875 -4.25 L 0.171875 -3.953125 C 0.859375 -3.953125 0.875 -3.9375 1.328125 -3.34375 L 2.3125 -2.078125 L 1.375 -0.90625 C 0.90625 -0.328125 0.328125 -0.3125 0.125 -0.3125 L 0.125 0 C 0.375 -0.015625 0.6875 -0.03125 0.9375 -0.03125 C 1.21875 -0.03125 1.640625 -0.015625 1.875 0 L 1.875 -0.3125 C 1.65625 -0.328125 1.59375 -0.46875 1.59375 -0.609375 C 1.59375 -0.828125 1.875 -1.15625 2.484375 -1.859375 L 3.234375 -0.875 C 3.3125 -0.765625 3.4375 -0.609375 3.4375 -0.546875 C 3.4375 -0.46875 3.34375 -0.3125 3.078125 -0.3125 L 3.078125 0 C 3.375 -0.015625 3.9375 -0.03125 4.140625 -0.03125 C 4.421875 -0.03125 4.796875 -0.015625 5.09375 0 L 5.09375 -0.3125 C 4.5625 -0.3125 4.390625 -0.328125 4.15625 -0.609375 Z M 2.828125 -2.328125 "/>
</g>
<g id="glyph-4-0">
<path d="M 2.3125 -4.40625 C 2.3125 -4.59375 2.3125 -4.59375 2.109375 -4.59375 C 1.671875 -4.15625 1.03125 -4.15625 0.75 -4.15625 L 0.75 -3.90625 C 0.921875 -3.90625 1.375 -3.90625 1.765625 -4.09375 L 1.765625 -0.5625 C 1.765625 -0.34375 1.765625 -0.25 1.0625 -0.25 L 0.796875 -0.25 L 0.796875 0 C 0.921875 0 1.78125 -0.03125 2.03125 -0.03125 C 2.25 -0.03125 3.125 0 3.28125 0 L 3.28125 -0.25 L 3.015625 -0.25 C 2.3125 -0.25 2.3125 -0.34375 2.3125 -0.5625 Z M 2.3125 -4.40625 "/>
</g>
<g id="glyph-4-1">
<path d="M 5.3125 -2.328125 C 5.421875 -2.328125 5.578125 -2.328125 5.578125 -2.5 C 5.578125 -2.671875 5.40625 -2.671875 5.328125 -2.671875 L 0.734375 -2.671875 C 0.65625 -2.671875 0.484375 -2.671875 0.484375 -2.5 C 0.484375 -2.328125 0.640625 -2.328125 0.75 -2.328125 Z M 5.328125 -0.796875 C 5.40625 -0.796875 5.578125 -0.796875 5.578125 -0.96875 C 5.578125 -1.140625 5.421875 -1.140625 5.3125 -1.140625 L 0.75 -1.140625 C 0.640625 -1.140625 0.484375 -1.140625 0.484375 -0.96875 C 0.484375 -0.796875 0.65625 -0.796875 0.734375 -0.796875 Z M 5.328125 -0.796875 "/>
</g>
<g id="glyph-4-2">
<path d="M 3.5 -1.265625 L 3.265625 -1.265625 C 3.234375 -1.109375 3.171875 -0.703125 3.078125 -0.625 C 3.03125 -0.59375 2.484375 -0.59375 2.390625 -0.59375 L 1.125 -0.59375 C 1.84375 -1.234375 2.09375 -1.421875 2.5 -1.75 C 3.015625 -2.15625 3.5 -2.59375 3.5 -3.25 C 3.5 -4.078125 2.765625 -4.59375 1.875 -4.59375 C 1.015625 -4.59375 0.4375 -4 0.4375 -3.359375 C 0.4375 -3 0.734375 -2.96875 0.796875 -2.96875 C 0.96875 -2.96875 1.171875 -3.09375 1.171875 -3.34375 C 1.171875 -3.453125 1.125 -3.703125 0.765625 -3.703125 C 0.96875 -4.1875 1.453125 -4.34375 1.765625 -4.34375 C 2.46875 -4.34375 2.828125 -3.8125 2.828125 -3.25 C 2.828125 -2.640625 2.390625 -2.171875 2.171875 -1.921875 L 0.5 -0.265625 C 0.4375 -0.203125 0.4375 -0.1875 0.4375 0 L 3.28125 0 Z M 3.5 -1.265625 "/>
</g>
<g id="glyph-5-0">
<path d="M 0.84375 -0.4375 C 0.8125 -0.34375 0.78125 -0.171875 0.78125 -0.15625 C 0.78125 0 0.90625 0.0625 1.015625 0.0625 C 1.140625 0.0625 1.25 -0.015625 1.28125 -0.078125 C 1.3125 -0.140625 1.375 -0.359375 1.40625 -0.515625 C 1.4375 -0.640625 1.515625 -0.96875 1.5625 -1.140625 C 1.59375 -1.28125 1.640625 -1.4375 1.671875 -1.59375 C 1.75 -1.875 1.765625 -1.9375 1.96875 -2.21875 C 2.15625 -2.5 2.484375 -2.859375 3 -2.859375 C 3.40625 -2.859375 3.40625 -2.5 3.40625 -2.375 C 3.40625 -1.953125 3.109375 -1.1875 3 -0.90625 C 2.921875 -0.703125 2.90625 -0.640625 2.90625 -0.53125 C 2.90625 -0.15625 3.203125 0.0625 3.5625 0.0625 C 4.25 0.0625 4.546875 -0.890625 4.546875 -0.984375 C 4.546875 -1.078125 4.46875 -1.078125 4.4375 -1.078125 C 4.34375 -1.078125 4.34375 -1.03125 4.3125 -0.96875 C 4.15625 -0.40625 3.859375 -0.125 3.578125 -0.125 C 3.4375 -0.125 3.40625 -0.21875 3.40625 -0.359375 C 3.40625 -0.53125 3.4375 -0.609375 3.5625 -0.921875 C 3.640625 -1.140625 3.9375 -1.875 3.9375 -2.265625 C 3.9375 -2.9375 3.40625 -3.046875 3.03125 -3.046875 C 2.453125 -3.046875 2.0625 -2.703125 1.859375 -2.421875 C 1.8125 -2.90625 1.40625 -3.046875 1.125 -3.046875 C 0.828125 -3.046875 0.671875 -2.84375 0.578125 -2.671875 C 0.421875 -2.421875 0.328125 -2.03125 0.328125 -2 C 0.328125 -1.90625 0.421875 -1.90625 0.4375 -1.90625 C 0.546875 -1.90625 0.546875 -1.921875 0.59375 -2.109375 C 0.703125 -2.515625 0.828125 -2.859375 1.09375 -2.859375 C 1.28125 -2.859375 1.328125 -2.703125 1.328125 -2.515625 C 1.328125 -2.390625 1.265625 -2.125 1.21875 -1.9375 C 1.171875 -1.765625 1.09375 -1.46875 1.0625 -1.328125 Z M 0.84375 -0.4375 "/>
</g>
<g id="glyph-5-1">
<path d="M 3.03125 -4.328125 C 3.03125 -4.4375 2.953125 -4.59375 2.765625 -4.59375 C 2.5625 -4.59375 2.375 -4.390625 2.375 -4.203125 C 2.375 -4.09375 2.453125 -3.953125 2.65625 -3.953125 C 2.84375 -3.953125 3.03125 -4.125 3.03125 -4.328125 Z M 1.578125 0.34375 C 1.453125 0.8125 1.09375 1.21875 0.671875 1.21875 C 0.59375 1.21875 0.5 1.203125 0.421875 1.171875 C 0.609375 1.09375 0.671875 0.921875 0.671875 0.828125 C 0.671875 0.65625 0.53125 0.5625 0.390625 0.5625 C 0.1875 0.5625 0 0.75 0 0.96875 C 0 1.234375 0.265625 1.40625 0.6875 1.40625 C 1.09375 1.40625 1.90625 1.15625 2.125 0.3125 L 2.75 -2.15625 C 2.765625 -2.234375 2.78125 -2.296875 2.78125 -2.40625 C 2.78125 -2.78125 2.453125 -3.046875 2.046875 -3.046875 C 1.28125 -3.046875 0.828125 -2.09375 0.828125 -2 C 0.828125 -1.90625 0.921875 -1.90625 0.953125 -1.90625 C 1.03125 -1.90625 1.03125 -1.921875 1.09375 -2.03125 C 1.265625 -2.421875 1.625 -2.859375 2.015625 -2.859375 C 2.1875 -2.859375 2.25 -2.734375 2.25 -2.515625 C 2.25 -2.4375 2.25 -2.34375 2.234375 -2.3125 Z M 1.578125 0.34375 "/>
</g>
<g id="glyph-5-2">
<path d="M 3.46875 -4.890625 C 3.515625 -4.984375 3.515625 -4.984375 3.515625 -5.015625 C 3.515625 -5.125 3.421875 -5.1875 3.34375 -5.1875 C 3.21875 -5.1875 3.1875 -5.109375 3.15625 -5.015625 L 0.578125 1.421875 C 0.53125 1.515625 0.53125 1.53125 0.53125 1.5625 C 0.53125 1.671875 0.625 1.734375 0.703125 1.734375 C 0.8125 1.734375 0.84375 1.640625 0.890625 1.5625 Z M 3.46875 -4.890625 "/>
</g>
<g id="glyph-6-0">
<path d="M 1.703125 -7.078125 C 1.703125 -7.234375 1.703125 -7.40625 1.5 -7.40625 C 1.296875 -7.40625 1.296875 -7.1875 1.296875 -7.046875 L 1.296875 2.109375 C 1.296875 2.265625 1.296875 2.46875 1.5 2.46875 C 1.703125 2.46875 1.703125 2.296875 1.703125 2.140625 Z M 3.625 -7.046875 C 3.625 -7.203125 3.625 -7.40625 3.421875 -7.40625 C 3.234375 -7.40625 3.234375 -7.234375 3.234375 -7.078125 L 3.234375 2.140625 C 3.234375 2.296875 3.234375 2.46875 3.421875 2.46875 C 3.625 2.46875 3.625 2.25 3.625 2.109375 Z M 3.625 -7.046875 "/>
</g>
<g id="glyph-6-1">
<path d="M 1.5625 -7.046875 C 1.5625 -7.234375 1.5625 -7.40625 1.375 -7.40625 C 1.171875 -7.40625 1.171875 -7.234375 1.171875 -7.046875 L 1.171875 2.109375 C 1.171875 2.296875 1.171875 2.46875 1.375 2.46875 C 1.5625 2.46875 1.5625 2.296875 1.5625 2.109375 Z M 1.5625 -7.046875 "/>
</g>
<g id="glyph-6-2">
<path d="M 6.671875 -5.859375 C 6.78125 -5.921875 6.859375 -5.96875 6.859375 -6.078125 C 6.859375 -6.1875 6.78125 -6.28125 6.65625 -6.28125 C 6.609375 -6.28125 6.515625 -6.234375 6.484375 -6.21875 L 1.015625 -3.640625 C 0.84375 -3.5625 0.8125 -3.5 0.8125 -3.421875 C 0.8125 -3.328125 0.875 -3.265625 1.015625 -3.203125 L 6.484375 -0.625 C 6.609375 -0.5625 6.625 -0.5625 6.65625 -0.5625 C 6.765625 -0.5625 6.859375 -0.65625 6.859375 -0.765625 C 6.859375 -0.84375 6.8125 -0.90625 6.640625 -0.984375 L 1.484375 -3.421875 Z M 6.5 1.359375 C 6.671875 1.359375 6.859375 1.359375 6.859375 1.15625 C 6.859375 0.953125 6.640625 0.953125 6.5 0.953125 L 1.171875 0.953125 C 1.03125 0.953125 0.8125 0.953125 0.8125 1.15625 C 0.8125 1.359375 1 1.359375 1.171875 1.359375 Z M 6.5 1.359375 "/>
</g>
<g id="glyph-7-0">
<path d="M 4 -1.890625 C 3.640625 -2.328125 3.515625 -2.4375 3.265625 -2.625 C 2.84375 -2.9375 2.390625 -3.046875 2.015625 -3.046875 C 1.15625 -3.046875 0.53125 -2.3125 0.53125 -1.484375 C 0.53125 -0.671875 1.125 0.0625 2 0.0625 C 2.953125 0.0625 3.625 -0.71875 3.875 -1.09375 C 4.25 -0.65625 4.359375 -0.546875 4.609375 -0.359375 C 5.03125 -0.046875 5.484375 0.0625 5.859375 0.0625 C 6.71875 0.0625 7.34375 -0.671875 7.34375 -1.5 C 7.34375 -2.3125 6.75 -3.046875 5.890625 -3.046875 C 4.921875 -3.046875 4.25 -2.265625 4 -1.890625 Z M 4.21875 -1.640625 C 4.5 -2.09375 5.09375 -2.796875 5.953125 -2.796875 C 6.65625 -2.796875 7.15625 -2.15625 7.15625 -1.5 C 7.15625 -0.828125 6.609375 -0.3125 5.96875 -0.3125 C 5.328125 -0.3125 4.890625 -0.84375 4.21875 -1.640625 Z M 3.65625 -1.34375 C 3.375 -0.890625 2.78125 -0.1875 1.9375 -0.1875 C 1.21875 -0.1875 0.734375 -0.828125 0.734375 -1.484375 C 0.734375 -2.15625 1.265625 -2.671875 1.90625 -2.671875 C 2.546875 -2.671875 2.984375 -2.140625 3.65625 -1.34375 Z M 3.65625 -1.34375 "/>
</g>
<g id="glyph-8-0">
<path d="M 5.078125 17.265625 C 5.109375 17.265625 5.1875 17.375 5.203125 17.375 L 5.421875 17.375 C 5.453125 17.375 5.53125 17.359375 5.53125 17.265625 C 5.53125 17.234375 5.515625 17.21875 5.484375 17.1875 C 5.140625 16.828125 4.609375 16.28125 3.984375 15.203125 C 2.921875 13.296875 2.53125 10.859375 2.53125 8.5 C 2.53125 4.109375 3.765625 1.53125 5.5 -0.21875 C 5.53125 -0.25 5.53125 -0.28125 5.53125 -0.296875 C 5.53125 -0.390625 5.453125 -0.390625 5.34375 -0.390625 C 5.21875 -0.390625 5.1875 -0.390625 5.109375 -0.3125 C 4.171875 0.5 3.109375 1.859375 2.421875 3.953125 C 2 5.25 1.78125 6.84375 1.78125 8.484375 C 1.78125 10.828125 2.203125 13.46875 3.75 15.765625 C 4.015625 16.140625 4.390625 16.546875 4.390625 16.5625 C 4.484375 16.671875 4.625 16.84375 4.703125 16.90625 Z M 5.078125 17.265625 "/>
</g>
<g id="glyph-8-1">
<path d="M 12.5 13.828125 L 13.703125 10.671875 L 13.453125 10.671875 C 13.0625 11.6875 12.015625 12.359375 10.875 12.65625 C 10.671875 12.703125 9.703125 12.96875 7.8125 12.96875 L 1.859375 12.96875 L 6.890625 7.078125 C 6.953125 6.984375 6.96875 6.96875 6.96875 6.90625 C 6.96875 6.890625 6.96875 6.859375 6.90625 6.765625 L 2.296875 0.46875 L 7.71875 0.46875 C 9.03125 0.46875 9.9375 0.609375 10.015625 0.625 C 10.5625 0.71875 11.421875 0.875 12.203125 1.375 C 12.4375 1.53125 13.109375 1.96875 13.453125 2.78125 L 13.703125 2.78125 L 12.5 0 L 0.828125 0 C 0.609375 0 0.59375 0.015625 0.5625 0.0625 C 0.546875 0.09375 0.546875 0.28125 0.546875 0.390625 L 5.78125 7.546875 L 0.65625 13.53125 C 0.5625 13.65625 0.5625 13.703125 0.5625 13.71875 C 0.5625 13.828125 0.65625 13.828125 0.828125 13.828125 Z M 12.5 13.828125 "/>
</g>
<g id="glyph-8-2">
<path d="M 4.109375 8.484375 C 4.109375 5.65625 3.453125 2.640625 1.5 0.421875 C 1.359375 0.25 1 -0.125 0.765625 -0.328125 C 0.6875 -0.390625 0.671875 -0.390625 0.546875 -0.390625 C 0.4375 -0.390625 0.359375 -0.390625 0.359375 -0.296875 C 0.359375 -0.25 0.390625 -0.21875 0.421875 -0.203125 C 0.75 0.140625 1.28125 0.6875 1.890625 1.78125 C 2.96875 3.671875 3.359375 6.109375 3.359375 8.484375 C 3.359375 12.765625 2.171875 15.390625 0.390625 17.1875 C 0.375 17.21875 0.359375 17.234375 0.359375 17.265625 C 0.359375 17.375 0.4375 17.375 0.546875 17.375 C 0.671875 17.375 0.6875 17.375 0.78125 17.296875 C 1.71875 16.484375 2.78125 15.109375 3.453125 13.03125 C 3.890625 11.671875 4.109375 10.078125 4.109375 8.484375 Z M 4.109375 8.484375 "/>
</g>
</g>
<clipPath id="clip-0">
<path clip-rule="nonzero" d="M 243 38 L 245.527344 38 L 245.527344 43 L 243 43 Z M 243 38 "/>
</clipPath>
<clipPath id="clip-1">
<path clip-rule="nonzero" d="M 243 46 L 245.527344 46 L 245.527344 50 L 243 50 Z M 243 46 "/>
</clipPath>
</defs>
<g fill="rgb(0%, 0%, 0%)" fill-opacity="1">
<use xlink:href="#glyph-0-0" x="10.74818" y="17.291161"/>
</g>
<g fill="rgb(0%, 0%, 0%)" fill-opacity="1">
<use xlink:href="#glyph-0-1" x="21.543515" y="17.291161"/>
<use xlink:href="#glyph-0-2" x="27.065675" y="17.291161"/>
<use xlink:href="#glyph-0-3" x="33.376292" y="17.291161"/>
<use xlink:href="#glyph-0-4" x="38.054665" y="17.291161"/>
</g>
<g fill="rgb(0%, 0%, 0%)" fill-opacity="1">
<use xlink:href="#glyph-1-0" x="44.500644" y="17.291161"/>
<use xlink:href="#glyph-1-1" x="50.948599" y="17.291161"/>
<use xlink:href="#glyph-1-2" x="56.436177" y="17.291161"/>
</g>
<g fill="rgb(0%, 0%, 0%)" fill-opacity="1">
<use xlink:href="#glyph-2-0" x="63.605402" y="17.291161"/>
</g>
<g fill="rgb(0%, 0%, 0%)" fill-opacity="1">
<use xlink:href="#glyph-3-0" x="71.988929" y="17.291161"/>
</g>
<g fill="rgb(0%, 0%, 0%)" fill-opacity="1">
<use xlink:href="#glyph-3-1" x="82.420664" y="17.291161"/>
</g>
<g fill="rgb(0%, 0%, 0%)" fill-opacity="1">
<use xlink:href="#glyph-2-0" x="86.263155" y="17.291161"/>
</g>
<g fill="rgb(0%, 0%, 0%)" fill-opacity="1">
<use xlink:href="#glyph-4-0" x="91.912008" y="18.772836"/>
</g>
<g fill="rgb(0%, 0%, 0%)" fill-opacity="1">
<use xlink:href="#glyph-2-1" x="96.345131" y="17.291161"/>
</g>
<g fill="rgb(0%, 0%, 0%)" fill-opacity="1">
<use xlink:href="#glyph-2-2" x="100.739937" y="17.291161"/>
</g>
<g fill="rgb(0%, 0%, 0%)" fill-opacity="1">
<use xlink:href="#glyph-2-2" x="105.124862" y="17.291161"/>
</g>
<g fill="rgb(0%, 0%, 0%)" fill-opacity="1">
<use xlink:href="#glyph-2-2" x="109.519668" y="17.291161"/>
</g>
<g fill="rgb(0%, 0%, 0%)" fill-opacity="1">
<use xlink:href="#glyph-2-1" x="113.914473" y="17.291161"/>
</g>
<g fill="rgb(0%, 0%, 0%)" fill-opacity="1">
<use xlink:href="#glyph-2-0" x="118.299399" y="17.291161"/>
</g>
<g fill="rgb(0%, 0%, 0%)" fill-opacity="1">
<use xlink:href="#glyph-5-0" x="123.948509" y="18.772836"/>
</g>
<g fill="rgb(0%, 0%, 0%)" fill-opacity="1">
<use xlink:href="#glyph-3-2" x="129.326769" y="17.291161"/>
</g>
<g fill="rgb(0%, 0%, 0%)" fill-opacity="1">
<use xlink:href="#glyph-1-3" x="136.459436" y="17.291161"/>
<use xlink:href="#glyph-1-4" x="141.398652" y="17.291161"/>
<use xlink:href="#glyph-1-5" x="144.142442" y="17.291161"/>
<use xlink:href="#glyph-1-6" x="146.886231" y="17.291161"/>
</g>
<g fill="rgb(0%, 0%, 0%)" fill-opacity="1">
<use xlink:href="#glyph-6-0" x="10.74818" y="46.94647"/>
</g>
<g fill="rgb(0%, 0%, 0%)" fill-opacity="1">
<use xlink:href="#glyph-2-0" x="15.688385" y="46.94647"/>
</g>
<g fill="rgb(0%, 0%, 0%)" fill-opacity="1">
<use xlink:href="#glyph-6-0" x="21.335038" y="46.94647"/>
</g>
<g fill="rgb(0%, 0%, 0%)" fill-opacity="1">
<use xlink:href="#glyph-7-0" x="26.275018" y="48.428144"/>
</g>
<g fill="rgb(0%, 0%, 0%)" fill-opacity="1">
<use xlink:href="#glyph-3-0" x="37.390552" y="46.94647"/>
</g>
<g fill="rgb(0%, 0%, 0%)" fill-opacity="1">
<use xlink:href="#glyph-3-3" x="47.822288" y="46.94647"/>
<use xlink:href="#glyph-3-4" x="56.055632" y="46.94647"/>
<use xlink:href="#glyph-3-5" x="60.995836" y="46.94647"/>
</g>
<g fill="rgb(0%, 0%, 0%)" fill-opacity="1">
<use xlink:href="#glyph-5-1" x="55.179572" y="53.169701"/>
</g>
<g fill="rgb(0%, 0%, 0%)" fill-opacity="1">
<use xlink:href="#glyph-6-1" x="67.855129" y="46.94647"/>
</g>
<g fill="rgb(0%, 0%, 0%)" fill-opacity="1">
<use xlink:href="#glyph-2-0" x="70.599906" y="46.94647"/>
</g>
<g fill="rgb(0%, 0%, 0%)" fill-opacity="1">
<use xlink:href="#glyph-5-1" x="76.247317" y="48.428144"/>
</g>
<g fill="rgb(0%, 0%, 0%)" fill-opacity="1">
<use xlink:href="#glyph-6-1" x="80.409692" y="46.94647"/>
</g>
<g fill="rgb(0%, 0%, 0%)" fill-opacity="1">
<use xlink:href="#glyph-6-2" x="85.901223" y="46.94647"/>
</g>
<g fill="rgb(0%, 0%, 0%)" fill-opacity="1">
<use xlink:href="#glyph-8-0" x="96.328271" y="35.978707"/>
</g>
<g fill="rgb(0%, 0%, 0%)" fill-opacity="1">
<use xlink:href="#glyph-5-0" x="108.569441" y="34.595215"/>
</g>
<g fill="rgb(0%, 0%, 0%)" fill-opacity="1">
<use xlink:href="#glyph-8-1" x="103.87648" y="37.559556"/>
</g>
<g fill="rgb(0%, 0%, 0%)" fill-opacity="1">
<use xlink:href="#glyph-5-1" x="104.174997" y="58.603499"/>
</g>
<g fill="rgb(0%, 0%, 0%)" fill-opacity="1">
<use xlink:href="#glyph-4-1" x="107.84546" y="58.603499"/>
<use xlink:href="#glyph-4-0" x="113.911025" y="58.603499"/>
</g>
<g fill="rgb(0%, 0%, 0%)" fill-opacity="1">
<use xlink:href="#glyph-6-1" x="119.794068" y="46.94647"/>
</g>
<g fill="rgb(0%, 0%, 0%)" fill-opacity="1">
<use xlink:href="#glyph-2-0" x="122.538845" y="46.94647"/>
</g>
<g fill="rgb(0%, 0%, 0%)" fill-opacity="1">
<use xlink:href="#glyph-5-1" x="128.186256" y="48.428144"/>
</g>
<g fill="rgb(0%, 0%, 0%)" fill-opacity="1">
<use xlink:href="#glyph-6-1" x="132.349623" y="46.94647"/>
</g>
<g fill="rgb(0%, 0%, 0%)" fill-opacity="1">
<use xlink:href="#glyph-4-2" x="135.093795" y="42.86641"/>
</g>
<g fill="rgb(0%, 0%, 0%)" fill-opacity="1">
<use xlink:href="#glyph-8-2" x="139.525926" y="35.978707"/>
</g>
<g fill="rgb(0%, 0%, 0%)" fill-opacity="1">
<use xlink:href="#glyph-4-0" x="145.426838" y="38.025679"/>
</g>
<g fill="rgb(0%, 0%, 0%)" fill-opacity="1">
<use xlink:href="#glyph-5-2" x="149.365652" y="38.025679"/>
</g>
<g fill="rgb(0%, 0%, 0%)" fill-opacity="1">
<use xlink:href="#glyph-4-2" x="153.413743" y="38.025679"/>
</g>
<g fill="rgb(0%, 0%, 0%)" fill-opacity="1">
<use xlink:href="#glyph-3-0" x="160.590696" y="46.94647"/>
</g>
<g fill="rgb(0%, 0%, 0%)" fill-opacity="1">
<use xlink:href="#glyph-6-0" x="171.022431" y="46.94647"/>
</g>
<g fill="rgb(0%, 0%, 0%)" fill-opacity="1">
<use xlink:href="#glyph-2-0" x="175.962636" y="46.94647"/>
</g>
<g fill="rgb(0%, 0%, 0%)" fill-opacity="1">
<use xlink:href="#glyph-6-0" x="181.609289" y="46.94647"/>
</g>
<g fill="rgb(0%, 0%, 0%)" fill-opacity="1">
<use xlink:href="#glyph-4-2" x="186.547769" y="48.428144"/>
</g>
<g fill="rgb(0%, 0%, 0%)" fill-opacity="1">
<use xlink:href="#glyph-6-2" x="193.724072" y="46.94647"/>
</g>
<g fill="rgb(0%, 0%, 0%)" fill-opacity="1">
<use xlink:href="#glyph-8-0" x="204.154306" y="35.978707"/>
</g>
<g fill="rgb(0%, 0%, 0%)" fill-opacity="1">
<use xlink:href="#glyph-5-0" x="216.395477" y="34.595215"/>
</g>
<g fill="rgb(0%, 0%, 0%)" fill-opacity="1">
<use xlink:href="#glyph-8-1" x="211.701524" y="37.559556"/>
</g>
<g fill="rgb(0%, 0%, 0%)" fill-opacity="1">
<use xlink:href="#glyph-5-1" x="212.001032" y="58.603499"/>
</g>
<g fill="rgb(0%, 0%, 0%)" fill-opacity="1">
<use xlink:href="#glyph-4-1" x="215.671495" y="58.603499"/>
<use xlink:href="#glyph-4-0" x="221.73706" y="58.603499"/>
</g>
<g fill="rgb(0%, 0%, 0%)" fill-opacity="1">
<use xlink:href="#glyph-6-0" x="227.620103" y="46.94647"/>
</g>
<g fill="rgb(0%, 0%, 0%)" fill-opacity="1">
<use xlink:href="#glyph-2-0" x="232.560308" y="46.94647"/>
</g>
<g fill="rgb(0%, 0%, 0%)" fill-opacity="1">
<use xlink:href="#glyph-6-0" x="238.206961" y="46.94647"/>
</g>
<g clip-path="url(#clip-0)">
<g fill="rgb(0%, 0%, 0%)" fill-opacity="1">
<use xlink:href="#glyph-4-2" x="243.146941" y="42.86641"/>
</g>
</g>
<g clip-path="url(#clip-1)">
<g fill="rgb(0%, 0%, 0%)" fill-opacity="1">
<use xlink:href="#glyph-7-0" x="243.146941" y="49.38915"/>
</g>
</g>
</svg>
