<?xml version="1.0" encoding="UTF-8"?>
<svg xmlns="http://www.w3.org/2000/svg" xmlns:xlink="http://www.w3.org/1999/xlink" width="246.697pt" height="65.2pt" viewBox="0 0 246.697 65.2">
<defs>
<g>
<g id="glyph-0-0">
<path d="M 1.140625 -0.484375 C 1.765625 0 2.25 0.203125 3 0.203125 C 4.171875 0.203125 4.90625 -0.84375 4.90625 -1.84375 C 4.90625 -2.671875 4.453125 -3.421875 3.65625 -3.75 C 3.0625 -4 2.3125 -3.984375 1.796875 -4.296875 C 1.390625 -4.53125 1.171875 -4.96875 1.171875 -5.390625 C 1.171875 -6.171875 1.828125 -6.671875 2.53125 -6.671875 C 3.5 -6.671875 4.1875 -5.890625 4.34375 -4.90625 C 4.375 -4.765625 4.34375 -4.5 4.515625 -4.5 C 4.625 -4.5 4.640625 -4.59375 4.640625 -4.671875 L 4.640625 -6.8125 C 4.640625 -6.875 4.609375 -6.953125 4.53125 -6.953125 C 4.390625 -6.953125 4.28125 -6.671875 4.203125 -6.546875 C 4.140625 -6.453125 4.078125 -6.359375 4.03125 -6.265625 C 3.625 -6.671875 3.171875 -6.953125 2.515625 -6.953125 C 1.546875 -6.953125 0.546875 -6.28125 0.546875 -5.03125 C 0.546875 -4 1.296875 -3.34375 2.25 -3.125 C 2.46875 -3.078125 2.65625 -3.015625 2.859375 -2.96875 C 3.421875 -2.84375 3.96875 -2.703125 4.203125 -2 C 4.25 -1.84375 4.28125 -1.6875 4.28125 -1.546875 C 4.28125 -0.8125 3.78125 -0.09375 2.953125 -0.09375 C 1.96875 -0.09375 1.015625 -0.625 0.8125 -1.75 C 0.8125 -1.84375 0.796875 -1.9375 0.78125 -2.03125 L 0.78125 -2.09375 C 0.78125 -2.1875 0.734375 -2.25 0.65625 -2.25 C 0.5625 -2.25 0.546875 -2.171875 0.546875 -2.09375 L 0.546875 0.0625 C 0.546875 0.140625 0.5625 0.203125 0.640625 0.203125 C 0.78125 0.203125 0.890625 -0.0625 0.96875 -0.203125 C 1.03125 -0.28125 1.109375 -0.390625 1.140625 -0.484375 Z M 1.140625 -0.484375 "/>
</g>
<g id="glyph-0-1">
<path d="M 1.109375 -2.28125 L 3.9375 -2.28125 C 4.046875 -2.28125 4.09375 -2.359375 4.09375 -2.46875 C 4.09375 -3.5 3.453125 -4.40625 2.359375 -4.40625 C 1.140625 -4.40625 0.28125 -3.34375 0.28125 -2.171875 C 0.28125 -1.265625 0.78125 -0.453125 1.640625 -0.0625 C 1.875 0.046875 2.140625 0.09375 2.375 0.09375 L 2.40625 0.09375 C 3.171875 0.09375 3.796875 -0.328125 4.0625 -1.078125 C 4.078125 -1.109375 4.078125 -1.15625 4.078125 -1.1875 C 4.078125 -1.25 4.03125 -1.296875 3.96875 -1.296875 C 3.8125 -1.296875 3.765625 -0.96875 3.703125 -0.859375 C 3.453125 -0.4375 2.984375 -0.140625 2.46875 -0.140625 C 2.109375 -0.140625 1.796875 -0.359375 1.53125 -0.625 C 1.125 -1.078125 1.109375 -1.71875 1.109375 -2.28125 Z M 1.109375 -2.484375 C 1.109375 -3.25 1.515625 -4.1875 2.328125 -4.1875 L 2.375 -4.1875 C 3.34375 -4.109375 3.328125 -3.078125 3.421875 -2.484375 Z M 1.109375 -2.484375 "/>
</g>
<g id="glyph-0-2">
<path d="M 0.359375 -4.25 L 0.359375 -3.9375 L 0.546875 -3.9375 C 0.84375 -3.9375 1.09375 -3.890625 1.09375 -3.453125 L 1.09375 -0.71875 C 1.09375 -0.375 0.921875 -0.3125 0.328125 -0.3125 L 0.328125 -0.015625 L 2.4375 -0.015625 L 2.4375 -0.3125 L 2.25 -0.3125 C 1.984375 -0.3125 1.75 -0.34375 1.75 -0.65625 L 1.75 -4.34375 Z M 1.1875 -6.578125 C 0.9375 -6.5625 0.75 -6.34375 0.75 -6.078125 C 0.75 -5.78125 1 -5.546875 1.265625 -5.546875 C 1.53125 -5.546875 1.796875 -5.765625 1.796875 -6.078125 C 1.796875 -6.359375 1.546875 -6.59375 1.265625 -6.59375 C 1.234375 -6.59375 1.21875 -6.578125 1.1875 -6.578125 Z M 1.1875 -6.578125 "/>
</g>
<g id="glyph-0-3">
<path d="M 2.3125 -4.40625 C 1.078125 -4.28125 0.28125 -3.234375 0.28125 -2.09375 C 0.28125 -0.984375 1.15625 0.09375 2.46875 0.09375 C 3.640625 0.09375 4.640625 -0.859375 4.640625 -2.109375 C 4.640625 -3.28125 3.75 -4.421875 2.4375 -4.421875 C 2.40625 -4.421875 2.359375 -4.40625 2.3125 -4.40625 Z M 1.109375 -1.875 L 1.109375 -2.296875 C 1.109375 -3.046875 1.34375 -4.1875 2.453125 -4.1875 C 3.25 -4.1875 3.703125 -3.53125 3.796875 -2.78125 C 3.8125 -2.5625 3.8125 -2.359375 3.8125 -2.140625 C 3.8125 -1.5 3.734375 -0.703125 3.109375 -0.328125 C 2.90625 -0.203125 2.703125 -0.140625 2.46875 -0.140625 C 1.75 -0.140625 1.25 -0.703125 1.140625 -1.484375 C 1.125 -1.609375 1.125 -1.75 1.109375 -1.875 Z M 1.109375 -1.875 "/>
</g>
<g id="glyph-0-4">
<path d="M 1.03125 -4.25 L 0.265625 -4.25 L 0.265625 -3.9375 L 1.03125 -3.9375 L 1.03125 -0.671875 C 1.03125 -0.34375 0.75 -0.3125 0.4375 -0.3125 L 0.265625 -0.3125 L 0.265625 -0.015625 L 2.46875 -0.015625 L 2.46875 -0.3125 L 2.21875 -0.3125 C 1.953125 -0.3125 1.6875 -0.34375 1.6875 -0.671875 L 1.6875 -3.9375 L 3.765625 -3.9375 L 3.765625 -0.671875 C 3.765625 -0.34375 3.46875 -0.3125 3.171875 -0.3125 L 3 -0.3125 L 3 -0.015625 L 5.375 -0.015625 L 5.375 -0.3125 L 5.0625 -0.3125 C 4.84375 -0.3125 4.609375 -0.328125 4.5 -0.4375 C 4.421875 -0.515625 4.421875 -0.65625 4.421875 -0.765625 L 4.421875 -3.9375 L 5.546875 -3.9375 L 5.546875 -4.25 L 4.390625 -4.25 L 4.390625 -5.171875 C 4.390625 -5.78125 4.515625 -6.640625 5.234375 -6.734375 C 5.359375 -6.734375 5.5 -6.71875 5.625 -6.671875 C 5.453125 -6.578125 5.328125 -6.46875 5.328125 -6.265625 C 5.328125 -6 5.5 -5.8125 5.765625 -5.8125 C 6.046875 -5.8125 6.1875 -6.03125 6.1875 -6.265625 C 6.1875 -6.75 5.671875 -6.953125 5.265625 -6.953125 C 4.9375 -6.953125 4.640625 -6.828125 4.375 -6.65625 C 4.34375 -6.625 4.296875 -6.5625 4.25 -6.5625 C 4.1875 -6.5625 4.0625 -6.71875 3.953125 -6.765625 C 3.734375 -6.875 3.5 -6.9375 3.265625 -6.953125 L 3.15625 -6.953125 C 2.21875 -6.953125 1.03125 -6.5 1.03125 -5.28125 Z M 3.796875 -5.703125 C 3.765625 -5.625 3.765625 -5.515625 3.765625 -5.421875 L 3.765625 -4.25 L 1.65625 -4.25 L 1.65625 -5.28125 C 1.65625 -6.1875 2.328125 -6.734375 3.125 -6.734375 C 3.40625 -6.734375 3.625 -6.65625 3.875 -6.546875 C 3.671875 -6.484375 3.515625 -6.359375 3.515625 -6.125 C 3.515625 -5.953125 3.609375 -5.765625 3.796875 -5.703125 Z M 3.796875 -5.703125 "/>
</g>
<g id="glyph-0-5">
<path d="M 0.3125 -4.25 L 0.3125 -3.9375 L 0.46875 -3.9375 C 0.78125 -3.9375 1.078125 -3.90625 1.078125 -3.453125 L 1.078125 -0.734375 C 1.078125 -0.328125 0.8125 -0.3125 0.375 -0.3125 L 0.3125 -0.3125 L 0.3125 -0.015625 L 2.546875 -0.015625 L 2.546875 -0.3125 L 2.28125 -0.3125 C 2.015625 -0.3125 1.765625 -0.359375 1.765625 -0.71875 L 1.765625 -2.515625 C 1.765625 -3.234375 2.140625 -4.140625 3.109375 -4.140625 C 3.734375 -4.140625 3.796875 -3.453125 3.796875 -3.03125 L 3.796875 -0.671875 C 3.796875 -0.34375 3.515625 -0.3125 3.203125 -0.3125 L 3.03125 -0.3125 L 3.03125 -0.015625 L 5.25 -0.015625 L 5.25 -0.3125 L 5.015625 -0.3125 C 4.75 -0.3125 4.484375 -0.359375 4.484375 -0.6875 L 4.484375 -2.84375 C 4.484375 -3.171875 4.484375 -3.5 4.328125 -3.796875 C 4.09375 -4.234375 3.59375 -4.34375 3.140625 -4.34375 C 2.546875 -4.34375 1.921875 -3.9375 1.71875 -3.34375 L 1.71875 -4.34375 Z M 0.3125 -4.25 "/>
</g>
<g id="glyph-0-6">
<path d="M 0.3125 -4.25 L 0.3125 -3.9375 L 0.453125 -3.9375 C 0.734375 -3.9375 1.015625 -3.921875 1.078125 -3.625 C 1.078125 -3.515625 1.078125 -3.421875 1.078125 -3.3125 L 1.078125 -1.34375 C 1.078125 -1.03125 1.09375 -0.71875 1.265625 -0.4375 C 1.53125 -0.015625 2.09375 0.109375 2.5625 0.109375 C 3 0.109375 3.40625 -0.09375 3.65625 -0.453125 C 3.71875 -0.546875 3.796875 -0.65625 3.8125 -0.765625 L 3.828125 0.09375 L 5.25 -0.015625 L 5.25 -0.3125 L 5.109375 -0.3125 C 4.78125 -0.3125 4.484375 -0.34375 4.484375 -0.78125 L 4.484375 -4.34375 L 3.03125 -4.25 L 3.03125 -3.9375 L 3.171875 -3.9375 C 3.5 -3.9375 3.796875 -3.90625 3.796875 -3.453125 L 3.796875 -1.65625 C 3.796875 -0.9375 3.421875 -0.125 2.609375 -0.125 C 2.0625 -0.125 1.765625 -0.265625 1.765625 -1.3125 L 1.765625 -4.34375 Z M 0.3125 -4.25 "/>
</g>
<g id="glyph-0-7">
<path d="M 3 -6.734375 L 3 -6.421875 L 3.15625 -6.421875 C 3.5 -6.421875 3.765625 -6.390625 3.765625 -5.8125 L 3.75 -3.75 C 3.515625 -4.140625 2.953125 -4.34375 2.5 -4.34375 C 1.296875 -4.34375 0.328125 -3.3125 0.328125 -2.109375 C 0.328125 -1.0625 1.125 0.09375 2.4375 0.09375 C 2.9375 0.09375 3.40625 -0.140625 3.734375 -0.546875 L 3.734375 0.09375 L 5.1875 -0.015625 L 5.1875 -0.3125 L 5.015625 -0.3125 C 4.71875 -0.3125 4.421875 -0.34375 4.421875 -0.8125 L 4.421875 -6.84375 Z M 1.15625 -1.875 L 1.15625 -2.03125 C 1.15625 -2.75 1.234375 -3.5 1.921875 -3.953125 C 2.109375 -4.0625 2.34375 -4.140625 2.5625 -4.140625 C 3.046875 -4.140625 3.734375 -3.734375 3.734375 -3.125 C 3.734375 -3 3.734375 -2.859375 3.734375 -2.734375 L 3.734375 -1.109375 C 3.734375 -0.96875 3.6875 -0.890625 3.609375 -0.78125 C 3.359375 -0.40625 2.9375 -0.125 2.46875 -0.125 C 1.75 -0.125 1.296875 -0.78125 1.1875 -1.453125 C 1.171875 -1.59375 1.171875 -1.75 1.15625 -1.875 Z M 1.15625 -1.875 "/>
</g>
<g id="glyph-0-8">
<path d="M 0.265625 -4.25 L 0.265625 -3.9375 L 0.453125 -3.9375 C 0.75 -3.9375 1.03125 -3.90625 1.03125 -3.515625 L 1.03125 1.203125 C 1.03125 1.5625 0.78125 1.59375 0.5 1.59375 L 0.265625 1.59375 L 0.265625 1.90625 L 2.484375 1.90625 L 2.484375 1.59375 L 2.25 1.59375 C 1.953125 1.59375 1.71875 1.5625 1.71875 1.203125 L 1.734375 -0.5 C 1.953125 -0.09375 2.515625 0.09375 2.9375 0.09375 C 4.15625 0.09375 5.125 -0.9375 5.125 -2.140625 C 5.125 -3.3125 4.21875 -4.34375 3.0625 -4.34375 C 2.515625 -4.34375 2.046875 -4.109375 1.6875 -3.71875 L 1.6875 -4.34375 Z M 4.296875 -1.953125 C 4.25 -1.234375 3.859375 -0.203125 2.96875 -0.125 L 2.90625 -0.125 C 2.484375 -0.125 2.09375 -0.359375 1.859375 -0.703125 C 1.78125 -0.8125 1.71875 -0.921875 1.71875 -1.046875 L 1.71875 -2.703125 C 1.71875 -2.828125 1.71875 -2.96875 1.71875 -3.09375 C 1.71875 -3.609375 2.375 -4.109375 2.96875 -4.109375 C 3.953125 -4.109375 4.296875 -2.8125 4.296875 -2.109375 C 4.296875 -2.0625 4.296875 -2.015625 4.296875 -1.953125 Z M 4.296875 -1.953125 "/>
</g>
<g id="glyph-0-9">
<path d="M 1.109375 -3.75 C 1.34375 -4.0625 1.78125 -4.1875 2.140625 -4.1875 C 2.875 -4.1875 3.203125 -3.53125 3.203125 -2.828125 L 3.203125 -2.578125 C 2.0625 -2.578125 0.40625 -2.21875 0.40625 -0.9375 L 0.40625 -0.859375 C 0.484375 -0.09375 1.4375 0.09375 2 0.09375 C 2.5 0.09375 3.140625 -0.234375 3.265625 -0.734375 L 3.28125 -0.734375 C 3.34375 -0.3125 3.609375 0.046875 4.046875 0.046875 C 4.453125 0.046875 4.796875 -0.28125 4.859375 -0.71875 L 4.859375 -1.4375 L 4.609375 -1.4375 L 4.609375 -0.9375 C 4.609375 -0.671875 4.5625 -0.265625 4.25 -0.265625 C 3.9375 -0.265625 3.890625 -0.65625 3.890625 -0.921875 L 3.890625 -2.5625 C 3.890625 -2.6875 3.890625 -2.8125 3.890625 -2.9375 C 3.890625 -3.890625 3 -4.40625 2.1875 -4.40625 C 1.5625 -4.40625 0.6875 -4.109375 0.6875 -3.3125 C 0.6875 -3.03125 0.890625 -2.84375 1.15625 -2.84375 C 1.421875 -2.84375 1.59375 -3.0625 1.59375 -3.296875 C 1.59375 -3.578125 1.375 -3.75 1.109375 -3.75 Z M 3.203125 -2.375 L 3.203125 -1.375 C 3.203125 -0.703125 2.734375 -0.15625 2.09375 -0.125 L 2.046875 -0.125 C 1.578125 -0.125 1.171875 -0.484375 1.171875 -0.953125 L 1.171875 -1 C 1.234375 -2 2.359375 -2.34375 3.203125 -2.375 Z M 3.203125 -2.375 "/>
</g>
<g id="glyph-0-10">
<path d="M 0.265625 -4.25 L 0.265625 -3.9375 L 0.40625 -3.9375 C 0.734375 -3.9375 1.03125 -3.90625 1.03125 -3.453125 L 1.03125 -0.734375 C 1.03125 -0.328125 0.765625 -0.3125 0.328125 -0.3125 L 0.265625 -0.3125 L 0.265625 -0.015625 L 2.640625 -0.015625 L 2.640625 -0.3125 C 2.53125 -0.3125 2.390625 -0.3125 2.28125 -0.3125 C 1.953125 -0.3125 1.6875 -0.359375 1.6875 -0.71875 L 1.6875 -2.03125 C 1.6875 -2.859375 1.890625 -4.140625 2.859375 -4.140625 C 2.890625 -4.140625 2.921875 -4.140625 2.96875 -4.125 L 2.96875 -4.109375 C 2.8125 -4.0625 2.734375 -3.890625 2.734375 -3.734375 C 2.734375 -3.515625 2.890625 -3.359375 3.109375 -3.3125 C 3.390625 -3.3125 3.578125 -3.5 3.578125 -3.734375 C 3.578125 -4.140625 3.203125 -4.34375 2.859375 -4.34375 C 2.28125 -4.34375 1.75 -3.828125 1.65625 -3.296875 L 1.640625 -4.34375 Z M 0.265625 -4.25 "/>
</g>
<g id="glyph-0-11">
<path d="M 1.46875 -6.0625 C 1.46875 -5.390625 1.1875 -4.15625 0.171875 -4.15625 L 0.171875 -3.9375 L 1.03125 -3.9375 L 1.03125 -1.390625 C 1.03125 -1.078125 1.046875 -0.75 1.203125 -0.46875 C 1.421875 -0.0625 1.875 0.09375 2.3125 0.09375 C 3.125 0.09375 3.28125 -0.8125 3.28125 -1.421875 L 3.28125 -1.796875 L 3.03125 -1.796875 C 3.03125 -1.640625 3.046875 -1.5 3.046875 -1.34375 C 3.046875 -0.90625 2.9375 -0.140625 2.359375 -0.140625 C 1.796875 -0.140625 1.71875 -0.828125 1.71875 -1.265625 L 1.71875 -3.9375 L 3.109375 -3.9375 L 3.109375 -4.25 L 1.71875 -4.25 L 1.71875 -6.0625 Z M 1.46875 -6.0625 "/>
</g>
<g id="glyph-0-12">
<path d="M 0.328125 -6.734375 L 0.328125 -6.421875 L 0.46875 -6.421875 C 0.84375 -6.421875 1.09375 -6.390625 1.09375 -5.921875 L 1.09375 -0.9375 C 1.09375 -0.875 1.109375 -0.8125 1.109375 -0.734375 C 1.109375 -0.359375 0.84375 -0.3125 0.5625 -0.3125 L 0.328125 -0.3125 L 0.328125 -0.015625 L 2.515625 -0.015625 L 2.515625 -0.3125 L 2.28125 -0.3125 C 1.984375 -0.3125 1.75 -0.359375 1.75 -0.734375 L 1.75 -6.84375 Z M 0.328125 -6.734375 "/>
</g>
<g id="glyph-0-13">
<path d="M 0.515625 -4.25 L 0.40625 -2.65625 L 0.65625 -2.65625 C 0.671875 -3 0.703125 -3.40625 0.921875 -3.6875 C 1.15625 -4 1.609375 -4.03125 2.015625 -4.03125 L 3.09375 -4.03125 C 2.171875 -2.828125 1.296875 -1.578125 0.390625 -0.359375 C 0.328125 -0.3125 0.28125 -0.21875 0.28125 -0.140625 C 0.28125 -0.046875 0.34375 -0.015625 0.4375 -0.015625 L 3.78125 -0.015625 L 3.953125 -1.84375 L 3.703125 -1.84375 C 3.625 -1.1875 3.578125 -0.375 2.640625 -0.28125 C 2.40625 -0.25 2.1875 -0.25 1.96875 -0.25 L 1.109375 -0.25 C 1.828125 -1.234375 2.5625 -2.21875 3.28125 -3.203125 C 3.5 -3.484375 3.921875 -3.953125 3.921875 -4.125 C 3.921875 -4.21875 3.84375 -4.25 3.765625 -4.25 Z M 0.515625 -4.25 "/>
</g>
<g id="glyph-0-14">
<path d="M 0.265625 -6.734375 L 0.265625 -6.421875 L 0.4375 -6.421875 C 0.734375 -6.421875 1.03125 -6.40625 1.03125 -5.9375 L 1.03125 -0.015625 L 1.265625 -0.03125 L 1.390625 -0.203125 L 1.640625 -0.609375 L 1.65625 -0.609375 C 1.890625 -0.140625 2.46875 0.09375 2.96875 0.09375 C 4.1875 0.09375 5.125 -0.96875 5.125 -2.140625 C 5.125 -3.265625 4.265625 -4.34375 3 -4.34375 C 2.484375 -4.34375 2.03125 -4.109375 1.6875 -3.71875 L 1.6875 -6.84375 Z M 4.296875 -1.890625 C 4.25 -1.421875 4.203125 -1 3.90625 -0.640625 C 3.65625 -0.328125 3.28125 -0.125 2.890625 -0.125 C 2.46875 -0.125 2.09375 -0.359375 1.859375 -0.71875 C 1.78125 -0.828125 1.71875 -0.921875 1.71875 -1.0625 L 1.71875 -2.703125 C 1.71875 -2.828125 1.71875 -2.96875 1.71875 -3.09375 C 1.71875 -3.6875 2.4375 -4.140625 2.984375 -4.140625 C 4.046875 -4.140625 4.296875 -2.890625 4.296875 -2.109375 C 4.296875 -2.03125 4.296875 -1.96875 4.296875 -1.890625 Z M 4.296875 -1.890625 "/>
</g>
<g id="glyph-0-15">
<path d="M 0.3125 -4.25 L 0.3125 -3.9375 L 0.46875 -3.9375 C 0.78125 -3.9375 1.078125 -3.90625 1.078125 -3.453125 L 1.078125 -0.734375 C 1.078125 -0.328125 0.8125 -0.3125 0.375 -0.3125 L 0.3125 -0.3125 L 0.3125 -0.015625 L 2.546875 -0.015625 L 2.546875 -0.3125 L 2.28125 -0.3125 C 2.015625 -0.3125 1.765625 -0.359375 1.765625 -0.71875 L 1.765625 -2.515625 C 1.765625 -3.234375 2.171875 -4.140625 3.109375 -4.140625 C 3.734375 -4.140625 3.8125 -3.484375 3.8125 -3.03125 L 3.8125 -0.6875 C 3.8125 -0.328125 3.515625 -0.3125 3.1875 -0.3125 L 3.046875 -0.3125 L 3.046875 -0.015625 L 5.265625 -0.015625 L 5.265625 -0.3125 L 5.015625 -0.3125 C 4.734375 -0.3125 4.5 -0.359375 4.5 -0.71875 L 4.5 -2.515625 C 4.5 -3.234375 4.890625 -4.140625 5.84375 -4.140625 C 6.46875 -4.140625 6.53125 -3.484375 6.53125 -3.03125 L 6.53125 -0.6875 C 6.53125 -0.328125 6.234375 -0.3125 5.921875 -0.3125 L 5.765625 -0.3125 L 5.765625 -0.015625 L 8 -0.015625 L 8 -0.3125 L 7.78125 -0.3125 C 7.484375 -0.3125 7.21875 -0.34375 7.21875 -0.6875 L 7.21875 -2.90625 C 7.21875 -3.28125 7.203125 -3.609375 6.96875 -3.9375 C 6.71875 -4.265625 6.296875 -4.34375 5.890625 -4.34375 C 5.25 -4.34375 4.734375 -3.984375 4.46875 -3.40625 C 4.28125 -4.109375 3.84375 -4.34375 3.15625 -4.34375 C 2.53125 -4.34375 1.921875 -3.953125 1.71875 -3.34375 L 1.71875 -4.34375 Z M 0.3125 -4.25 "/>
</g>
<g id="glyph-0-16">
<path d="M 1.734375 -4.40625 C 1.375 -4.375 0.984375 -4.296875 0.703125 -4.0625 C 0.46875 -3.84375 0.328125 -3.515625 0.328125 -3.203125 C 0.328125 -1.515625 3.0625 -2.46875 3.0625 -1 C 3.0625 -0.390625 2.515625 -0.125 1.984375 -0.125 C 1.234375 -0.125 0.734375 -0.65625 0.59375 -1.5 C 0.578125 -1.578125 0.5625 -1.671875 0.4375 -1.671875 C 0.359375 -1.671875 0.328125 -1.609375 0.328125 -1.546875 L 0.328125 0.015625 C 0.328125 0.0625 0.359375 0.09375 0.40625 0.09375 L 0.4375 0.09375 C 0.59375 0.09375 0.75 -0.265625 0.859375 -0.296875 L 0.875 -0.296875 C 0.953125 -0.296875 1.21875 -0.046875 1.421875 0.015625 C 1.59375 0.078125 1.765625 0.09375 1.953125 0.09375 C 2.765625 0.09375 3.546875 -0.328125 3.546875 -1.234375 C 3.546875 -1.890625 3.078125 -2.421875 2.421875 -2.59375 C 1.8125 -2.75 0.8125 -2.75 0.8125 -3.46875 C 0.8125 -4.078125 1.46875 -4.21875 1.90625 -4.21875 C 2.375 -4.21875 3.046875 -3.953125 3.046875 -3.109375 C 3.046875 -3.015625 3.0625 -2.9375 3.171875 -2.9375 C 3.265625 -2.9375 3.3125 -3.015625 3.3125 -3.125 C 3.3125 -3.171875 3.296875 -3.21875 3.296875 -3.265625 L 3.296875 -4.265625 C 3.296875 -4.328125 3.265625 -4.40625 3.1875 -4.40625 C 3.03125 -4.40625 2.9375 -4.15625 2.828125 -4.15625 L 2.8125 -4.15625 C 2.734375 -4.15625 2.578125 -4.296875 2.46875 -4.328125 C 2.28125 -4.390625 2.09375 -4.421875 1.90625 -4.421875 C 1.84375 -4.421875 1.796875 -4.40625 1.734375 -4.40625 Z M 1.734375 -4.40625 "/>
</g>
<g id="glyph-0-17">
<path d="M 1.171875 -0.21875 C 0.703125 -0.125 0.28125 0.3125 0.28125 0.78125 C 0.28125 1.703125 1.6875 2.015625 2.453125 2.015625 C 3.28125 2.015625 4.640625 1.71875 4.640625 0.703125 C 4.640625 0.0625 4.1875 -0.375 3.59375 -0.546875 C 3.234375 -0.65625 2.875 -0.65625 2.5 -0.65625 L 1.609375 -0.65625 C 1.296875 -0.6875 1.046875 -1 1.046875 -1.3125 L 1.046875 -1.375 C 1.046875 -1.5 1.125 -1.75 1.21875 -1.75 C 1.34375 -1.71875 1.484375 -1.609375 1.640625 -1.5625 C 1.8125 -1.5 2.015625 -1.484375 2.1875 -1.484375 C 3 -1.484375 3.796875 -2.078125 3.796875 -2.90625 C 3.796875 -3.25 3.65625 -3.640625 3.390625 -3.859375 L 3.390625 -3.875 C 3.65625 -4.0625 3.90625 -4.25 4.265625 -4.25 C 4.296875 -4.25 4.328125 -4.25 4.34375 -4.234375 C 4.265625 -4.171875 4.203125 -4.109375 4.203125 -3.984375 C 4.203125 -3.8125 4.328125 -3.6875 4.484375 -3.6875 C 4.65625 -3.6875 4.78125 -3.8125 4.78125 -3.984375 C 4.78125 -4.25 4.5625 -4.453125 4.28125 -4.453125 C 3.9375 -4.453125 3.609375 -4.328125 3.34375 -4.109375 C 3.3125 -4.078125 3.28125 -4.03125 3.234375 -4.03125 C 3.171875 -4.03125 3.09375 -4.109375 3.046875 -4.140625 C 2.78125 -4.265625 2.484375 -4.34375 2.1875 -4.34375 C 1.421875 -4.34375 0.578125 -3.8125 0.578125 -2.90625 C 0.578125 -2.59375 0.703125 -2.296875 0.90625 -2.03125 C 0.9375 -2 1.015625 -1.953125 1.015625 -1.90625 C 1.015625 -1.84375 0.953125 -1.796875 0.9375 -1.765625 C 0.8125 -1.5625 0.734375 -1.3125 0.734375 -1.078125 C 0.734375 -0.78125 0.875 -0.375 1.171875 -0.21875 Z M 0.796875 0.828125 L 0.796875 0.75 C 0.796875 0.21875 1.25 -0.078125 1.78125 -0.078125 L 2.546875 -0.078125 C 3.171875 -0.078125 4.109375 0.015625 4.109375 0.765625 C 4.109375 1.484375 3.0625 1.796875 2.453125 1.796875 C 1.796875 1.796875 0.890625 1.5 0.796875 0.828125 Z M 1.328125 -2.71875 L 1.328125 -2.84375 C 1.328125 -3.390625 1.453125 -4.109375 2.1875 -4.109375 C 2.796875 -4.109375 3.046875 -3.546875 3.046875 -2.90625 C 3.046875 -2.515625 2.96875 -1.71875 2.1875 -1.71875 C 1.9375 -1.71875 1.6875 -1.828125 1.53125 -2.046875 C 1.375 -2.25 1.359375 -2.484375 1.328125 -2.71875 Z M 1.328125 -2.71875 "/>
</g>
<g id="glyph-0-18">
<path d="M 0.3125 -0.3125 L 0.3125 -0.015625 L 2.4375 -0.015625 L 2.4375 -0.3125 C 2.125 -0.3125 1.71875 -0.46875 1.703125 -0.8125 C 1.703125 -0.90625 1.75 -1 1.78125 -1.078125 C 1.890625 -1.40625 1.984375 -1.734375 2.109375 -2.046875 C 2.140625 -2.140625 2.140625 -2.25 2.28125 -2.25 L 4.515625 -2.25 C 4.640625 -2.25 4.640625 -2.140625 4.6875 -2.0625 L 4.890625 -1.4375 C 4.984375 -1.1875 5.171875 -0.8125 5.171875 -0.59375 L 5.171875 -0.5625 C 5.078125 -0.328125 4.703125 -0.3125 4.40625 -0.3125 L 4.34375 -0.3125 L 4.34375 -0.015625 L 7.0625 -0.015625 L 7.0625 -0.3125 L 6.765625 -0.3125 C 6.546875 -0.3125 6.3125 -0.328125 6.1875 -0.453125 C 6.078125 -0.578125 6.046875 -0.734375 5.984375 -0.890625 C 5.484375 -2.359375 4.984375 -3.828125 4.453125 -5.296875 C 4.28125 -5.8125 4.046875 -6.34375 3.921875 -6.875 C 3.875 -7 3.8125 -7.0625 3.6875 -7.0625 C 3.484375 -7.0625 3.453125 -6.84375 3.390625 -6.65625 C 2.828125 -4.984375 2.21875 -3.34375 1.65625 -1.6875 L 1.453125 -1.109375 C 1.390625 -0.921875 1.34375 -0.75 1.203125 -0.609375 C 0.96875 -0.375 0.625 -0.3125 0.3125 -0.3125 Z M 2.296875 -2.5625 L 3.390625 -5.765625 L 4.515625 -2.5625 Z M 2.296875 -2.5625 "/>
</g>
<g id="glyph-0-19">
<path d="M 1.296875 -1.046875 C 1.046875 -1.015625 0.84375 -0.78125 0.84375 -0.546875 C 0.84375 -0.296875 1.046875 -0.015625 1.34375 -0.015625 C 1.609375 -0.015625 1.890625 -0.21875 1.890625 -0.515625 C 1.890625 -0.78125 1.6875 -1.046875 1.375 -1.046875 C 1.34375 -1.046875 1.3125 -1.046875 1.296875 -1.046875 Z M 1.296875 -1.046875 "/>
</g>
<g id="glyph-0-20">
<path d="M 0.328125 -6.734375 L 0.328125 -6.421875 C 0.46875 -6.421875 0.59375 -6.4375 0.703125 -6.4375 C 1.0625 -6.4375 1.34375 -6.390625 1.34375 -6 L 1.34375 -0.734375 C 1.34375 -0.359375 1.03125 -0.3125 0.6875 -0.3125 C 0.5625 -0.3125 0.4375 -0.3125 0.328125 -0.3125 L 0.328125 -0.015625 L 3.75 -0.015625 C 5.015625 -0.015625 6.1875 -0.625 6.75 -2.0625 C 6.90625 -2.46875 6.96875 -2.890625 6.96875 -3.3125 C 6.96875 -4.859375 6 -6.5 4.25 -6.71875 C 4.078125 -6.734375 3.921875 -6.734375 3.765625 -6.734375 Z M 5.96875 -3.078125 L 5.96875 -2.875 C 5.890625 -1.828125 5.546875 -0.734375 4.328125 -0.40625 C 4.03125 -0.3125 3.734375 -0.3125 3.4375 -0.3125 L 2.59375 -0.3125 C 2.359375 -0.3125 2.1875 -0.359375 2.1875 -0.671875 C 2.1875 -0.734375 2.1875 -0.8125 2.1875 -0.859375 L 2.1875 -5.71875 C 2.1875 -5.8125 2.1875 -5.90625 2.1875 -6 C 2.1875 -6.375 2.328125 -6.4375 2.609375 -6.4375 C 2.6875 -6.4375 2.765625 -6.421875 2.828125 -6.421875 L 3.46875 -6.421875 C 4.15625 -6.421875 4.84375 -6.28125 5.328125 -5.6875 C 5.859375 -5.046875 5.984375 -4.21875 5.984375 -3.390625 L 5.984375 -3.296875 C 5.984375 -3.21875 5.984375 -3.15625 5.96875 -3.078125 Z M 5.96875 -3.078125 "/>
</g>
<g id="glyph-0-21">
<path d="M 3.125 -7.390625 C 2.984375 -7.328125 2.8125 -7.140625 2.6875 -7.015625 C 1.484375 -5.8125 0.984375 -4.140625 0.984375 -2.46875 C 0.984375 -0.6875 1.5625 1.203125 3.015625 2.375 C 3.0625 2.40625 3.125 2.453125 3.171875 2.453125 C 3.234375 2.453125 3.265625 2.390625 3.265625 2.359375 C 3.265625 2.25 3 2.03125 2.890625 1.90625 C 1.875 0.703125 1.5625 -0.921875 1.5625 -2.46875 C 1.5625 -4.078125 1.890625 -5.859375 3.109375 -7.09375 C 3.171875 -7.140625 3.265625 -7.21875 3.265625 -7.296875 C 3.265625 -7.359375 3.21875 -7.390625 3.15625 -7.390625 C 3.15625 -7.390625 3.125 -7.390625 3.125 -7.390625 Z M 3.125 -7.390625 "/>
</g>
<g id="glyph-0-22">
<path d="M 0.609375 -7.390625 C 0.578125 -7.359375 0.546875 -7.328125 0.546875 -7.296875 C 0.546875 -7.1875 0.78125 -7.015625 0.890625 -6.90625 C 1.9375 -5.6875 2.25 -4.015625 2.25 -2.46875 C 2.25 -0.875 1.921875 0.921875 0.75 2.109375 C 0.671875 2.171875 0.546875 2.28125 0.546875 2.359375 C 0.546875 2.40625 0.59375 2.453125 0.65625 2.453125 L 0.671875 2.453125 C 0.78125 2.4375 0.984375 2.21875 1.109375 2.109375 C 2.34375 0.859375 2.828125 -0.8125 2.828125 -2.484375 C 2.828125 -4.296875 2.25 -6.09375 0.8125 -7.3125 C 0.765625 -7.34375 0.703125 -7.390625 0.65625 -7.390625 C 0.640625 -7.390625 0.625 -7.390625 0.609375 -7.390625 Z M 0.609375 -7.390625 "/>
</g>
<g id="glyph-0-23">
<path d="M 1.09375 -4.25 L 0.328125 -4.25 L 0.328125 -3.9375 L 1.09375 -3.9375 L 1.09375 -0.671875 C 1.09375 -0.34375 0.8125 -0.3125 0.515625 -0.3125 L 0.328125 -0.3125 L 0.328125 -0.015625 L 2.703125 -0.015625 L 2.703125 -0.3125 L 2.390625 -0.3125 C 2.171875 -0.3125 1.953125 -0.328125 1.828125 -0.4375 C 1.75 -0.515625 1.75 -0.65625 1.75 -0.765625 L 1.75 -3.9375 L 2.875 -3.9375 L 2.875 -4.25 L 1.71875 -4.25 L 1.71875 -5.53125 C 1.71875 -6.078125 2.09375 -6.734375 2.625 -6.734375 C 2.734375 -6.734375 2.859375 -6.71875 2.9375 -6.65625 C 2.75 -6.609375 2.640625 -6.421875 2.640625 -6.234375 C 2.640625 -5.984375 2.84375 -5.8125 3.078125 -5.8125 C 3.34375 -5.8125 3.53125 -6.015625 3.53125 -6.234375 C 3.53125 -6.703125 3.03125 -6.953125 2.625 -6.953125 C 1.734375 -6.953125 1.09375 -6.25 1.09375 -5.296875 Z M 1.09375 -4.25 "/>
</g>
<g id="glyph-0-24">
<path d="M 0.3125 -4.25 L 0.3125 -3.9375 L 0.453125 -3.9375 C 0.734375 -3.9375 1.015625 -3.921875 1.078125 -3.625 C 1.078125 -3.515625 1.078125 -3.421875 1.078125 -3.3125 L 1.078125 -1.34375 C 1.078125 -1.03125 1.09375 -0.71875 1.265625 -0.4375 C 1.53125 -0.015625 2.09375 0.109375 2.5625 0.109375 C 3 0.109375 3.40625 -0.09375 3.65625 -0.453125 C 3.71875 -0.546875 3.796875 -0.65625 3.8125 -0.765625 L 3.828125 0.09375 L 5.25 -0.015625 L 5.25 -0.3125 L 5.109375 -0.3125 C 4.78125 -0.3125 4.484375 -0.34375 4.484375 -0.78125 L 4.484375 -4.34375 L 3.03125 -4.25 L 3.03125 -3.9375 L 3.171875 -3.9375 C 3.5 -3.9375 3.796875 -3.90625 3.796875 -3.453125 L 3.796875 -1.65625 C 3.796875 -0.9375 3.421875 -0.125 2.609375 -0.125 C 2.0625 -0.125 1.765625 -0.265625 1.765625 -1.3125 L 1.765625 -4.34375 Z M 1.765625 -6.484375 C 1.484375 -6.484375 1.3125 -6.1875 1.3125 -5.96875 C 1.3125 -5.6875 1.546875 -5.453125 1.84375 -5.453125 L 1.90625 -5.453125 C 2.15625 -5.5 2.359375 -5.734375 2.359375 -5.96875 C 2.359375 -6.234375 2.125 -6.5 1.84375 -6.5 C 1.8125 -6.5 1.796875 -6.484375 1.765625 -6.484375 Z M 3.65625 -6.484375 C 3.421875 -6.453125 3.21875 -6.234375 3.21875 -5.96875 C 3.21875 -5.6875 3.453125 -5.453125 3.734375 -5.453125 C 4.03125 -5.453125 4.265625 -5.6875 4.265625 -5.96875 C 4.265625 -6.25 4.03125 -6.5 3.734375 -6.5 C 3.71875 -6.5 3.6875 -6.484375 3.65625 -6.484375 Z M 3.65625 -6.484375 "/>
</g>
<g id="glyph-0-25">
<path d="M 0.265625 -6.734375 L 0.265625 -6.421875 L 0.4375 -6.421875 C 0.75 -6.421875 1.03125 -6.390625 1.03125 -5.921875 L 1.03125 -0.9375 C 1.03125 -0.875 1.046875 -0.8125 1.046875 -0.734375 C 1.046875 -0.359375 0.78125 -0.3125 0.5 -0.3125 L 0.265625 -0.3125 L 0.265625 -0.015625 L 2.4375 -0.015625 L 2.4375 -0.3125 L 2.203125 -0.3125 C 1.90625 -0.3125 1.65625 -0.359375 1.65625 -0.734375 L 1.65625 -1.640625 C 1.65625 -1.84375 2.0625 -2.125 2.296875 -2.296875 C 2.375 -2.140625 2.515625 -1.984375 2.625 -1.828125 C 2.859375 -1.5 3.09375 -1.1875 3.3125 -0.859375 C 3.359375 -0.78125 3.453125 -0.65625 3.453125 -0.53125 C 3.453125 -0.359375 3.25 -0.3125 3.09375 -0.3125 L 3.09375 -0.015625 L 5.03125 -0.015625 L 5.03125 -0.3125 C 4.859375 -0.3125 4.671875 -0.3125 4.515625 -0.390625 C 4.296875 -0.515625 4.140625 -0.765625 4 -0.96875 C 3.75 -1.3125 3.5 -1.65625 3.25 -2.015625 L 2.890625 -2.515625 C 2.859375 -2.5625 2.78125 -2.640625 2.78125 -2.6875 L 2.78125 -2.703125 C 2.78125 -2.78125 3.078125 -3 3.21875 -3.09375 C 3.671875 -3.5 4.1875 -3.9375 4.8125 -3.9375 L 4.8125 -4.25 L 3.015625 -4.25 L 3.015625 -3.9375 C 3.171875 -3.9375 3.296875 -3.828125 3.296875 -3.6875 C 3.296875 -3.390625 2.828125 -3.09375 2.5625 -2.890625 C 2.28125 -2.625 1.984375 -2.375 1.6875 -2.125 L 1.6875 -6.84375 Z M 0.265625 -6.734375 "/>
</g>
<g id="glyph-0-26">
<path d="M 0.171875 -4.25 L 0.171875 -3.9375 L 0.328125 -3.9375 C 0.84375 -3.9375 0.859375 -3.71875 1.109375 -3.015625 C 1.34375 -2.34375 1.609375 -1.65625 1.84375 -0.984375 L 2.140625 -0.15625 C 2.171875 -0.046875 2.203125 0.09375 2.34375 0.09375 L 2.359375 0.09375 C 2.578125 0.09375 2.71875 -0.5625 2.84375 -0.890625 C 3.015625 -1.40625 3.203125 -1.921875 3.40625 -2.453125 C 3.453125 -2.59375 3.515625 -2.734375 3.546875 -2.859375 C 3.578125 -2.734375 3.640625 -2.59375 3.6875 -2.453125 L 3.984375 -1.65625 C 4.15625 -1.140625 4.34375 -0.640625 4.53125 -0.125 C 4.5625 -0.015625 4.609375 0.09375 4.75 0.09375 C 4.96875 0.09375 5.125 -0.59375 5.25 -0.953125 L 5.8125 -2.515625 C 6.03125 -3.140625 6.171875 -3.9375 6.921875 -3.9375 L 6.921875 -4.25 L 5.296875 -4.25 L 5.296875 -3.9375 C 5.546875 -3.921875 5.828125 -3.796875 5.859375 -3.515625 C 5.859375 -3.234375 5.6875 -2.921875 5.59375 -2.671875 C 5.4375 -2.25 5.296875 -1.828125 5.140625 -1.390625 C 5.0625 -1.1875 4.96875 -0.96875 4.921875 -0.765625 L 4.90625 -0.765625 C 4.859375 -1 4.734375 -1.296875 4.640625 -1.53125 C 4.40625 -2.171875 4.171875 -2.8125 3.953125 -3.453125 C 3.921875 -3.53125 3.890625 -3.609375 3.890625 -3.6875 L 3.890625 -3.71875 C 3.953125 -3.9375 4.265625 -3.9375 4.46875 -3.9375 L 4.46875 -4.25 L 2.5625 -4.25 L 2.5625 -3.9375 L 2.734375 -3.9375 C 3.125 -3.9375 3.203125 -3.796875 3.34375 -3.453125 C 3.359375 -3.390625 3.40625 -3.296875 3.40625 -3.21875 C 3.390625 -3.125 3.34375 -3.03125 3.3125 -2.953125 L 2.75 -1.390625 C 2.703125 -1.21875 2.640625 -1.046875 2.578125 -0.890625 C 2.46875 -1.15625 2.375 -1.4375 2.28125 -1.703125 C 2.140625 -2.125 1.984375 -2.546875 1.828125 -2.96875 L 1.65625 -3.46875 C 1.640625 -3.53125 1.59375 -3.609375 1.59375 -3.671875 C 1.59375 -3.921875 1.953125 -3.9375 2.171875 -3.9375 L 2.171875 -4.25 Z M 0.171875 -4.25 "/>
</g>
<g id="glyph-1-0">
<path d="M 9.109375 -5.96875 C 9.203125 -6.3125 9.21875 -6.421875 9.96875 -6.421875 C 10.1875 -6.421875 10.28125 -6.421875 10.28125 -6.609375 C 10.28125 -6.71875 10.171875 -6.71875 10.015625 -6.71875 L 8.71875 -6.71875 C 8.453125 -6.71875 8.453125 -6.71875 8.328125 -6.53125 L 4.734375 -0.921875 L 3.96875 -6.5 C 3.9375 -6.71875 3.921875 -6.71875 3.65625 -6.71875 L 2.3125 -6.71875 C 2.125 -6.71875 2.015625 -6.71875 2.015625 -6.53125 C 2.015625 -6.421875 2.109375 -6.421875 2.296875 -6.421875 C 2.4375 -6.421875 2.609375 -6.40625 2.734375 -6.40625 C 2.890625 -6.375 2.9375 -6.34375 2.9375 -6.234375 C 2.9375 -6.203125 2.9375 -6.171875 2.90625 -6.046875 L 1.65625 -1.046875 C 1.5625 -0.65625 1.390625 -0.328125 0.59375 -0.3125 C 0.546875 -0.3125 0.40625 -0.296875 0.40625 -0.125 C 0.40625 -0.03125 0.46875 0 0.546875 0 C 0.859375 0 1.203125 -0.03125 1.53125 -0.03125 C 1.875 -0.03125 2.21875 0 2.546875 0 C 2.59375 0 2.734375 0 2.734375 -0.203125 C 2.734375 -0.3125 2.625 -0.3125 2.546875 -0.3125 C 1.984375 -0.3125 1.875 -0.515625 1.875 -0.734375 C 1.875 -0.8125 1.890625 -0.859375 1.921875 -0.96875 L 3.265625 -6.328125 L 4.109375 -0.21875 C 4.140625 -0.109375 4.140625 0 4.265625 0 C 4.375 0 4.4375 -0.109375 4.484375 -0.171875 L 8.453125 -6.40625 L 8.46875 -6.40625 L 7.0625 -0.765625 C 6.953125 -0.390625 6.9375 -0.3125 6.15625 -0.3125 C 6 -0.3125 5.890625 -0.3125 5.890625 -0.125 C 5.890625 0 6 0 6.03125 0 C 6.3125 0 6.984375 -0.03125 7.25 -0.03125 C 7.65625 -0.03125 8.078125 0 8.484375 0 C 8.546875 0 8.671875 0 8.671875 -0.203125 C 8.671875 -0.3125 8.578125 -0.3125 8.390625 -0.3125 C 8.03125 -0.3125 7.75 -0.3125 7.75 -0.484375 C 7.75 -0.515625 7.75 -0.546875 7.8125 -0.71875 Z M 9.109375 -5.96875 "/>
</g>
<g id="glyph-1-1">
<path d="M 3.609375 -3.9375 L 4.453125 -3.9375 C 4.65625 -3.9375 4.75 -3.9375 4.75 -4.140625 C 4.75 -4.25 4.65625 -4.25 4.484375 -4.25 L 3.671875 -4.25 L 3.875 -5.359375 C 3.921875 -5.578125 4.0625 -6.265625 4.109375 -6.390625 C 4.203125 -6.578125 4.375 -6.71875 4.578125 -6.71875 C 4.609375 -6.71875 4.875 -6.71875 5.0625 -6.546875 C 4.625 -6.5 4.53125 -6.15625 4.53125 -6.015625 C 4.53125 -5.78125 4.703125 -5.671875 4.890625 -5.671875 C 5.140625 -5.671875 5.4375 -5.890625 5.4375 -6.265625 C 5.4375 -6.71875 4.984375 -6.9375 4.578125 -6.9375 C 4.25 -6.9375 3.625 -6.765625 3.328125 -5.78125 C 3.265625 -5.578125 3.234375 -5.484375 3 -4.25 L 2.328125 -4.25 C 2.140625 -4.25 2.03125 -4.25 2.03125 -4.0625 C 2.03125 -3.9375 2.109375 -3.9375 2.296875 -3.9375 L 2.953125 -3.9375 L 2.21875 -0.046875 C 2.03125 0.90625 1.875 1.796875 1.359375 1.796875 C 1.3125 1.796875 1.078125 1.796875 0.890625 1.625 C 1.34375 1.59375 1.421875 1.234375 1.421875 1.09375 C 1.421875 0.859375 1.25 0.75 1.0625 0.75 C 0.8125 0.75 0.515625 0.96875 0.515625 1.34375 C 0.515625 1.78125 0.953125 2.015625 1.359375 2.015625 C 1.90625 2.015625 2.296875 1.4375 2.46875 1.0625 C 2.78125 0.4375 3.015625 -0.75 3.015625 -0.8125 Z M 3.609375 -3.9375 "/>
</g>
<g id="glyph-1-2">
<path d="M 1.5625 -0.765625 C 1.46875 -0.390625 1.453125 -0.3125 0.671875 -0.3125 C 0.5 -0.3125 0.390625 -0.3125 0.390625 -0.125 C 0.390625 0 0.484375 0 0.671875 0 L 3.921875 0 C 5.96875 0 7.921875 -2.078125 7.921875 -4.234375 C 7.921875 -5.625 7.078125 -6.71875 5.59375 -6.71875 L 2.296875 -6.71875 C 2.109375 -6.71875 2 -6.71875 2 -6.53125 C 2 -6.421875 2.09375 -6.421875 2.28125 -6.421875 C 2.40625 -6.421875 2.59375 -6.40625 2.703125 -6.40625 C 2.859375 -6.375 2.921875 -6.34375 2.921875 -6.234375 C 2.921875 -6.203125 2.90625 -6.171875 2.890625 -6.046875 Z M 3.6875 -6.046875 C 3.78125 -6.390625 3.796875 -6.421875 4.21875 -6.421875 L 5.28125 -6.421875 C 6.234375 -6.421875 7.0625 -5.890625 7.0625 -4.59375 C 7.0625 -4.109375 6.859375 -2.5 6.03125 -1.421875 C 5.734375 -1.046875 4.96875 -0.3125 3.75 -0.3125 L 2.640625 -0.3125 C 2.5 -0.3125 2.484375 -0.3125 2.421875 -0.3125 C 2.328125 -0.328125 2.296875 -0.328125 2.296875 -0.40625 C 2.296875 -0.4375 2.296875 -0.46875 2.34375 -0.640625 Z M 3.6875 -6.046875 "/>
</g>
<g id="glyph-1-3">
<path d="M 2 -0.015625 C 2 -0.65625 1.75 -1.046875 1.375 -1.046875 C 1.046875 -1.046875 0.84375 -0.796875 0.84375 -0.515625 C 0.84375 -0.25 1.046875 0 1.375 0 C 1.484375 0 1.609375 -0.046875 1.71875 -0.125 C 1.75 -0.140625 1.75 -0.15625 1.765625 -0.15625 C 1.765625 -0.15625 1.78125 -0.140625 1.78125 -0.015625 C 1.78125 0.71875 1.4375 1.3125 1.109375 1.640625 C 1 1.75 1 1.765625 1 1.796875 C 1 1.859375 1.046875 1.90625 1.109375 1.90625 C 1.203125 1.90625 2 1.140625 2 -0.015625 Z M 2 -0.015625 "/>
</g>
<g id="glyph-1-4">
<path d="M 1.890625 -0.515625 C 1.890625 -0.8125 1.65625 -1.046875 1.375 -1.046875 C 1.078125 -1.046875 0.84375 -0.8125 0.84375 -0.515625 C 0.84375 -0.234375 1.078125 0 1.375 0 C 1.65625 0 1.890625 -0.234375 1.890625 -0.515625 Z M 1.890625 -0.515625 "/>
</g>
<g id="glyph-2-0">
<path d="M 6.484375 -5.859375 C 6.65625 -5.859375 6.828125 -5.859375 6.828125 -6.0625 C 6.828125 -6.265625 6.65625 -6.265625 6.484375 -6.265625 L 3.84375 -6.265625 C 2.140625 -6.265625 0.8125 -4.96875 0.8125 -3.421875 C 0.8125 -1.828125 2.171875 -0.5625 3.84375 -0.5625 L 6.484375 -0.5625 C 6.65625 -0.5625 6.828125 -0.5625 6.828125 -0.765625 C 6.828125 -0.953125 6.65625 -0.953125 6.484375 -0.953125 L 3.859375 -0.953125 C 2.296875 -0.953125 1.203125 -2.109375 1.203125 -3.40625 C 1.203125 -4.75 2.328125 -5.859375 3.859375 -5.859375 Z M 1.359375 0.953125 C 1.1875 0.953125 1.015625 0.953125 1.015625 1.15625 C 1.015625 1.34375 1.1875 1.34375 1.359375 1.34375 L 6.484375 1.34375 C 6.65625 1.34375 6.828125 1.34375 6.828125 1.15625 C 6.828125 0.953125 6.65625 0.953125 6.484375 0.953125 Z M 1.359375 0.953125 "/>
</g>
<g id="glyph-2-1">
<path d="M 8.203125 -2.265625 C 7.671875 -1.84375 7.40625 -1.453125 7.328125 -1.3125 C 6.875 -0.640625 6.796875 -0.015625 6.796875 -0.015625 C 6.796875 0.109375 6.921875 0.109375 7 0.109375 C 7.171875 0.109375 7.171875 0.09375 7.21875 -0.09375 C 7.4375 -1.046875 8.015625 -1.875 9.140625 -2.328125 C 9.25 -2.375 9.28125 -2.390625 9.28125 -2.46875 C 9.28125 -2.53125 9.21875 -2.5625 9.203125 -2.5625 C 8.765625 -2.734375 7.578125 -3.234375 7.203125 -4.875 C 7.171875 -5 7.171875 -5.03125 7 -5.03125 C 6.921875 -5.03125 6.796875 -5.03125 6.796875 -4.90625 C 6.796875 -4.890625 6.890625 -4.265625 7.296875 -3.609375 C 7.5 -3.3125 7.78125 -2.96875 8.203125 -2.65625 L 0.890625 -2.65625 C 0.71875 -2.65625 0.546875 -2.65625 0.546875 -2.46875 C 0.546875 -2.265625 0.71875 -2.265625 0.890625 -2.265625 Z M 8.203125 -2.265625 "/>
</g>
<g id="glyph-3-0">
<path d="M 2.640625 -3.09375 L 3 -3.09375 L 4.46875 -0.8125 C 4.5625 -0.65625 4.796875 -0.265625 4.90625 -0.125 C 4.984375 0 5.015625 0 5.234375 0 L 6.59375 0 C 6.765625 0 6.921875 0 6.921875 -0.171875 C 6.921875 -0.25 6.859375 -0.328125 6.765625 -0.34375 C 6.40625 -0.421875 5.921875 -1.078125 5.6875 -1.390625 C 5.625 -1.484375 5.125 -2.140625 4.46875 -3.203125 C 5.34375 -3.359375 6.1875 -3.734375 6.1875 -4.90625 C 6.1875 -6.265625 4.75 -6.75 3.578125 -6.75 L 0.5 -6.75 C 0.3125 -6.75 0.15625 -6.75 0.15625 -6.5625 C 0.15625 -6.40625 0.34375 -6.40625 0.421875 -6.40625 C 0.984375 -6.40625 1.03125 -6.328125 1.03125 -5.84375 L 1.03125 -0.90625 C 1.03125 -0.40625 0.984375 -0.34375 0.421875 -0.34375 C 0.34375 -0.34375 0.15625 -0.34375 0.15625 -0.171875 C 0.15625 0 0.3125 0 0.5 0 L 3.1875 0 C 3.359375 0 3.515625 0 3.515625 -0.171875 C 3.515625 -0.34375 3.34375 -0.34375 3.234375 -0.34375 C 2.671875 -0.34375 2.640625 -0.421875 2.640625 -0.90625 Z M 4.53125 -3.578125 C 4.8125 -3.9375 4.84375 -4.453125 4.84375 -4.890625 C 4.84375 -5.359375 4.78125 -5.890625 4.46875 -6.296875 C 4.875 -6.203125 5.84375 -5.890625 5.84375 -4.90625 C 5.84375 -4.265625 5.546875 -3.765625 4.53125 -3.578125 Z M 2.640625 -5.859375 C 2.640625 -6.078125 2.640625 -6.40625 3.25 -6.40625 C 4.078125 -6.40625 4.5 -6.046875 4.5 -4.890625 C 4.5 -3.625 4.1875 -3.4375 2.640625 -3.4375 Z M 1.296875 -0.34375 C 1.375 -0.515625 1.375 -0.796875 1.375 -0.890625 L 1.375 -5.859375 C 1.375 -5.953125 1.375 -6.21875 1.296875 -6.40625 L 2.421875 -6.40625 C 2.296875 -6.234375 2.296875 -6.046875 2.296875 -5.890625 L 2.296875 -0.890625 C 2.296875 -0.78125 2.296875 -0.515625 2.375 -0.34375 Z M 3.390625 -3.09375 C 3.46875 -3.09375 3.5 -3.109375 3.578125 -3.109375 C 3.734375 -3.109375 3.953125 -3.125 4.09375 -3.15625 C 4.25 -2.90625 5.3125 -1.15625 6.125 -0.34375 L 5.171875 -0.34375 Z M 3.390625 -3.09375 "/>
</g>
<g id="glyph-4-0">
<path d="M 0.84375 -0.4375 C 0.8125 -0.34375 0.765625 -0.171875 0.765625 -0.15625 C 0.765625 0 0.890625 0.0625 1 0.0625 C 1.125 0.0625 1.234375 -0.015625 1.28125 -0.078125 C 1.3125 -0.140625 1.359375 -0.359375 1.40625 -0.515625 C 1.4375 -0.640625 1.515625 -0.953125 1.546875 -1.125 C 1.59375 -1.28125 1.640625 -1.4375 1.671875 -1.59375 C 1.75 -1.875 1.75 -1.921875 1.953125 -2.21875 C 2.15625 -2.484375 2.46875 -2.84375 2.984375 -2.84375 C 3.390625 -2.84375 3.390625 -2.5 3.390625 -2.359375 C 3.390625 -1.953125 3.09375 -1.1875 2.984375 -0.890625 C 2.921875 -0.703125 2.890625 -0.640625 2.890625 -0.53125 C 2.890625 -0.15625 3.1875 0.0625 3.546875 0.0625 C 4.234375 0.0625 4.53125 -0.875 4.53125 -0.984375 C 4.53125 -1.078125 4.4375 -1.078125 4.421875 -1.078125 C 4.328125 -1.078125 4.328125 -1.03125 4.296875 -0.953125 C 4.140625 -0.40625 3.84375 -0.125 3.5625 -0.125 C 3.421875 -0.125 3.390625 -0.21875 3.390625 -0.359375 C 3.390625 -0.53125 3.421875 -0.609375 3.546875 -0.921875 C 3.625 -1.140625 3.90625 -1.875 3.90625 -2.25 C 3.90625 -2.921875 3.390625 -3.03125 3.015625 -3.03125 C 2.453125 -3.03125 2.0625 -2.6875 1.859375 -2.40625 C 1.8125 -2.890625 1.40625 -3.03125 1.109375 -3.03125 C 0.8125 -3.03125 0.65625 -2.828125 0.578125 -2.671875 C 0.421875 -2.40625 0.328125 -2.015625 0.328125 -1.984375 C 0.328125 -1.890625 0.421875 -1.890625 0.4375 -1.890625 C 0.53125 -1.890625 0.546875 -1.921875 0.59375 -2.109375 C 0.703125 -2.515625 0.828125 -2.84375 1.09375 -2.84375 C 1.28125 -2.84375 1.328125 -2.6875 1.328125 -2.515625 C 1.328125 -2.375 1.265625 -2.125 1.21875 -1.9375 C 1.171875 -1.75 1.09375 -1.46875 1.0625 -1.3125 Z M 0.84375 -0.4375 "/>
</g>
<g id="glyph-4-1">
<path d="M 2.984375 -0.5625 C 2.953125 -0.421875 2.890625 -0.1875 2.890625 -0.15625 C 2.890625 0 3.015625 0.0625 3.125 0.0625 C 3.25 0.0625 3.359375 -0.015625 3.390625 -0.078125 C 3.4375 -0.140625 3.484375 -0.359375 3.515625 -0.515625 C 3.5625 -0.640625 3.625 -0.953125 3.671875 -1.125 C 3.71875 -1.28125 3.75 -1.4375 3.796875 -1.59375 C 3.859375 -1.890625 3.859375 -1.90625 4 -2.109375 C 4.21875 -2.453125 4.5625 -2.84375 5.109375 -2.84375 C 5.484375 -2.84375 5.515625 -2.53125 5.515625 -2.359375 C 5.515625 -1.953125 5.21875 -1.1875 5.109375 -0.890625 C 5.03125 -0.703125 5 -0.640625 5 -0.53125 C 5 -0.15625 5.3125 0.0625 5.65625 0.0625 C 6.34375 0.0625 6.65625 -0.875 6.65625 -0.984375 C 6.65625 -1.078125 6.5625 -1.078125 6.546875 -1.078125 C 6.4375 -1.078125 6.4375 -1.03125 6.40625 -0.953125 C 6.25 -0.40625 5.953125 -0.125 5.671875 -0.125 C 5.53125 -0.125 5.5 -0.21875 5.5 -0.359375 C 5.5 -0.53125 5.546875 -0.609375 5.65625 -0.921875 C 5.75 -1.140625 6.03125 -1.875 6.03125 -2.25 C 6.03125 -2.359375 6.03125 -2.65625 5.78125 -2.859375 C 5.65625 -2.9375 5.453125 -3.03125 5.140625 -3.03125 C 4.515625 -3.03125 4.140625 -2.625 3.90625 -2.34375 C 3.859375 -2.921875 3.375 -3.03125 3.015625 -3.03125 C 2.453125 -3.03125 2.0625 -2.6875 1.859375 -2.40625 C 1.8125 -2.890625 1.40625 -3.03125 1.109375 -3.03125 C 0.8125 -3.03125 0.65625 -2.828125 0.578125 -2.671875 C 0.421875 -2.40625 0.328125 -2.015625 0.328125 -1.984375 C 0.328125 -1.890625 0.421875 -1.890625 0.4375 -1.890625 C 0.53125 -1.890625 0.546875 -1.921875 0.59375 -2.109375 C 0.703125 -2.515625 0.828125 -2.84375 1.09375 -2.84375 C 1.28125 -2.84375 1.328125 -2.6875 1.328125 -2.515625 C 1.328125 -2.375 1.265625 -2.125 1.21875 -1.9375 C 1.171875 -1.75 1.09375 -1.46875 1.0625 -1.3125 L 0.84375 -0.4375 C 0.8125 -0.34375 0.765625 -0.171875 0.765625 -0.15625 C 0.765625 0 0.890625 0.0625 1 0.0625 C 1.125 0.0625 1.234375 -0.015625 1.28125 -0.078125 C 1.3125 -0.140625 1.359375 -0.359375 1.40625 -0.515625 C 1.4375 -0.640625 1.515625 -0.953125 1.546875 -1.125 C 1.59375 -1.28125 1.640625 -1.4375 1.671875 -1.59375 C 1.75 -1.875 1.75 -1.921875 1.953125 -2.21875 C 2.15625 -2.484375 2.46875 -2.84375 2.984375 -2.84375 C 3.390625 -2.84375 3.390625 -2.5 3.390625 -2.359375 C 3.390625 -2.1875 3.375 -2.109375 3.28125 -1.71875 Z M 2.984375 -0.5625 "/>
</g>
<g id="glyph-5-0">
<path d="M 1.890625 -3.71875 C 1.890625 -4 1.65625 -4.25 1.375 -4.25 C 1.078125 -4.25 0.84375 -4 0.84375 -3.71875 C 0.84375 -3.4375 1.078125 -3.203125 1.375 -3.203125 C 1.65625 -3.203125 1.890625 -3.4375 1.890625 -3.71875 Z M 1.890625 -0.515625 C 1.890625 -0.8125 1.65625 -1.046875 1.375 -1.046875 C 1.078125 -1.046875 0.84375 -0.8125 0.84375 -0.515625 C 0.84375 -0.234375 1.078125 0 1.375 0 C 1.65625 0 1.890625 -0.234375 1.890625 -0.515625 Z M 1.890625 -0.515625 "/>
</g>
<g id="glyph-5-1">
<path d="M 6.765625 -3.21875 C 6.90625 -3.21875 7.09375 -3.21875 7.09375 -3.421875 C 7.09375 -3.609375 6.90625 -3.609375 6.765625 -3.609375 L 0.875 -3.609375 C 0.734375 -3.609375 0.546875 -3.609375 0.546875 -3.421875 C 0.546875 -3.21875 0.734375 -3.21875 0.890625 -3.21875 Z M 6.765625 -1.3125 C 6.90625 -1.3125 7.09375 -1.3125 7.09375 -1.5 C 7.09375 -1.703125 6.90625 -1.703125 6.765625 -1.703125 L 0.890625 -1.703125 C 0.734375 -1.703125 0.546875 -1.703125 0.546875 -1.5 C 0.546875 -1.3125 0.734375 -1.3125 0.875 -1.3125 Z M 6.765625 -1.3125 "/>
</g>
<g id="glyph-5-2">
<path d="M 3.265625 2.359375 C 3.265625 2.328125 3.265625 2.3125 3.09375 2.140625 C 1.859375 0.90625 1.546875 -0.953125 1.546875 -2.46875 C 1.546875 -4.171875 1.921875 -5.890625 3.125 -7.109375 C 3.265625 -7.234375 3.265625 -7.25 3.265625 -7.28125 C 3.265625 -7.359375 3.21875 -7.390625 3.15625 -7.390625 C 3.0625 -7.390625 2.171875 -6.71875 1.59375 -5.46875 C 1.09375 -4.375 0.96875 -3.28125 0.96875 -2.46875 C 0.96875 -1.6875 1.078125 -0.5 1.625 0.609375 C 2.21875 1.828125 3.0625 2.46875 3.15625 2.46875 C 3.21875 2.46875 3.265625 2.4375 3.265625 2.359375 Z M 3.265625 2.359375 "/>
</g>
<g id="glyph-5-3">
<path d="M 2.84375 -2.46875 C 2.84375 -3.234375 2.734375 -4.421875 2.1875 -5.53125 C 1.609375 -6.75 0.765625 -7.390625 0.65625 -7.390625 C 0.59375 -7.390625 0.5625 -7.34375 0.5625 -7.28125 C 0.5625 -7.25 0.5625 -7.234375 0.75 -7.0625 C 1.71875 -6.078125 2.28125 -4.515625 2.28125 -2.46875 C 2.28125 -0.78125 1.90625 0.953125 0.6875 2.1875 C 0.5625 2.3125 0.5625 2.328125 0.5625 2.359375 C 0.5625 2.421875 0.59375 2.46875 0.65625 2.46875 C 0.765625 2.46875 1.640625 1.796875 2.21875 0.546875 C 2.734375 -0.546875 2.84375 -1.640625 2.84375 -2.46875 Z M 2.84375 -2.46875 "/>
</g>
<g id="glyph-6-0">
<path d="M 2.3125 -4.375 C 2.3125 -4.5625 2.296875 -4.578125 2.109375 -4.578125 C 1.65625 -4.140625 1.03125 -4.140625 0.75 -4.140625 L 0.75 -3.890625 C 0.921875 -3.890625 1.375 -3.890625 1.75 -4.078125 L 1.75 -0.5625 C 1.75 -0.34375 1.75 -0.25 1.0625 -0.25 L 0.796875 -0.25 L 0.796875 0 C 0.921875 0 1.765625 -0.03125 2.03125 -0.03125 C 2.234375 -0.03125 3.109375 0 3.265625 0 L 3.265625 -0.25 L 3 -0.25 C 2.3125 -0.25 2.3125 -0.34375 2.3125 -0.5625 Z M 2.3125 -4.375 "/>
</g>
</g>
</defs>
<g fill="rgb(0%, 0%, 0%)" fill-opacity="1">
<use xlink:href="#glyph-0-0" x="11.187706" y="16.676382"/>
<use xlink:href="#glyph-0-1" x="16.653865" y="16.676382"/>
<use xlink:href="#glyph-0-2" x="21.026595" y="16.676382"/>
</g>
<g fill="rgb(0%, 0%, 0%)" fill-opacity="1">
<use xlink:href="#glyph-1-0" x="29.98956" y="16.676382"/>
</g>
<g fill="rgb(0%, 0%, 0%)" fill-opacity="1">
<use xlink:href="#glyph-2-0" x="48.247159" y="16.676382"/>
</g>
<g fill="rgb(0%, 0%, 0%)" fill-opacity="1">
<use xlink:href="#glyph-3-0" x="63.549254" y="16.676382"/>
</g>
<g fill="rgb(0%, 0%, 0%)" fill-opacity="1">
<use xlink:href="#glyph-4-0" x="70.657021" y="13.1052"/>
</g>
<g fill="rgb(0%, 0%, 0%)" fill-opacity="1">
<use xlink:href="#glyph-0-3" x="82.238912" y="16.676382"/>
<use xlink:href="#glyph-0-4" x="87.158849" y="16.676382"/>
<use xlink:href="#glyph-0-1" x="92.89861" y="16.676382"/>
<use xlink:href="#glyph-0-5" x="97.27134" y="16.676382"/>
</g>
<g fill="rgb(0%, 0%, 0%)" fill-opacity="1">
<use xlink:href="#glyph-0-6" x="108.967384" y="16.676382"/>
<use xlink:href="#glyph-0-5" x="114.433543" y="16.676382"/>
<use xlink:href="#glyph-0-7" x="119.899702" y="16.676382"/>
</g>
<g fill="rgb(0%, 0%, 0%)" fill-opacity="1">
<use xlink:href="#glyph-1-1" x="131.585904" y="16.676382"/>
</g>
<g fill="rgb(0%, 0%, 0%)" fill-opacity="1">
<use xlink:href="#glyph-5-0" x="145.104657" y="16.676382"/>
</g>
<g fill="rgb(0%, 0%, 0%)" fill-opacity="1">
<use xlink:href="#glyph-1-0" x="155.485831" y="16.676382"/>
</g>
<g fill="rgb(0%, 0%, 0%)" fill-opacity="1">
<use xlink:href="#glyph-2-1" x="173.753273" y="16.676382"/>
</g>
<g fill="rgb(0%, 0%, 0%)" fill-opacity="1">
<use xlink:href="#glyph-3-0" x="191.242224" y="16.676382"/>
</g>
<g fill="rgb(0%, 0%, 0%)" fill-opacity="1">
<use xlink:href="#glyph-0-8" x="204.570046" y="16.676382"/>
<use xlink:href="#glyph-0-9" x="210.036204" y="16.676382"/>
<use xlink:href="#glyph-0-10" x="214.956141" y="16.676382"/>
<use xlink:href="#glyph-0-11" x="218.810206" y="16.676382"/>
<use xlink:href="#glyph-0-2" x="222.636714" y="16.676382"/>
<use xlink:href="#glyph-0-1" x="225.369793" y="16.676382"/>
<use xlink:href="#glyph-0-12" x="229.742523" y="16.676382"/>
<use xlink:href="#glyph-0-12" x="232.475602" y="16.676382"/>
</g>
<g fill="rgb(0%, 0%, 0%)" fill-opacity="1">
<use xlink:href="#glyph-0-7" x="11.187706" y="28.486473"/>
<use xlink:href="#glyph-0-2" x="16.653865" y="28.486473"/>
<use xlink:href="#glyph-0-4" x="19.386944" y="28.486473"/>
<use xlink:href="#glyph-0-1" x="25.126706" y="28.486473"/>
<use xlink:href="#glyph-0-10" x="29.499436" y="28.486473"/>
<use xlink:href="#glyph-0-1" x="33.353501" y="28.486473"/>
<use xlink:href="#glyph-0-5" x="37.726231" y="28.486473"/>
<use xlink:href="#glyph-0-13" x="43.192389" y="28.486473"/>
<use xlink:href="#glyph-0-2" x="47.56512" y="28.486473"/>
<use xlink:href="#glyph-0-1" x="50.298199" y="28.486473"/>
<use xlink:href="#glyph-0-10" x="54.670929" y="28.486473"/>
<use xlink:href="#glyph-0-14" x="58.524994" y="28.486473"/>
<use xlink:href="#glyph-0-9" x="63.991153" y="28.486473"/>
<use xlink:href="#glyph-0-10" x="68.911089" y="28.486473"/>
</g>
<g fill="rgb(0%, 0%, 0%)" fill-opacity="1">
<use xlink:href="#glyph-0-15" x="78.168325" y="28.486473"/>
<use xlink:href="#glyph-0-2" x="86.367563" y="28.486473"/>
<use xlink:href="#glyph-0-11" x="89.100642" y="28.486473"/>
</g>
<g fill="rgb(0%, 0%, 0%)" fill-opacity="1">
<use xlink:href="#glyph-0-16" x="98.330321" y="28.486473"/>
<use xlink:href="#glyph-0-11" x="102.210959" y="28.486473"/>
<use xlink:href="#glyph-0-1" x="106.037467" y="28.486473"/>
<use xlink:href="#glyph-0-11" x="110.410197" y="28.486473"/>
<use xlink:href="#glyph-0-2" x="114.236704" y="28.486473"/>
<use xlink:href="#glyph-0-17" x="116.969784" y="28.486473"/>
<use xlink:href="#glyph-0-1" x="121.88972" y="28.486473"/>
<use xlink:href="#glyph-0-5" x="126.26245" y="28.486473"/>
</g>
<g fill="rgb(0%, 0%, 0%)" fill-opacity="1">
<use xlink:href="#glyph-0-8" x="137.13178" y="28.486473"/>
<use xlink:href="#glyph-0-9" x="142.597938" y="28.486473"/>
<use xlink:href="#glyph-0-10" x="147.517875" y="28.486473"/>
</g>
<g fill="rgb(0%, 0%, 0%)" fill-opacity="1">
<use xlink:href="#glyph-0-11" x="151.362098" y="28.486473"/>
<use xlink:href="#glyph-0-2" x="155.188606" y="28.486473"/>
<use xlink:href="#glyph-0-1" x="157.921685" y="28.486473"/>
</g>
<g fill="rgb(0%, 0%, 0%)" fill-opacity="1">
<use xlink:href="#glyph-0-12" x="162.304257" y="28.486473"/>
<use xlink:href="#glyph-0-12" x="165.037336" y="28.486473"/>
<use xlink:href="#glyph-0-1" x="167.770416" y="28.486473"/>
<use xlink:href="#glyph-0-5" x="172.143146" y="28.486473"/>
</g>
<g fill="rgb(0%, 0%, 0%)" fill-opacity="1">
<use xlink:href="#glyph-0-18" x="183.002633" y="28.486473"/>
<use xlink:href="#glyph-0-14" x="190.382046" y="28.486473"/>
<use xlink:href="#glyph-0-12" x="195.848204" y="28.486473"/>
<use xlink:href="#glyph-0-1" x="198.581284" y="28.486473"/>
<use xlink:href="#glyph-0-2" x="202.954014" y="28.486473"/>
<use xlink:href="#glyph-0-11" x="205.687093" y="28.486473"/>
<use xlink:href="#glyph-0-6" x="209.513601" y="28.486473"/>
<use xlink:href="#glyph-0-5" x="214.979759" y="28.486473"/>
<use xlink:href="#glyph-0-17" x="220.445918" y="28.486473"/>
<use xlink:href="#glyph-0-1" x="225.365855" y="28.486473"/>
</g>
<g fill="rgb(0%, 0%, 0%)" fill-opacity="1">
<use xlink:href="#glyph-0-5" x="229.748426" y="28.486473"/>
</g>
<g fill="rgb(0%, 0%, 0%)" fill-opacity="1">
<use xlink:href="#glyph-1-2" x="11.187706" y="40.297552"/>
</g>
<g fill="rgb(0%, 0%, 0%)" fill-opacity="1">
<use xlink:href="#glyph-6-0" x="19.33573" y="41.773442"/>
</g>
<g fill="rgb(0%, 0%, 0%)" fill-opacity="1">
<use xlink:href="#glyph-1-1" x="23.750561" y="40.297552"/>
</g>
<g fill="rgb(0%, 0%, 0%)" fill-opacity="1">
<use xlink:href="#glyph-1-3" x="29.080902" y="40.297552"/>
</g>
<g fill="rgb(0%, 0%, 0%)" fill-opacity="1">
<use xlink:href="#glyph-1-4" x="33.458553" y="40.297552"/>
</g>
<g fill="rgb(0%, 0%, 0%)" fill-opacity="1">
<use xlink:href="#glyph-1-4" x="37.826362" y="40.297552"/>
</g>
<g fill="rgb(0%, 0%, 0%)" fill-opacity="1">
<use xlink:href="#glyph-1-4" x="42.204013" y="40.297552"/>
</g>
<g fill="rgb(0%, 0%, 0%)" fill-opacity="1">
<use xlink:href="#glyph-1-3" x="46.581664" y="40.297552"/>
</g>
<g fill="rgb(0%, 0%, 0%)" fill-opacity="1">
<use xlink:href="#glyph-1-2" x="50.949473" y="40.297552"/>
</g>
<g fill="rgb(0%, 0%, 0%)" fill-opacity="1">
<use xlink:href="#glyph-4-0" x="59.100815" y="41.773442"/>
</g>
<g fill="rgb(0%, 0%, 0%)" fill-opacity="1">
<use xlink:href="#glyph-1-1" x="64.458082" y="40.297552"/>
</g>
<g fill="rgb(0%, 0%, 0%)" fill-opacity="1">
<use xlink:href="#glyph-0-19" x="70.339566" y="40.297552"/>
</g>
<g fill="rgb(0%, 0%, 0%)" fill-opacity="1">
<use xlink:href="#glyph-0-20" x="79.13522" y="40.297552"/>
<use xlink:href="#glyph-0-9" x="86.651434" y="40.297552"/>
<use xlink:href="#glyph-0-5" x="91.57137" y="40.297552"/>
<use xlink:href="#glyph-0-5" x="97.037529" y="40.297552"/>
</g>
<g fill="rgb(0%, 0%, 0%)" fill-opacity="1">
<use xlink:href="#glyph-0-2" x="108.55642" y="40.297552"/>
<use xlink:href="#glyph-0-16" x="111.289499" y="40.297552"/>
<use xlink:href="#glyph-0-11" x="115.170137" y="40.297552"/>
</g>
<g fill="rgb(0%, 0%, 0%)" fill-opacity="1">
<use xlink:href="#glyph-1-1" x="125.039535" y="40.297552"/>
</g>
<g fill="rgb(0%, 0%, 0%)" fill-opacity="1">
<use xlink:href="#glyph-0-21" x="136.973752" y="40.297552"/>
<use xlink:href="#glyph-0-11" x="140.80026" y="40.297552"/>
<use xlink:href="#glyph-0-3" x="144.626768" y="40.297552"/>
<use xlink:href="#glyph-0-11" x="149.546704" y="40.297552"/>
<use xlink:href="#glyph-0-9" x="153.373212" y="40.297552"/>
<use xlink:href="#glyph-0-12" x="158.293148" y="40.297552"/>
<use xlink:href="#glyph-0-22" x="161.026228" y="40.297552"/>
</g>
<g fill="rgb(0%, 0%, 0%)" fill-opacity="1">
<use xlink:href="#glyph-0-7" x="170.895626" y="40.297552"/>
<use xlink:href="#glyph-0-2" x="176.361785" y="40.297552"/>
<use xlink:href="#glyph-0-4" x="179.094864" y="40.297552"/>
<use xlink:href="#glyph-0-1" x="184.834626" y="40.297552"/>
<use xlink:href="#glyph-0-10" x="189.207356" y="40.297552"/>
<use xlink:href="#glyph-0-1" x="193.061421" y="40.297552"/>
<use xlink:href="#glyph-0-5" x="197.434151" y="40.297552"/>
<use xlink:href="#glyph-0-13" x="202.90031" y="40.297552"/>
<use xlink:href="#glyph-0-2" x="207.27304" y="40.297552"/>
<use xlink:href="#glyph-0-1" x="210.006119" y="40.297552"/>
<use xlink:href="#glyph-0-10" x="214.378849" y="40.297552"/>
<use xlink:href="#glyph-0-14" x="218.232914" y="40.297552"/>
<use xlink:href="#glyph-0-9" x="223.699073" y="40.297552"/>
<use xlink:href="#glyph-0-10" x="228.619009" y="40.297552"/>
<use xlink:href="#glyph-0-19" x="232.473074" y="40.297552"/>
</g>
<g fill="rgb(0%, 0%, 0%)" fill-opacity="1">
<use xlink:href="#glyph-0-18" x="11.187706" y="52.107642"/>
<use xlink:href="#glyph-0-5" x="18.567119" y="52.107642"/>
<use xlink:href="#glyph-0-9" x="24.033277" y="52.107642"/>
<use xlink:href="#glyph-0-12" x="28.953214" y="52.107642"/>
<use xlink:href="#glyph-0-3" x="31.686293" y="52.107642"/>
<use xlink:href="#glyph-0-17" x="36.606229" y="52.107642"/>
</g>
<g fill="rgb(0%, 0%, 0%)" fill-opacity="1">
<use xlink:href="#glyph-0-23" x="44.803499" y="52.107642"/>
<use xlink:href="#glyph-0-24" x="47.810181" y="52.107642"/>
<use xlink:href="#glyph-0-10" x="53.27634" y="52.107642"/>
</g>
<g fill="rgb(0%, 0%, 0%)" fill-opacity="1">
<use xlink:href="#glyph-1-1" x="60.407738" y="52.107642"/>
</g>
<g fill="rgb(0%, 0%, 0%)" fill-opacity="1">
<use xlink:href="#glyph-5-1" x="69.025254" y="52.107642"/>
</g>
<g fill="rgb(0%, 0%, 0%)" fill-opacity="1">
<use xlink:href="#glyph-5-2" x="79.41627" y="52.107642"/>
</g>
<g fill="rgb(0%, 0%, 0%)" fill-opacity="1">
<use xlink:href="#glyph-1-1" x="83.243762" y="52.107642"/>
</g>
<g fill="rgb(0%, 0%, 0%)" fill-opacity="1">
<use xlink:href="#glyph-6-0" x="88.058506" y="53.583533"/>
</g>
<g fill="rgb(0%, 0%, 0%)" fill-opacity="1">
<use xlink:href="#glyph-1-3" x="92.473336" y="52.107642"/>
</g>
<g fill="rgb(0%, 0%, 0%)" fill-opacity="1">
<use xlink:href="#glyph-1-4" x="96.850987" y="52.107642"/>
</g>
<g fill="rgb(0%, 0%, 0%)" fill-opacity="1">
<use xlink:href="#glyph-1-4" x="101.218796" y="52.107642"/>
</g>
<g fill="rgb(0%, 0%, 0%)" fill-opacity="1">
<use xlink:href="#glyph-1-4" x="105.596447" y="52.107642"/>
</g>
<g fill="rgb(0%, 0%, 0%)" fill-opacity="1">
<use xlink:href="#glyph-1-3" x="109.974098" y="52.107642"/>
</g>
<g fill="rgb(0%, 0%, 0%)" fill-opacity="1">
<use xlink:href="#glyph-1-1" x="114.341908" y="52.107642"/>
</g>
<g fill="rgb(0%, 0%, 0%)" fill-opacity="1">
<use xlink:href="#glyph-4-1" x="119.162858" y="53.583533"/>
</g>
<g fill="rgb(0%, 0%, 0%)" fill-opacity="1">
<use xlink:href="#glyph-5-3" x="126.638136" y="52.107642"/>
</g>
<g fill="rgb(0%, 0%, 0%)" fill-opacity="1">
<use xlink:href="#glyph-0-25" x="133.742962" y="52.107642"/>
</g>
<g fill="rgb(0%, 0%, 0%)" fill-opacity="1">
<use xlink:href="#glyph-0-3" x="138.66093" y="52.107642"/>
<use xlink:href="#glyph-0-15" x="143.580866" y="52.107642"/>
<use xlink:href="#glyph-0-8" x="151.780104" y="52.107642"/>
</g>
<g fill="rgb(0%, 0%, 0%)" fill-opacity="1">
<use xlink:href="#glyph-0-3" x="157.521834" y="52.107642"/>
<use xlink:href="#glyph-0-5" x="162.441771" y="52.107642"/>
<use xlink:href="#glyph-0-1" x="167.907929" y="52.107642"/>
<use xlink:href="#glyph-0-5" x="172.280659" y="52.107642"/>
</g>
<g fill="rgb(0%, 0%, 0%)" fill-opacity="1">
<use xlink:href="#glyph-0-11" x="177.481088" y="52.107642"/>
<use xlink:href="#glyph-0-1" x="181.307596" y="52.107642"/>
<use xlink:href="#glyph-0-5" x="185.680326" y="52.107642"/>
</g>
<g fill="rgb(0%, 0%, 0%)" fill-opacity="1">
<use xlink:href="#glyph-0-26" x="190.870913" y="52.107642"/>
</g>
<g fill="rgb(0%, 0%, 0%)" fill-opacity="1">
<use xlink:href="#glyph-0-1" x="197.701151" y="52.107642"/>
<use xlink:href="#glyph-0-2" x="202.073881" y="52.107642"/>
<use xlink:href="#glyph-0-16" x="204.80696" y="52.107642"/>
<use xlink:href="#glyph-0-1" x="208.687598" y="52.107642"/>
<use xlink:href="#glyph-0-19" x="213.060328" y="52.107642"/>
</g>
</svg>
