<?xml version="1.0" encoding="UTF-8"?>
<svg xmlns="http://www.w3.org/2000/svg" xmlns:xlink="http://www.w3.org/1999/xlink" width="246.697pt" height="235.364pt" viewBox="0 0 246.697 235.364">
<defs>
<g>
<g id="glyph-0-0">
<path d="M 1.328125 -3.296875 L 1.3125 -3.296875 C 1.3125 -4.171875 1.34375 -5.1875 1.984375 -5.875 C 2.28125 -6.171875 2.640625 -6.375 3.0625 -6.375 C 3.40625 -6.375 3.734375 -6.25 3.921875 -5.984375 C 3.890625 -6 3.859375 -6 3.828125 -6 C 3.5625 -6 3.375 -5.796875 3.375 -5.53125 C 3.375 -5.28125 3.578125 -5.078125 3.828125 -5.078125 C 4.109375 -5.078125 4.296875 -5.25 4.296875 -5.59375 C 4.296875 -6.3125 3.625 -6.625 3.015625 -6.625 C 1.359375 -6.625 0.421875 -4.75 0.421875 -3.25 C 0.421875 -1.890625 0.703125 0.203125 2.53125 0.203125 C 3.75 0.203125 4.546875 -0.921875 4.546875 -2.03125 C 4.546875 -3.078125 3.828125 -4.25 2.640625 -4.25 C 2.0625 -4.25 1.5 -3.9375 1.328125 -3.296875 Z M 1.328125 -2.109375 L 1.328125 -2.21875 C 1.328125 -2.890625 1.5625 -4.03125 2.546875 -4.03125 C 3.640625 -4.03125 3.640625 -2.703125 3.640625 -2.09375 L 3.640625 -1.921875 C 3.640625 -1.25 3.59375 -0.0625 2.515625 -0.0625 C 1.65625 -0.0625 1.375 -1.03125 1.34375 -1.8125 C 1.34375 -1.90625 1.34375 -2.015625 1.328125 -2.109375 Z M 1.328125 -2.109375 "/>
</g>
<g id="glyph-0-1">
<path d="M 1.296875 -1.046875 C 1.046875 -1.03125 0.859375 -0.796875 0.859375 -0.546875 C 0.859375 -0.296875 1.046875 -0.015625 1.359375 -0.015625 C 1.625 -0.015625 1.90625 -0.21875 1.90625 -0.53125 C 1.90625 -0.78125 1.703125 -1.0625 1.390625 -1.0625 C 1.359375 -1.0625 1.328125 -1.046875 1.296875 -1.046875 Z M 1.296875 -1.046875 "/>
</g>
<g id="glyph-0-2">
<path d="M 0.890625 -6 L 0.890625 -5.6875 C 1.328125 -5.6875 1.796875 -5.734375 2.1875 -5.9375 L 2.1875 -0.75 C 2.1875 -0.375 1.8125 -0.3125 1.421875 -0.3125 C 1.25 -0.3125 1.078125 -0.3125 0.9375 -0.3125 L 0.9375 -0.015625 L 4.171875 -0.015625 L 4.171875 -0.3125 C 4 -0.3125 3.828125 -0.3125 3.671875 -0.3125 C 3.28125 -0.3125 2.9375 -0.375 2.9375 -0.75 L 2.9375 -6.46875 C 2.9375 -6.5625 2.90625 -6.625 2.796875 -6.625 C 2.65625 -6.625 2.484375 -6.4375 2.375 -6.359375 C 1.9375 -6.078125 1.40625 -6 0.890625 -6 Z M 0.890625 -6 "/>
</g>
<g id="glyph-0-3">
<path d="M 0.34375 -6.796875 L 0.34375 -6.484375 C 0.46875 -6.484375 0.59375 -6.5 0.71875 -6.5 C 1.078125 -6.5 1.359375 -6.453125 1.359375 -6.046875 L 1.359375 -0.75 C 1.359375 -0.375 1.03125 -0.3125 0.703125 -0.3125 C 0.5625 -0.3125 0.453125 -0.3125 0.34375 -0.3125 L 0.34375 -0.015625 L 3.78125 -0.015625 C 5.0625 -0.015625 6.25 -0.625 6.8125 -2.078125 C 6.96875 -2.484375 7.03125 -2.90625 7.03125 -3.34375 C 7.03125 -4.90625 6.0625 -6.5625 4.28125 -6.78125 C 4.125 -6.796875 3.953125 -6.796875 3.796875 -6.796875 Z M 6.03125 -3.09375 L 6.03125 -2.90625 C 5.9375 -1.84375 5.609375 -0.734375 4.359375 -0.40625 C 4.0625 -0.3125 3.78125 -0.3125 3.46875 -0.3125 L 2.609375 -0.3125 C 2.390625 -0.3125 2.203125 -0.375 2.203125 -0.671875 C 2.203125 -0.75 2.21875 -0.8125 2.21875 -0.875 L 2.21875 -5.78125 C 2.21875 -5.859375 2.203125 -5.96875 2.203125 -6.046875 C 2.203125 -6.4375 2.359375 -6.5 2.640625 -6.5 C 2.71875 -6.5 2.796875 -6.484375 2.859375 -6.484375 L 3.515625 -6.484375 C 4.203125 -6.484375 4.890625 -6.34375 5.390625 -5.734375 C 5.921875 -5.09375 6.046875 -4.25 6.046875 -3.421875 L 6.046875 -3.328125 C 6.046875 -3.25 6.046875 -3.1875 6.03125 -3.09375 Z M 6.03125 -3.09375 "/>
</g>
<g id="glyph-0-4">
<path d="M 1.109375 -2.3125 L 3.96875 -2.3125 C 4.078125 -2.3125 4.140625 -2.375 4.140625 -2.484375 C 4.140625 -3.53125 3.484375 -4.453125 2.375 -4.453125 C 1.15625 -4.453125 0.28125 -3.375 0.28125 -2.1875 C 0.28125 -1.265625 0.78125 -0.453125 1.65625 -0.0625 C 1.890625 0.046875 2.15625 0.09375 2.40625 0.09375 L 2.4375 0.09375 C 3.203125 0.09375 3.828125 -0.328125 4.109375 -1.09375 C 4.109375 -1.125 4.109375 -1.15625 4.109375 -1.1875 C 4.109375 -1.265625 4.078125 -1.3125 4 -1.3125 C 3.859375 -1.3125 3.796875 -0.984375 3.734375 -0.875 C 3.484375 -0.4375 3.015625 -0.15625 2.5 -0.15625 C 2.125 -0.15625 1.8125 -0.359375 1.546875 -0.625 C 1.140625 -1.078125 1.109375 -1.734375 1.109375 -2.3125 Z M 1.125 -2.515625 C 1.125 -3.28125 1.53125 -4.234375 2.34375 -4.234375 L 2.390625 -4.234375 C 3.375 -4.140625 3.359375 -3.109375 3.453125 -2.515625 Z M 1.125 -2.515625 "/>
</g>
<g id="glyph-0-5">
<path d="M 0.265625 -4.28125 L 0.265625 -3.96875 L 0.421875 -3.96875 C 0.75 -3.96875 1.046875 -3.9375 1.046875 -3.484375 L 1.046875 -0.734375 C 1.046875 -0.328125 0.765625 -0.3125 0.328125 -0.3125 L 0.265625 -0.3125 L 0.265625 -0.015625 L 2.671875 -0.015625 L 2.671875 -0.3125 C 2.546875 -0.3125 2.421875 -0.3125 2.296875 -0.3125 C 1.984375 -0.3125 1.703125 -0.359375 1.703125 -0.71875 L 1.703125 -2.046875 C 1.703125 -2.890625 1.90625 -4.171875 2.875 -4.171875 C 2.921875 -4.171875 2.953125 -4.171875 2.984375 -4.15625 C 2.84375 -4.09375 2.765625 -3.9375 2.765625 -3.78125 C 2.765625 -3.546875 2.90625 -3.390625 3.140625 -3.34375 C 3.421875 -3.34375 3.625 -3.53125 3.625 -3.78125 C 3.625 -4.171875 3.234375 -4.390625 2.875 -4.390625 C 2.296875 -4.390625 1.765625 -3.859375 1.671875 -3.328125 L 1.65625 -4.390625 Z M 0.265625 -4.28125 "/>
</g>
<g id="glyph-0-6">
<path d="M 0.328125 -6.796875 L 0.328125 -6.484375 C 0.453125 -6.484375 0.59375 -6.5 0.703125 -6.5 C 1.0625 -6.5 1.34375 -6.453125 1.34375 -6.046875 L 1.34375 -0.75 C 1.34375 -0.375 1.03125 -0.3125 0.6875 -0.3125 C 0.5625 -0.3125 0.4375 -0.3125 0.328125 -0.3125 L 0.328125 -0.015625 L 3.265625 -0.015625 L 3.265625 -0.3125 C 3.125 -0.3125 2.984375 -0.3125 2.859375 -0.3125 C 2.53125 -0.3125 2.234375 -0.375 2.234375 -0.75 L 2.234375 -2.421875 C 2.234375 -2.5625 2.421875 -2.71875 2.546875 -2.8125 C 2.703125 -2.96875 2.859375 -3.125 3.015625 -3.265625 C 3.140625 -3.375 3.28125 -3.484375 3.375 -3.625 L 3.390625 -3.625 C 3.53125 -3.375 3.71875 -3.125 3.875 -2.890625 C 4.296875 -2.25 4.75 -1.625 5.171875 -0.96875 C 5.234375 -0.875 5.328125 -0.75 5.34375 -0.625 L 5.34375 -0.609375 C 5.34375 -0.390625 5.0625 -0.3125 4.875 -0.3125 L 4.765625 -0.3125 L 4.765625 -0.015625 L 7.3125 -0.015625 L 7.3125 -0.3125 C 7.09375 -0.3125 6.859375 -0.3125 6.65625 -0.421875 C 6.484375 -0.5 6.34375 -0.6875 6.234375 -0.84375 L 5.8125 -1.46875 C 5.234375 -2.34375 4.65625 -3.203125 4.046875 -4.078125 C 4.03125 -4.109375 4 -4.140625 4 -4.15625 L 4 -4.171875 C 4 -4.25 4.5 -4.6875 4.734375 -4.90625 L 5.421875 -5.5625 C 5.9375 -6.046875 6.4375 -6.484375 7.15625 -6.484375 L 7.171875 -6.484375 L 7.171875 -6.796875 L 5.0625 -6.796875 L 5.0625 -6.484375 C 5.25 -6.484375 5.515625 -6.40625 5.515625 -6.15625 C 5.515625 -5.96875 5.34375 -5.8125 5.203125 -5.703125 L 5.09375 -5.59375 C 5.046875 -5.5625 5.015625 -5.5 4.953125 -5.46875 C 4.046875 -4.59375 3.15625 -3.734375 2.234375 -2.875 L 2.234375 -6.03125 C 2.234375 -6.484375 2.578125 -6.484375 3.1875 -6.484375 L 3.265625 -6.484375 L 3.265625 -6.796875 Z M 0.328125 -6.796875 "/>
</g>
<g id="glyph-0-7">
<path d="M 0.3125 -4.28125 L 0.3125 -3.96875 L 0.453125 -3.96875 C 0.734375 -3.96875 1.03125 -3.953125 1.078125 -3.65625 C 1.09375 -3.546875 1.09375 -3.453125 1.09375 -3.34375 L 1.09375 -1.359375 C 1.09375 -1.03125 1.109375 -0.71875 1.28125 -0.4375 C 1.546875 -0.015625 2.109375 0.109375 2.578125 0.109375 C 3.03125 0.109375 3.4375 -0.09375 3.6875 -0.453125 C 3.75 -0.5625 3.828125 -0.65625 3.859375 -0.78125 L 3.859375 0.09375 L 5.3125 -0.015625 L 5.3125 -0.3125 L 5.15625 -0.3125 C 4.828125 -0.3125 4.53125 -0.34375 4.53125 -0.796875 L 4.53125 -4.390625 L 3.0625 -4.28125 L 3.0625 -3.96875 L 3.203125 -3.96875 C 3.53125 -3.96875 3.828125 -3.9375 3.828125 -3.484375 L 3.828125 -1.671875 C 3.828125 -0.9375 3.453125 -0.125 2.640625 -0.125 C 2.078125 -0.125 1.78125 -0.265625 1.78125 -1.328125 L 1.78125 -4.390625 Z M 0.3125 -4.28125 "/>
</g>
<g id="glyph-0-8">
<path d="M 0.1875 -4.28125 L 0.1875 -3.96875 L 0.375 -3.96875 C 0.875 -3.96875 0.921875 -3.78125 1.21875 -3.015625 L 2.03125 -1.03125 C 2.1875 -0.640625 2.390625 0.09375 2.625 0.09375 C 2.859375 0.09375 3.046875 -0.609375 3.1875 -0.984375 L 4.03125 -3.046875 C 4.265625 -3.65625 4.484375 -3.96875 5.046875 -3.96875 L 5.046875 -4.28125 L 3.453125 -4.28125 L 3.453125 -3.96875 C 3.671875 -3.96875 3.921875 -3.8125 3.921875 -3.5625 C 3.921875 -3.4375 3.859375 -3.296875 3.8125 -3.171875 C 3.515625 -2.46875 3.234375 -1.765625 2.953125 -1.078125 C 2.921875 -0.984375 2.875 -0.890625 2.859375 -0.796875 L 2.84375 -0.796875 C 2.765625 -1.03125 2.65625 -1.25 2.578125 -1.484375 L 1.765625 -3.484375 C 1.734375 -3.5625 1.6875 -3.640625 1.6875 -3.734375 L 1.6875 -3.765625 C 1.734375 -3.96875 2.046875 -3.96875 2.25 -3.96875 L 2.25 -4.28125 Z M 0.1875 -4.28125 "/>
</g>
<g id="glyph-0-9">
<path d="M 0.3125 -4.28125 L 0.3125 -3.96875 L 0.46875 -3.96875 C 0.796875 -3.96875 1.09375 -3.9375 1.09375 -3.484375 L 1.09375 -0.734375 C 1.09375 -0.328125 0.8125 -0.3125 0.375 -0.3125 L 0.3125 -0.3125 L 0.3125 -0.015625 L 2.5625 -0.015625 L 2.5625 -0.3125 L 2.3125 -0.3125 C 2.03125 -0.3125 1.78125 -0.359375 1.78125 -0.71875 L 1.78125 -2.546875 C 1.78125 -3.265625 2.15625 -4.171875 3.140625 -4.171875 C 3.78125 -4.171875 3.828125 -3.484375 3.828125 -3.0625 L 3.828125 -0.6875 C 3.828125 -0.34375 3.546875 -0.3125 3.234375 -0.3125 L 3.0625 -0.3125 L 3.0625 -0.015625 L 5.3125 -0.015625 L 5.3125 -0.3125 L 5.0625 -0.3125 C 4.796875 -0.3125 4.53125 -0.359375 4.53125 -0.703125 L 4.53125 -2.875 C 4.53125 -3.203125 4.515625 -3.53125 4.359375 -3.828125 C 4.140625 -4.265625 3.625 -4.390625 3.171875 -4.390625 C 2.5625 -4.390625 1.9375 -3.96875 1.734375 -3.375 L 1.734375 -4.390625 Z M 0.3125 -4.28125 "/>
</g>
<g id="glyph-0-10">
<path d="M 0.265625 -6.796875 L 0.265625 -6.484375 L 0.4375 -6.484375 C 0.75 -6.484375 1.046875 -6.453125 1.046875 -6 L 1.046875 -0.015625 L 1.28125 -0.03125 L 1.40625 -0.203125 L 1.65625 -0.609375 L 1.671875 -0.609375 C 1.90625 -0.140625 2.5 0.09375 2.984375 0.09375 C 4.21875 0.09375 5.171875 -0.96875 5.171875 -2.15625 C 5.171875 -3.296875 4.296875 -4.390625 3.03125 -4.390625 C 2.515625 -4.390625 2.0625 -4.140625 1.703125 -3.75 L 1.703125 -6.90625 Z M 4.328125 -1.90625 C 4.296875 -1.4375 4.25 -1.015625 3.9375 -0.640625 C 3.703125 -0.328125 3.3125 -0.125 2.921875 -0.125 C 2.5 -0.125 2.109375 -0.375 1.875 -0.71875 C 1.796875 -0.828125 1.734375 -0.921875 1.734375 -1.078125 L 1.734375 -2.734375 C 1.734375 -2.859375 1.734375 -2.984375 1.734375 -3.125 C 1.734375 -3.71875 2.453125 -4.171875 3.015625 -4.171875 C 4.078125 -4.171875 4.34375 -2.921875 4.34375 -2.140625 C 4.34375 -2.0625 4.34375 -1.984375 4.328125 -1.90625 Z M 4.328125 -1.90625 "/>
</g>
<g id="glyph-0-11">
<path d="M 1.1875 -0.234375 L 1.1875 -0.21875 C 0.71875 -0.125 0.28125 0.3125 0.28125 0.78125 C 0.28125 1.71875 1.703125 2.03125 2.46875 2.03125 C 3.3125 2.03125 4.6875 1.734375 4.6875 0.71875 C 4.6875 0.0625 4.21875 -0.375 3.625 -0.546875 C 3.265625 -0.65625 2.90625 -0.671875 2.53125 -0.671875 L 1.625 -0.671875 C 1.296875 -0.703125 1.046875 -1.015625 1.046875 -1.328125 L 1.046875 -1.375 C 1.0625 -1.515625 1.140625 -1.765625 1.234375 -1.765625 C 1.359375 -1.734375 1.5 -1.625 1.65625 -1.578125 C 1.828125 -1.515625 2.03125 -1.484375 2.21875 -1.484375 C 3.03125 -1.484375 3.828125 -2.09375 3.828125 -2.9375 C 3.828125 -3.28125 3.6875 -3.671875 3.421875 -3.890625 L 3.421875 -3.90625 C 3.6875 -4.109375 3.9375 -4.28125 4.296875 -4.28125 C 4.328125 -4.28125 4.359375 -4.28125 4.390625 -4.265625 C 4.296875 -4.21875 4.25 -4.140625 4.25 -4.015625 C 4.25 -3.859375 4.375 -3.71875 4.53125 -3.71875 C 4.703125 -3.71875 4.8125 -3.859375 4.8125 -4.015625 C 4.8125 -4.28125 4.59375 -4.5 4.328125 -4.5 C 3.96875 -4.5 3.640625 -4.359375 3.375 -4.140625 C 3.34375 -4.109375 3.3125 -4.078125 3.265625 -4.0625 C 3.203125 -4.0625 3.125 -4.140625 3.078125 -4.171875 C 2.8125 -4.3125 2.515625 -4.390625 2.21875 -4.390625 C 1.4375 -4.390625 0.59375 -3.84375 0.59375 -2.9375 C 0.59375 -2.609375 0.71875 -2.3125 0.921875 -2.0625 C 0.953125 -2.015625 1.03125 -1.96875 1.03125 -1.921875 C 1.03125 -1.875 0.96875 -1.8125 0.9375 -1.78125 C 0.8125 -1.578125 0.75 -1.328125 0.75 -1.09375 C 0.75 -0.78125 0.890625 -0.375 1.1875 -0.234375 Z M 0.8125 0.828125 L 0.8125 0.75 C 0.8125 0.234375 1.265625 -0.078125 1.796875 -0.078125 L 2.578125 -0.078125 C 3.203125 -0.078125 4.15625 0.015625 4.15625 0.78125 C 4.15625 1.5 3.09375 1.8125 2.46875 1.8125 C 1.8125 1.8125 0.90625 1.515625 0.8125 0.828125 Z M 1.34375 -2.75 L 1.34375 -2.875 C 1.34375 -3.421875 1.46875 -4.15625 2.203125 -4.15625 C 2.828125 -4.15625 3.078125 -3.578125 3.078125 -2.9375 C 3.078125 -2.53125 2.984375 -1.734375 2.21875 -1.734375 C 1.953125 -1.734375 1.703125 -1.84375 1.546875 -2.0625 C 1.390625 -2.265625 1.375 -2.5 1.34375 -2.75 Z M 1.34375 -2.75 "/>
</g>
<g id="glyph-0-12">
<path d="M 0.375 -4.28125 L 0.375 -3.96875 L 0.5625 -3.96875 C 0.84375 -3.96875 1.109375 -3.9375 1.109375 -3.484375 L 1.109375 -0.71875 C 1.109375 -0.375 0.921875 -0.3125 0.328125 -0.3125 L 0.328125 -0.015625 L 2.46875 -0.015625 L 2.46875 -0.3125 L 2.265625 -0.3125 C 2 -0.3125 1.765625 -0.34375 1.765625 -0.671875 L 1.765625 -4.390625 Z M 1.203125 -6.640625 C 0.953125 -6.625 0.75 -6.40625 0.75 -6.125 C 0.75 -5.84375 1 -5.609375 1.28125 -5.609375 C 1.546875 -5.609375 1.8125 -5.828125 1.8125 -6.125 C 1.8125 -6.421875 1.5625 -6.65625 1.28125 -6.65625 C 1.25 -6.65625 1.234375 -6.640625 1.203125 -6.640625 Z M 1.203125 -6.640625 "/>
</g>
<g id="glyph-0-13">
<path d="M 1.046875 -4.28125 L 0.265625 -4.28125 L 0.265625 -3.96875 L 1.046875 -3.96875 L 1.046875 -0.6875 C 1.046875 -0.34375 0.75 -0.3125 0.453125 -0.3125 L 0.265625 -0.3125 L 0.265625 -0.015625 L 2.484375 -0.015625 L 2.484375 -0.3125 L 2.25 -0.3125 C 1.96875 -0.3125 1.703125 -0.34375 1.703125 -0.6875 L 1.703125 -3.96875 L 3.796875 -3.96875 L 3.796875 -0.6875 C 3.796875 -0.34375 3.515625 -0.3125 3.203125 -0.3125 L 3.015625 -0.3125 L 3.015625 -0.015625 L 5.421875 -0.015625 L 5.421875 -0.3125 L 5.109375 -0.3125 C 4.890625 -0.3125 4.65625 -0.328125 4.546875 -0.4375 C 4.46875 -0.53125 4.46875 -0.65625 4.46875 -0.78125 L 4.46875 -3.96875 L 5.609375 -3.96875 L 5.609375 -4.28125 L 4.4375 -4.28125 L 4.4375 -5.234375 C 4.4375 -5.84375 4.5625 -6.703125 5.28125 -6.796875 C 5.421875 -6.796875 5.546875 -6.78125 5.671875 -6.734375 C 5.5 -6.640625 5.375 -6.53125 5.375 -6.3125 C 5.375 -6.0625 5.5625 -5.875 5.8125 -5.875 C 6.109375 -5.875 6.25 -6.09375 6.25 -6.3125 C 6.25 -6.8125 5.71875 -7.015625 5.3125 -7.015625 C 4.984375 -7.015625 4.6875 -6.890625 4.421875 -6.71875 C 4.375 -6.6875 4.328125 -6.625 4.28125 -6.625 C 4.234375 -6.625 4.09375 -6.78125 3.984375 -6.84375 C 3.765625 -6.953125 3.53125 -7 3.296875 -7.015625 L 3.1875 -7.015625 C 2.234375 -7.015625 1.046875 -6.5625 1.046875 -5.34375 Z M 3.828125 -5.765625 C 3.796875 -5.671875 3.796875 -5.5625 3.796875 -5.46875 L 3.796875 -4.28125 L 1.671875 -4.28125 L 1.671875 -5.328125 C 1.671875 -6.234375 2.359375 -6.796875 3.15625 -6.796875 C 3.4375 -6.796875 3.671875 -6.71875 3.921875 -6.609375 C 3.703125 -6.53125 3.546875 -6.421875 3.546875 -6.1875 C 3.546875 -6 3.640625 -5.828125 3.828125 -5.765625 Z M 3.828125 -5.765625 "/>
</g>
<g id="glyph-1-0">
<path d="M 0.578125 -11.796875 L 0.578125 -11.15625 L 2.375 -11.15625 L 2.375 -4.328125 C 2.375 -3.53125 2.4375 -2.828125 2.78125 -2.140625 C 3.640625 -0.46875 5.59375 0.1875 7.390625 0.1875 C 9.5625 0.1875 11.84375 -0.890625 11.84375 -4.15625 L 11.84375 -10.734375 C 11.84375 -11.109375 12.46875 -11.15625 13.03125 -11.15625 L 13.640625 -11.15625 L 13.640625 -11.796875 L 9.4375 -11.796875 L 9.4375 -11.15625 L 10.09375 -11.15625 C 10.6875 -11.15625 11.234375 -11.109375 11.234375 -10.734375 L 11.234375 -4.203125 C 11.234375 -2.53125 10.609375 -0.5625 7.828125 -0.46875 L 7.515625 -0.46875 C 6.6875 -0.46875 5.78125 -0.65625 5.171875 -1.28125 C 4.5 -1.984375 4.40625 -3.0625 4.40625 -3.96875 L 4.40625 -11.140625 L 6.203125 -11.140625 L 6.203125 -11.796875 Z M 5.15625 -15.359375 C 4.625 -15.296875 4.203125 -14.796875 4.203125 -14.265625 C 4.203125 -13.6875 4.671875 -13.171875 5.3125 -13.171875 C 5.875 -13.171875 6.40625 -13.625 6.40625 -14.25 C 6.40625 -14.859375 5.90625 -15.375 5.3125 -15.375 C 5.25 -15.375 5.203125 -15.359375 5.15625 -15.359375 Z M 8.75 -15.359375 C 8.21875 -15.28125 7.8125 -14.84375 7.8125 -14.28125 C 7.8125 -13.6875 8.3125 -13.171875 8.90625 -13.171875 C 9.515625 -13.171875 10.015625 -13.671875 10.015625 -14.265625 C 10.015625 -14.859375 9.546875 -15.375 8.90625 -15.375 C 8.859375 -15.375 8.8125 -15.375 8.75 -15.359375 Z M 8.75 -15.359375 "/>
</g>
<g id="glyph-1-1">
<path d="M 0.53125 -11.796875 L 0.53125 -11.15625 C 0.671875 -11.15625 0.84375 -11.171875 1 -11.171875 C 1.375 -11.171875 1.734375 -11.09375 1.734375 -10.5625 L 1.734375 -0.015625 L 2.3125 -0.03125 L 3.234375 -1.0625 C 3.765625 -0.28125 4.84375 0.078125 5.71875 0.078125 C 6.640625 0.078125 7.671875 -0.203125 8.390625 -0.84375 C 9.25 -1.578125 9.65625 -2.71875 9.65625 -3.828125 C 9.65625 -5.84375 8.46875 -7.75 5.765625 -7.75 C 4.890625 -7.75 4.09375 -7.390625 3.421875 -6.828125 L 3.421875 -11.9375 L 1.515625 -11.9375 Z M 7.765625 -3.171875 C 7.765625 -1.78125 7.0625 -0.40625 5.484375 -0.40625 C 4.71875 -0.40625 3.46875 -1.015625 3.46875 -1.859375 L 3.46875 -6.03125 C 3.546875 -6.609375 4.796875 -7.25 5.625 -7.25 C 7.5625 -7.25 7.78125 -5.359375 7.78125 -4.046875 L 7.78125 -3.609375 C 7.78125 -3.453125 7.78125 -3.3125 7.765625 -3.171875 Z M 7.765625 -3.171875 "/>
</g>
<g id="glyph-1-2">
<path d="M 0.625 -7.609375 L 0.625 -6.96875 L 1.046875 -6.96875 C 1.375 -6.96875 1.78125 -6.9375 1.8125 -6.5625 L 1.8125 -2.265625 C 1.8125 -0.109375 3.34375 0.078125 4.65625 0.078125 C 5.578125 0.078125 6.609375 -0.359375 6.984375 -1.40625 L 7 0.078125 L 9.890625 0.078125 L 9.890625 -0.65625 L 9.4375 -0.65625 C 9.046875 -0.65625 8.6875 -0.6875 8.6875 -1.21875 L 8.6875 -7.75 L 6.734375 -7.75 L 5.75 -7.609375 L 5.75 -6.96875 L 6.125 -6.96875 C 6.578125 -6.96875 6.953125 -6.921875 6.953125 -6.421875 L 6.953125 -2.578125 C 6.875 -1.5625 6.234375 -0.53125 5.140625 -0.40625 L 4.90625 -0.40625 C 4.265625 -0.40625 3.53125 -0.421875 3.53125 -1.75 C 3.53125 -2.015625 3.546875 -2.28125 3.546875 -2.5 L 3.546875 -7.75 L 1.59375 -7.75 Z M 0.625 -7.609375 "/>
</g>
<g id="glyph-1-3">
<path d="M 0.625 -7.609375 L 0.625 -6.96875 L 0.96875 -6.96875 C 1.40625 -6.96875 1.8125 -6.921875 1.8125 -6.390625 L 1.8125 -0.671875 L 0.625 -0.671875 L 0.625 -0.015625 L 4.75 -0.015625 L 4.75 -0.65625 L 3.546875 -0.65625 L 3.546875 -4.671875 C 3.625 -5.875 4.5 -7.25 5.875 -7.25 C 6.890625 -7.25 6.953125 -6.125 6.953125 -5.171875 L 6.953125 -0.671875 L 5.75 -0.671875 L 5.75 -0.015625 L 9.890625 -0.015625 L 9.890625 -0.65625 L 8.6875 -0.65625 L 8.6875 -5.1875 C 8.6875 -5.765625 8.65625 -6.359375 8.34375 -6.859375 C 7.859375 -7.609375 6.953125 -7.75 6.125 -7.75 C 4.921875 -7.75 3.78125 -6.890625 3.453125 -5.75 L 3.4375 -7.75 Z M 0.625 -7.609375 "/>
</g>
<g id="glyph-1-4">
<path d="M 1.8125 -3.421875 C 1.515625 -2.921875 1.21875 -2.453125 1.21875 -1.859375 C 1.21875 -1.25 1.53125 -0.484375 2.015625 -0.234375 L 2.015625 -0.21875 C 1.25 -0.078125 0.515625 0.484375 0.515625 1.3125 C 0.515625 2.96875 2.9375 3.4375 4.484375 3.4375 C 6.03125 3.4375 8.71875 3.171875 8.71875 1.234375 C 8.71875 -0.078125 7.875 -1 6.453125 -1.234375 C 5.875 -1.34375 5.265625 -1.359375 4.671875 -1.359375 L 3.875 -1.359375 C 3.671875 -1.359375 3.453125 -1.34375 3.25 -1.34375 C 3.09375 -1.34375 2.9375 -1.359375 2.78125 -1.375 C 2.25 -1.484375 1.890625 -1.984375 1.890625 -2.5 L 1.890625 -2.578125 C 1.90625 -2.796875 2.015625 -2.984375 2.09375 -3.1875 C 2.78125 -2.90625 3.390625 -2.734375 4.125 -2.734375 C 5.609375 -2.734375 7.265625 -3.46875 7.265625 -5.234375 C 7.265625 -5.875 6.984375 -6.46875 6.5625 -6.9375 C 6.984375 -7.125 7.390625 -7.3125 7.859375 -7.328125 C 7.796875 -7.21875 7.765625 -7.078125 7.765625 -6.9375 C 7.765625 -6.578125 8.046875 -6.34375 8.375 -6.34375 C 8.703125 -6.34375 9 -6.609375 9 -6.953125 C 9 -7.5 8.5 -7.84375 8 -7.84375 C 7.5 -7.84375 6.96875 -7.65625 6.578125 -7.40625 C 6.484375 -7.328125 6.375 -7.21875 6.265625 -7.21875 L 6.25 -7.21875 C 6.125 -7.21875 6.015625 -7.328125 5.90625 -7.390625 C 5.359375 -7.65625 4.703125 -7.75 4.109375 -7.75 C 2.59375 -7.75 0.9375 -7 0.9375 -5.21875 C 0.9375 -4.578125 1.234375 -3.765625 1.8125 -3.421875 Z M 1.796875 1.390625 L 1.796875 1.265625 C 1.796875 0.5 2.359375 0.078125 3.21875 0.078125 L 3.875 0.078125 C 4.203125 0.078125 4.546875 0.0625 4.875 0.0625 C 5.828125 0.0625 7.3125 0.15625 7.4375 1.203125 L 7.4375 1.328125 C 7.4375 2.609375 5.671875 2.96875 4.6875 2.96875 C 3.5 2.96875 1.96875 2.640625 1.796875 1.390625 Z M 2.640625 -4.75 L 2.640625 -5.3125 C 2.640625 -6.234375 2.8125 -7.28125 4.109375 -7.28125 C 5.25 -7.28125 5.5625 -6.453125 5.5625 -5.28125 C 5.5625 -4.34375 5.484375 -3.1875 4.109375 -3.1875 C 3.671875 -3.1875 3.25 -3.34375 2.984375 -3.65625 C 2.71875 -3.96875 2.703125 -4.359375 2.640625 -4.75 Z M 2.640625 -4.75 "/>
</g>
<g id="glyph-1-5">
<path d="M 2.75 -5.578125 L 2.734375 -5.90625 C 2.734375 -7.21875 2.765625 -8.71875 3.515625 -9.6875 C 4.03125 -10.359375 4.828125 -10.734375 5.671875 -10.734375 C 6.171875 -10.734375 6.75 -10.59375 7.078125 -10.1875 C 6.5625 -10.1875 6.140625 -9.78125 6.140625 -9.25 C 6.140625 -8.796875 6.46875 -8.328125 7.0625 -8.328125 C 7.59375 -8.328125 8.015625 -8.6875 8.015625 -9.328125 C 8.015625 -10.71875 6.734375 -11.28125 5.609375 -11.28125 C 4.21875 -11.28125 2.828125 -10.6875 1.96875 -9.5625 C 1.109375 -8.453125 0.765625 -7.015625 0.765625 -5.625 C 0.765625 -3.3125 1.1875 0.1875 4.71875 0.1875 C 6.5625 0.1875 8.46875 -0.90625 8.46875 -3.546875 C 8.46875 -3.953125 8.453125 -4.328125 8.359375 -4.703125 C 8 -6.21875 6.625 -7.25 5.03125 -7.25 C 3.921875 -7.25 3.078125 -6.640625 2.75 -5.578125 Z M 2.765625 -3.171875 L 2.765625 -3.75 C 2.765625 -4.96875 3.21875 -6.765625 4.78125 -6.765625 C 6.453125 -6.765625 6.53125 -5.046875 6.53125 -3.359375 L 6.53125 -2.90625 C 6.53125 -2.25 6.46875 -1.578125 6.140625 -1.09375 C 5.828125 -0.640625 5.25 -0.390625 4.703125 -0.390625 C 4.109375 -0.390625 3.546875 -0.671875 3.21875 -1.1875 C 2.8125 -1.765625 2.828125 -2.5 2.765625 -3.171875 Z M 2.765625 -3.171875 "/>
</g>
<g id="glyph-1-6">
<path d="M 2.421875 -2.203125 C 1.890625 -2.125 1.484375 -1.671875 1.484375 -1.140625 C 1.484375 -0.578125 1.90625 -0.015625 2.5625 -0.015625 C 3.140625 -0.015625 3.671875 -0.484375 3.671875 -1.09375 C 3.671875 -1.65625 3.25 -2.21875 2.59375 -2.21875 C 2.546875 -2.21875 2.46875 -2.21875 2.421875 -2.203125 Z M 2.421875 -2.203125 "/>
</g>
<g id="glyph-1-7">
<path d="M 1.484375 -10.1875 L 1.484375 -9.546875 C 2.25 -9.546875 3.140625 -9.578125 3.875 -9.875 L 3.875 -0.671875 L 1.5625 -0.671875 L 1.5625 -0.015625 L 7.953125 -0.015625 L 7.953125 -0.65625 L 5.6875 -0.65625 L 5.6875 -11.046875 C 5.6875 -11.234375 5.578125 -11.28125 5.40625 -11.28125 C 5.140625 -11.28125 4.75 -10.90625 4.4375 -10.734375 C 3.515625 -10.28125 2.484375 -10.1875 1.484375 -10.1875 Z M 1.484375 -10.1875 "/>
</g>
<g id="glyph-1-8">
<path d="M 1.8125 -9.4375 C 2.296875 -10.203125 3.09375 -10.640625 3.984375 -10.640625 C 5.453125 -10.640625 6.34375 -9.359375 6.34375 -8.015625 C 6.171875 -6.25 5.203125 -5.171875 4.109375 -3.984375 C 3.125 -2.921875 2.15625 -1.796875 1.109375 -0.796875 C 1.015625 -0.65625 0.921875 -0.59375 0.921875 -0.359375 L 0.921875 -0.015625 L 7.859375 -0.015625 L 8.3125 -3.53125 L 7.703125 -3.53125 C 7.625 -2.84375 7.625 -1.921875 6.96875 -1.921875 C 6.390625 -1.859375 5.78125 -1.84375 5.15625 -1.84375 C 4.359375 -1.84375 3.546875 -1.875 2.796875 -1.875 C 3.671875 -2.609375 4.5 -3.40625 5.390625 -4.125 C 6.65625 -5.140625 8.3125 -6.203125 8.3125 -8.09375 C 8.3125 -10.359375 6.109375 -11.28125 4.328125 -11.28125 C 2.78125 -11.28125 0.90625 -10.25 0.90625 -8.453125 C 0.90625 -7.8125 1.390625 -7.40625 1.953125 -7.40625 C 2.59375 -7.40625 2.984375 -7.90625 2.984375 -8.453125 C 2.984375 -9.15625 2.421875 -9.4375 1.8125 -9.4375 Z M 1.8125 -9.4375 "/>
</g>
<g id="glyph-1-9">
<path d="M 2.21875 -0.921875 C 3.078125 -0.109375 4.453125 0.1875 5.578125 0.1875 C 6.53125 0.1875 7.46875 -0.03125 8.171875 -0.703125 C 8.96875 -1.421875 9.234375 -2.484375 9.234375 -3.515625 C 9.234375 -4.96875 8.21875 -6.3125 6.890625 -6.796875 C 6.53125 -6.9375 6.125 -7 5.75 -7.09375 C 3.84375 -7.484375 2.40625 -7.859375 2.40625 -9.484375 C 2.40625 -10.875 3.640625 -11.421875 4.71875 -11.421875 C 6.46875 -11.421875 7.859375 -10.171875 8.109375 -8.1875 C 8.109375 -8.03125 8.125 -7.875 8.359375 -7.875 L 8.5 -7.875 C 8.65625 -7.875 8.71875 -7.9375 8.71875 -8.109375 L 8.71875 -11.78125 C 8.71875 -11.90625 8.6875 -12 8.546875 -12 C 8.265625 -12 7.671875 -11.109375 7.53125 -10.890625 C 6.734375 -11.65625 5.765625 -12 4.625 -12 C 2.9375 -12 1.03125 -11.078125 1.03125 -8.6875 C 1.03125 -7.28125 1.890625 -6.09375 3.140625 -5.5625 C 3.75 -5.3125 4.46875 -5.203125 5.125 -5.046875 C 5.5625 -4.953125 6.0625 -4.890625 6.484375 -4.703125 C 7.28125 -4.359375 7.796875 -3.625 7.859375 -2.765625 L 7.859375 -2.625 C 7.859375 -2.0625 7.671875 -1.484375 7.25 -1.046875 C 6.78125 -0.578125 6.140625 -0.453125 5.53125 -0.453125 C 3.859375 -0.453125 2.0625 -1.171875 1.6875 -3.140625 L 1.625 -3.703125 C 1.625 -3.875 1.5625 -3.9375 1.390625 -3.9375 L 1.234375 -3.9375 C 1.078125 -3.9375 1.03125 -3.84375 1.03125 -3.6875 L 1.03125 -0.03125 C 1.03125 0.078125 1.0625 0.1875 1.203125 0.1875 C 1.5 0.1875 2.078125 -0.703125 2.21875 -0.921875 Z M 2.21875 -0.921875 "/>
</g>
<g id="glyph-1-10">
<path d="M 0.515625 -11.796875 L 0.515625 -11.15625 C 0.65625 -11.15625 0.8125 -11.171875 0.96875 -11.171875 C 1.359375 -11.171875 1.71875 -11.09375 1.71875 -10.59375 L 1.71875 -0.671875 L 0.515625 -0.671875 L 0.515625 -0.015625 L 4.53125 -0.015625 L 4.53125 -0.65625 L 3.328125 -0.65625 L 3.328125 -2.90625 C 3.328125 -3.078125 3.390625 -3.140625 3.5 -3.265625 L 3.78125 -3.5 C 3.890625 -3.609375 4.09375 -3.796875 4.171875 -3.796875 L 4.203125 -3.796875 C 4.3125 -3.765625 4.4375 -3.5 4.546875 -3.359375 C 4.84375 -2.953125 5.140625 -2.5625 5.421875 -2.140625 L 6.09375 -1.21875 C 6.171875 -1.109375 6.3125 -0.96875 6.3125 -0.84375 C 6.3125 -0.671875 6.015625 -0.65625 5.78125 -0.65625 L 5.6875 -0.65625 L 5.6875 -0.015625 L 9.4375 -0.015625 L 9.4375 -0.65625 L 9.09375 -0.65625 C 8.703125 -0.65625 8.375 -0.6875 8.140625 -1.078125 C 7.1875 -2.25 6.390625 -3.53125 5.5 -4.734375 C 5.453125 -4.78125 5.4375 -4.8125 5.4375 -4.84375 L 5.4375 -4.875 C 5.4375 -4.96875 5.578125 -5.046875 5.65625 -5.09375 L 6.265625 -5.609375 C 6.578125 -5.890625 6.890625 -6.140625 7.1875 -6.421875 C 7.359375 -6.5625 7.53125 -6.75 7.75 -6.828125 C 8.078125 -6.984375 8.484375 -7 8.84375 -7 L 9.03125 -7 L 9.03125 -7.640625 L 5.890625 -7.640625 L 5.890625 -7 C 6.109375 -7 6.609375 -6.953125 6.609375 -6.796875 L 6.609375 -6.78125 C 6.609375 -6.65625 6.09375 -6.265625 5.84375 -6.0625 C 5.015625 -5.375 4.1875 -4.6875 3.40625 -3.984375 L 3.40625 -11.9375 L 1.5 -11.9375 Z M 0.515625 -11.796875 "/>
</g>
<g id="glyph-1-11">
<path d="M 0.703125 -7.609375 L 0.703125 -6.96875 L 1 -6.96875 C 1.421875 -6.96875 1.84375 -6.921875 1.84375 -6.4375 L 1.84375 -0.671875 L 0.640625 -0.671875 L 0.640625 -0.015625 L 4.609375 -0.015625 L 4.609375 -0.65625 L 3.515625 -0.65625 L 3.515625 -7.75 L 1.65625 -7.65625 Z M 2.28125 -11.9375 C 1.75 -11.859375 1.34375 -11.40625 1.34375 -10.875 C 1.34375 -10.3125 1.765625 -9.75 2.421875 -9.75 C 3 -9.75 3.53125 -10.21875 3.53125 -10.828125 C 3.53125 -11.390625 3.109375 -11.953125 2.453125 -11.953125 C 2.40625 -11.953125 2.328125 -11.953125 2.28125 -11.9375 Z M 2.28125 -11.9375 "/>
</g>
<g id="glyph-1-12">
<path d="M 0.9375 -7.640625 L 0.765625 -4.75 L 1.375 -4.75 C 1.390625 -5.3125 1.4375 -5.90625 1.75 -6.375 C 2.203125 -7.078125 3.015625 -7.140625 3.796875 -7.140625 L 5.328125 -7.140625 C 4.015625 -5.421875 2.796875 -3.640625 1.546875 -1.890625 C 1.203125 -1.40625 0.5 -0.625 0.5 -0.25 C 0.5 -0.078125 0.640625 -0.015625 0.8125 -0.015625 L 7.15625 -0.015625 L 7.4375 -3.34375 L 6.828125 -3.34375 C 6.765625 -2.625 6.734375 -1.84375 6.25 -1.25 C 5.71875 -0.640625 4.90625 -0.5625 4.125 -0.5625 L 2.59375 -0.5625 C 4.140625 -2.71875 5.6875 -4.859375 7.21875 -7 C 7.28125 -7.125 7.40625 -7.265625 7.40625 -7.40625 C 7.40625 -7.578125 7.265625 -7.640625 7.09375 -7.640625 Z M 0.9375 -7.640625 "/>
</g>
<g id="glyph-1-13">
<path d="M 2.390625 -3.890625 L 7.59375 -3.890625 C 7.8125 -3.890625 7.859375 -4 7.859375 -4.203125 C 7.859375 -6.015625 7 -7.796875 4.453125 -7.796875 C 2.28125 -7.796875 0.515625 -6.390625 0.515625 -3.875 C 0.515625 -2.890625 0.828125 -1.890625 1.5 -1.15625 C 2.3125 -0.234375 3.59375 0.078125 4.75 0.078125 L 4.96875 0.078125 C 6.171875 -0.015625 7.328125 -0.59375 7.8125 -1.84375 C 7.828125 -1.890625 7.859375 -1.953125 7.859375 -2.03125 C 7.859375 -2.1875 7.734375 -2.21875 7.578125 -2.21875 C 7.1875 -2.21875 7.25 -1.890625 7 -1.546875 C 6.5625 -0.859375 5.765625 -0.46875 4.953125 -0.46875 C 4.03125 -0.46875 3.140625 -0.90625 2.734375 -1.734375 C 2.40625 -2.390625 2.390625 -3.171875 2.390625 -3.890625 Z M 2.390625 -4.328125 C 2.390625 -5.671875 2.828125 -7.296875 4.453125 -7.296875 C 5.96875 -7.296875 6.34375 -5.578125 6.34375 -4.328125 Z M 2.390625 -4.328125 "/>
</g>
<g id="glyph-1-14">
<path d="M 0.515625 -7.609375 L 0.515625 -6.96875 L 0.859375 -6.96875 C 1.3125 -6.96875 1.71875 -6.921875 1.71875 -6.390625 L 1.71875 -0.671875 L 0.515625 -0.671875 L 0.515625 -0.015625 L 4.890625 -0.015625 L 4.890625 -0.65625 L 3.40625 -0.65625 L 3.40625 -3.1875 C 3.40625 -4.796875 3.46875 -7.25 5.515625 -7.25 C 5.28125 -7.046875 5.140625 -6.78125 5.140625 -6.484375 C 5.140625 -5.9375 5.5625 -5.5625 6.046875 -5.5625 C 6.5625 -5.5625 6.953125 -5.953125 6.953125 -6.453125 C 6.953125 -7.25 6.1875 -7.75 5.375 -7.75 C 4.34375 -7.75 3.46875 -6.796875 3.296875 -5.71875 L 3.28125 -7.75 Z M 0.515625 -7.609375 "/>
</g>
<g id="glyph-1-15">
<path d="M 5.75 -12.875 C 5.546875 -12.8125 5.21875 -12.5 5.03125 -12.3125 C 2.75 -10.265625 1.796875 -7.21875 1.796875 -4.265625 C 1.796875 -1.375 2.78125 1.453125 4.84375 3.515625 C 5.140625 3.8125 5.609375 4.296875 5.921875 4.296875 C 6.03125 4.296875 6.140625 4.234375 6.140625 4.140625 C 6.140625 3.953125 5.671875 3.546875 5.484375 3.328125 C 3.75 1.1875 3.265625 -1.6875 3.265625 -4.390625 C 3.265625 -7.265625 3.84375 -10.15625 5.84375 -12.359375 C 5.921875 -12.46875 6.140625 -12.625 6.140625 -12.71875 L 6.140625 -12.765625 C 6.140625 -12.875 6.046875 -12.890625 5.921875 -12.890625 C 5.859375 -12.890625 5.78125 -12.890625 5.75 -12.875 Z M 5.75 -12.875 "/>
</g>
<g id="glyph-1-16">
<path d="M 1.109375 -12.875 C 1.0625 -12.84375 1.046875 -12.796875 1.046875 -12.765625 C 1.046875 -12.59375 1.5 -12.21875 1.6875 -11.984375 C 3.421875 -9.8125 3.9375 -7 3.9375 -4.296875 C 3.9375 -1.609375 3.4375 1.25 1.671875 3.390625 C 1.5 3.609375 1.078125 3.9375 1.046875 4.109375 L 1.046875 4.140625 C 1.046875 4.234375 1.171875 4.28125 1.265625 4.28125 C 1.59375 4.28125 1.921875 3.921875 2.15625 3.6875 C 4.390625 1.75 5.390625 -1.40625 5.390625 -4.28125 C 5.390625 -7.5 4.234375 -10.71875 1.59375 -12.796875 C 1.515625 -12.859375 1.375 -12.90625 1.25 -12.90625 C 1.203125 -12.90625 1.171875 -12.890625 1.109375 -12.875 Z M 1.109375 -12.875 "/>
</g>
<g id="glyph-1-17">
<path d="M 3.390625 -0.328125 C 3.390625 0.796875 2.9375 1.953125 2.09375 2.734375 C 2.015625 2.796875 1.875 2.890625 1.875 3 L 1.875 3.046875 C 1.890625 3.140625 2.03125 3.296875 2.140625 3.296875 C 2.390625 3.296875 2.921875 2.609375 3.125 2.28125 C 3.640625 1.515625 3.875 0.578125 3.875 -0.328125 C 3.875 -1.109375 3.546875 -2.21875 2.5625 -2.21875 C 1.890625 -2.21875 1.484375 -1.703125 1.484375 -1.109375 C 1.484375 -0.5 1.921875 -0.015625 2.5625 -0.015625 C 2.875 -0.015625 3.140625 -0.125 3.390625 -0.328125 Z M 3.390625 -0.328125 "/>
</g>
<g id="glyph-1-18">
<path d="M 5.65625 -11.796875 L 5.65625 -11.15625 L 6.078125 -11.15625 C 6.484375 -11.15625 6.859375 -11.109375 6.859375 -10.578125 L 6.859375 -6.890625 C 6.203125 -7.484375 5.390625 -7.75 4.53125 -7.75 C 3.328125 -7.75 2.0625 -7.265625 1.34375 -6.25 C 0.828125 -5.546875 0.625 -4.671875 0.625 -3.8125 C 0.625 -1.890625 1.78125 0.078125 4.34375 0.078125 C 5.3125 0.078125 6.109375 -0.25 6.796875 -0.859375 L 6.796875 0.078125 L 9.734375 0.078125 L 9.734375 -0.65625 C 9.59375 -0.65625 9.421875 -0.640625 9.265625 -0.640625 C 8.890625 -0.640625 8.53125 -0.71875 8.53125 -1.25 L 8.53125 -11.9375 L 7.5625 -11.890625 L 6.265625 -11.890625 Z M 2.484375 -3.140625 L 2.484375 -4 C 2.484375 -5.359375 2.765625 -7.25 4.796875 -7.25 C 5.515625 -7.25 6.125 -6.9375 6.640625 -6.359375 C 6.71875 -6.265625 6.78125 -6.1875 6.796875 -6.078125 L 6.796875 -1.921875 C 6.796875 -1.796875 6.78125 -1.6875 6.71875 -1.578125 C 6.265625 -0.875 5.4375 -0.40625 4.625 -0.40625 C 4.03125 -0.40625 3.4375 -0.671875 3.0625 -1.15625 C 2.578125 -1.71875 2.5625 -2.453125 2.484375 -3.140625 Z M 2.484375 -3.140625 "/>
</g>
<g id="glyph-1-19">
<path d="M 1.859375 -7.640625 L 0.625 -7.640625 L 0.625 -7 L 1.859375 -7 L 1.859375 -0.671875 L 0.65625 -0.671875 L 0.65625 -0.015625 L 5.03125 -0.015625 L 5.03125 -0.65625 L 3.53125 -0.65625 L 3.53125 -7 L 5.421875 -7 L 5.421875 -7.640625 L 3.484375 -7.640625 L 3.484375 -9.203125 C 3.484375 -10.0625 3.59375 -11.515625 5.0625 -11.515625 C 5.203125 -11.515625 5.328125 -11.515625 5.453125 -11.5 C 5.234375 -11.28125 5.046875 -11.125 5.015625 -10.78125 L 5.015625 -10.703125 C 5.015625 -10.15625 5.390625 -9.765625 5.921875 -9.765625 C 6.546875 -9.765625 6.859375 -10.21875 6.859375 -10.6875 C 6.859375 -11.5625 6.015625 -12.03125 5.203125 -12.03125 C 3.65625 -12.03125 1.859375 -11.4375 1.859375 -9.328125 Z M 1.859375 -7.640625 "/>
</g>
<g id="glyph-1-20">
<path d="M 0.625 -7.609375 L 0.625 -6.96875 L 1.046875 -6.96875 C 1.375 -6.96875 1.78125 -6.9375 1.8125 -6.5625 L 1.8125 -2.265625 C 1.8125 -0.109375 3.34375 0.078125 4.65625 0.078125 C 5.578125 0.078125 6.609375 -0.359375 6.984375 -1.40625 L 7 0.078125 L 9.890625 0.078125 L 9.890625 -0.65625 L 9.4375 -0.65625 C 9.046875 -0.65625 8.6875 -0.6875 8.6875 -1.21875 L 8.6875 -7.75 L 6.734375 -7.75 L 5.75 -7.609375 L 5.75 -6.96875 L 6.125 -6.96875 C 6.578125 -6.96875 6.953125 -6.921875 6.953125 -6.421875 L 6.953125 -2.578125 C 6.875 -1.5625 6.234375 -0.53125 5.140625 -0.40625 L 4.90625 -0.40625 C 4.265625 -0.40625 3.53125 -0.421875 3.53125 -1.75 C 3.53125 -2.015625 3.546875 -2.28125 3.546875 -2.5 L 3.546875 -7.75 L 1.59375 -7.75 Z M 6.90625 -11.78125 C 6.375 -11.71875 5.953125 -11.265625 5.953125 -10.703125 C 5.953125 -10.109375 6.453125 -9.59375 7.0625 -9.59375 C 7.65625 -9.59375 8.15625 -10.09375 8.15625 -10.703125 C 8.15625 -11.234375 7.75 -11.796875 7.0625 -11.796875 C 7 -11.796875 6.953125 -11.796875 6.90625 -11.78125 Z M 3.3125 -11.78125 C 2.75 -11.71875 2.375 -11.234375 2.375 -10.6875 C 2.375 -10.109375 2.78125 -9.59375 3.484375 -9.59375 L 3.59375 -9.59375 C 4.125 -9.671875 4.546875 -10.15625 4.546875 -10.6875 C 4.546875 -11.265625 4.0625 -11.796875 3.46875 -11.796875 C 3.421875 -11.796875 3.359375 -11.78125 3.3125 -11.78125 Z M 3.3125 -11.78125 "/>
</g>
<g id="glyph-1-21">
<path d="M 2.421875 -7.625 C 1.890625 -7.5625 1.484375 -7.09375 1.484375 -6.5625 C 1.484375 -6.015625 1.90625 -5.4375 2.5625 -5.4375 C 3.140625 -5.4375 3.671875 -5.90625 3.671875 -6.53125 C 3.671875 -7.078125 3.25 -7.640625 2.59375 -7.640625 C 2.546875 -7.640625 2.46875 -7.640625 2.421875 -7.625 Z M 2.421875 -2.203125 C 1.890625 -2.125 1.484375 -1.671875 1.484375 -1.140625 C 1.484375 -0.578125 1.90625 -0.015625 2.5625 -0.015625 C 3.140625 -0.015625 3.671875 -0.484375 3.671875 -1.09375 C 3.671875 -1.65625 3.25 -2.21875 2.59375 -2.21875 C 2.546875 -2.21875 2.46875 -2.21875 2.421875 -2.203125 Z M 2.421875 -2.203125 "/>
</g>
<g id="glyph-1-22">
<path d="M 3.390625 -0.328125 C 3.390625 0.796875 2.9375 1.953125 2.09375 2.734375 C 2.015625 2.796875 1.875 2.890625 1.875 3 L 1.875 3.046875 C 1.890625 3.140625 2.03125 3.296875 2.140625 3.296875 C 2.390625 3.296875 2.921875 2.609375 3.125 2.28125 C 3.640625 1.515625 3.875 0.578125 3.875 -0.328125 C 3.875 -1.109375 3.546875 -2.21875 2.5625 -2.21875 C 1.890625 -2.21875 1.484375 -1.703125 1.484375 -1.109375 C 1.484375 -0.5 1.921875 -0.015625 2.5625 -0.015625 C 2.875 -0.015625 3.140625 -0.125 3.390625 -0.328125 Z M 2.421875 -7.625 C 1.890625 -7.5625 1.484375 -7.09375 1.484375 -6.5625 C 1.484375 -6.015625 1.90625 -5.4375 2.5625 -5.4375 C 3.140625 -5.4375 3.671875 -5.90625 3.671875 -6.53125 C 3.671875 -7.078125 3.25 -7.640625 2.59375 -7.640625 C 2.546875 -7.640625 2.46875 -7.640625 2.421875 -7.625 Z M 2.421875 -7.625 "/>
</g>
<g id="glyph-2-0">
<path d="M 5.171875 -0.75 C 4.875 -0.75 4.625 -0.75 4.625 -0.84375 C 4.625 -0.875 4.90625 -2.484375 5.015625 -2.875 C 5.5625 -5.0625 6.875 -6.640625 8.359375 -6.640625 C 9.484375 -6.640625 10 -5.796875 10 -4.859375 C 10 -2.90625 7.796875 -0.75 5.171875 -0.75 Z M 4.4375 0.140625 C 4.53125 0.15625 4.703125 0.171875 5.015625 0.171875 C 7.828125 0.171875 10.421875 -2.546875 10.421875 -5.25 C 10.421875 -6.296875 9.953125 -7.578125 8.515625 -7.578125 C 6.046875 -7.578125 5 -4.09375 4.03125 -0.859375 C 2.0625 -1.234375 1.234375 -2.28125 1.234375 -3.4375 C 1.234375 -3.890625 1.59375 -5.734375 2.59375 -6.96875 C 2.78125 -7.1875 2.78125 -7.234375 2.78125 -7.265625 C 2.78125 -7.40625 2.640625 -7.40625 2.609375 -7.40625 C 2.140625 -7.40625 0.84375 -4.890625 0.84375 -3.265625 C 0.84375 -1.34375 2.359375 -0.296875 3.75 0.015625 L 2.84375 2.921875 C 2.765625 3.171875 2.765625 3.21875 2.765625 3.28125 C 2.765625 3.6875 3.171875 3.703125 3.21875 3.703125 C 3.390625 3.703125 3.6875 3.640625 3.828125 3.296875 C 3.875 3.140625 4.359375 0.484375 4.4375 0.140625 Z M 4.4375 0.140625 "/>
</g>
<g id="glyph-2-1">
<path d="M 3.453125 -6.90625 L 5.03125 -6.90625 C 5.359375 -6.90625 5.53125 -6.90625 5.53125 -7.21875 C 5.53125 -7.40625 5.421875 -7.40625 5.078125 -7.40625 L 3.578125 -7.40625 L 4.203125 -9.90625 C 4.28125 -10.15625 4.28125 -10.1875 4.28125 -10.296875 C 4.28125 -10.578125 4.046875 -10.734375 3.828125 -10.734375 C 3.6875 -10.734375 3.296875 -10.6875 3.15625 -10.125 L 2.484375 -7.40625 L 0.875 -7.40625 C 0.53125 -7.40625 0.375 -7.40625 0.375 -7.078125 C 0.375 -6.90625 0.5 -6.90625 0.828125 -6.90625 L 2.359375 -6.90625 L 1.21875 -2.375 C 1.078125 -1.765625 1.03125 -1.59375 1.03125 -1.375 C 1.03125 -0.5625 1.59375 0.171875 2.5625 0.171875 C 4.296875 0.171875 5.21875 -2.328125 5.21875 -2.453125 C 5.21875 -2.5625 5.15625 -2.609375 5.046875 -2.609375 C 5.015625 -2.609375 4.953125 -2.609375 4.90625 -2.546875 C 4.890625 -2.53125 4.875 -2.5 4.75 -2.234375 C 4.390625 -1.375 3.609375 -0.171875 2.609375 -0.171875 C 2.09375 -0.171875 2.0625 -0.59375 2.0625 -0.984375 C 2.0625 -1 2.0625 -1.328125 2.109375 -1.53125 Z M 3.453125 -6.90625 "/>
</g>
<g id="glyph-2-2">
<path d="M 3.34375 0.0625 C 3.34375 -0.921875 3.015625 -1.671875 2.3125 -1.671875 C 1.765625 -1.671875 1.5 -1.21875 1.5 -0.84375 C 1.5 -0.46875 1.75 0 2.328125 0 C 2.5625 0 2.75 -0.0625 2.90625 -0.21875 C 2.9375 -0.25 2.953125 -0.25 2.96875 -0.25 C 3 -0.25 3 -0.015625 3 0.0625 C 3 0.640625 2.90625 1.75 1.90625 2.875 C 1.71875 3.078125 1.71875 3.109375 1.71875 3.140625 C 1.71875 3.234375 1.796875 3.3125 1.890625 3.3125 C 2.03125 3.3125 3.34375 2.046875 3.34375 0.0625 Z M 3.34375 0.0625 "/>
</g>
<g id="glyph-2-3">
<path d="M 4.453125 -6.46875 L 6.390625 -6.46875 C 5.921875 -4.546875 5.625 -3.296875 5.625 -1.921875 C 5.625 -1.6875 5.625 0.171875 6.34375 0.171875 C 6.703125 0.171875 7 -0.15625 7 -0.453125 C 7 -0.53125 7 -0.5625 6.890625 -0.828125 C 6.421875 -2.015625 6.421875 -3.484375 6.421875 -3.609375 C 6.421875 -3.703125 6.421875 -4.921875 6.78125 -6.46875 L 8.703125 -6.46875 C 8.921875 -6.46875 9.5 -6.46875 9.5 -7.015625 C 9.5 -7.40625 9.171875 -7.40625 8.859375 -7.40625 L 3.21875 -7.40625 C 2.8125 -7.40625 2.234375 -7.40625 1.4375 -6.5625 C 1 -6.0625 0.453125 -5.15625 0.453125 -5.046875 C 0.453125 -4.953125 0.53125 -4.90625 0.640625 -4.90625 C 0.75 -4.90625 0.765625 -4.96875 0.859375 -5.0625 C 1.75 -6.46875 2.640625 -6.46875 3.078125 -6.46875 L 4.046875 -6.46875 C 3.671875 -5.1875 3.25 -3.6875 1.84375 -0.6875 C 1.703125 -0.40625 1.703125 -0.375 1.703125 -0.28125 C 1.703125 0.078125 2.015625 0.171875 2.15625 0.171875 C 2.65625 0.171875 2.796875 -0.28125 3 -1 C 3.28125 -1.875 3.28125 -1.90625 3.453125 -2.59375 Z M 4.453125 -6.46875 "/>
</g>
<g id="glyph-2-4">
<path d="M 15.5 -9.828125 C 15.90625 -10.484375 16.28125 -11.125 17.3125 -11.234375 C 17.46875 -11.25 17.625 -11.265625 17.625 -11.546875 C 17.625 -11.734375 17.46875 -11.734375 17.40625 -11.734375 C 17.375 -11.734375 17.25 -11.6875 16.125 -11.6875 C 15.609375 -11.6875 15.078125 -11.734375 14.578125 -11.734375 C 14.46875 -11.734375 14.265625 -11.734375 14.265625 -11.40625 C 14.265625 -11.25 14.40625 -11.234375 14.515625 -11.234375 C 14.859375 -11.21875 15.40625 -11.109375 15.40625 -10.578125 C 15.40625 -10.359375 15.328125 -10.234375 15.15625 -9.9375 L 10.46875 -1.734375 L 9.859375 -10.6875 C 9.859375 -10.890625 10.046875 -11.21875 11 -11.234375 C 11.234375 -11.234375 11.40625 -11.234375 11.40625 -11.5625 C 11.40625 -11.734375 11.234375 -11.734375 11.140625 -11.734375 C 10.546875 -11.734375 9.90625 -11.6875 9.296875 -11.6875 L 8.390625 -11.6875 C 8.140625 -11.6875 7.828125 -11.734375 7.578125 -11.734375 C 7.46875 -11.734375 7.265625 -11.734375 7.265625 -11.40625 C 7.265625 -11.234375 7.390625 -11.234375 7.671875 -11.234375 C 8.46875 -11.234375 8.46875 -11.21875 8.53125 -10.171875 L 8.578125 -9.546875 L 4.140625 -1.734375 L 3.5 -10.59375 C 3.5 -10.78125 3.5 -11.21875 4.671875 -11.234375 C 4.859375 -11.234375 5.046875 -11.234375 5.046875 -11.546875 C 5.046875 -11.734375 4.890625 -11.734375 4.796875 -11.734375 C 4.1875 -11.734375 3.546875 -11.6875 2.9375 -11.6875 L 2.046875 -11.6875 C 1.78125 -11.6875 1.484375 -11.734375 1.21875 -11.734375 C 1.109375 -11.734375 0.90625 -11.734375 0.90625 -11.40625 C 0.90625 -11.234375 1.046875 -11.234375 1.28125 -11.234375 C 2.09375 -11.234375 2.109375 -11.125 2.140625 -10.578125 L 2.90625 -0.03125 C 2.921875 0.25 2.9375 0.359375 3.140625 0.359375 C 3.3125 0.359375 3.34375 0.296875 3.5 0.03125 L 8.625 -8.90625 L 9.25 -0.03125 C 9.265625 0.25 9.296875 0.359375 9.5 0.359375 C 9.671875 0.359375 9.71875 0.28125 9.859375 0.03125 Z M 15.5 -9.828125 "/>
</g>
<g id="glyph-3-0">
<path d="M 3.4375 -7.640625 C 3.4375 -7.921875 3.4375 -7.921875 3.1875 -7.921875 C 2.90625 -7.609375 2.3125 -7.171875 1.078125 -7.171875 L 1.078125 -6.8125 C 1.359375 -6.8125 1.953125 -6.8125 2.609375 -7.125 L 2.609375 -0.921875 C 2.609375 -0.484375 2.578125 -0.34375 1.53125 -0.34375 L 1.15625 -0.34375 L 1.15625 0 C 1.484375 -0.03125 2.640625 -0.03125 3.03125 -0.03125 C 3.421875 -0.03125 4.5625 -0.03125 4.890625 0 L 4.890625 -0.34375 L 4.515625 -0.34375 C 3.46875 -0.34375 3.4375 -0.484375 3.4375 -0.921875 Z M 3.4375 -7.640625 "/>
</g>
<g id="glyph-3-1">
<path d="M 5.25 -2 L 4.984375 -2 C 4.953125 -1.796875 4.859375 -1.140625 4.734375 -0.953125 C 4.65625 -0.84375 3.96875 -0.84375 3.609375 -0.84375 L 1.40625 -0.84375 C 1.734375 -1.125 2.453125 -1.890625 2.765625 -2.171875 C 4.578125 -3.84375 5.25 -4.453125 5.25 -5.640625 C 5.25 -7.015625 4.15625 -7.921875 2.78125 -7.921875 C 1.390625 -7.921875 0.578125 -6.75 0.578125 -5.71875 C 0.578125 -5.109375 1.109375 -5.109375 1.140625 -5.109375 C 1.390625 -5.109375 1.703125 -5.296875 1.703125 -5.671875 C 1.703125 -6.015625 1.484375 -6.234375 1.140625 -6.234375 C 1.03125 -6.234375 1.015625 -6.234375 0.984375 -6.21875 C 1.203125 -7.03125 1.84375 -7.578125 2.625 -7.578125 C 3.640625 -7.578125 4.25 -6.734375 4.25 -5.640625 C 4.25 -4.625 3.671875 -3.75 3 -2.984375 L 0.578125 -0.28125 L 0.578125 0 L 4.9375 0 Z M 5.25 -2 "/>
</g>
<g id="glyph-3-2">
<path d="M 2.1875 -4.28125 C 1.984375 -4.265625 1.9375 -4.25 1.9375 -4.15625 C 1.9375 -4.03125 2 -4.03125 2.21875 -4.03125 L 2.765625 -4.03125 C 3.78125 -4.03125 4.234375 -3.1875 4.234375 -2.046875 C 4.234375 -0.484375 3.421875 -0.078125 2.84375 -0.078125 C 2.265625 -0.078125 1.28125 -0.34375 0.9375 -1.125 C 1.328125 -1.078125 1.671875 -1.28125 1.671875 -1.71875 C 1.671875 -2.0625 1.421875 -2.296875 1.078125 -2.296875 C 0.796875 -2.296875 0.484375 -2.140625 0.484375 -1.6875 C 0.484375 -0.625 1.546875 0.25 2.875 0.25 C 4.296875 0.25 5.34375 -0.828125 5.34375 -2.03125 C 5.34375 -3.140625 4.453125 -4 3.3125 -4.203125 C 4.34375 -4.5 5.015625 -5.359375 5.015625 -6.296875 C 5.015625 -7.234375 4.046875 -7.921875 2.890625 -7.921875 C 1.6875 -7.921875 0.8125 -7.203125 0.8125 -6.328125 C 0.8125 -5.859375 1.1875 -5.765625 1.359375 -5.765625 C 1.609375 -5.765625 1.890625 -5.9375 1.890625 -6.296875 C 1.890625 -6.671875 1.609375 -6.84375 1.34375 -6.84375 C 1.28125 -6.84375 1.25 -6.84375 1.21875 -6.828125 C 1.671875 -7.640625 2.796875 -7.640625 2.84375 -7.640625 C 3.25 -7.640625 4.015625 -7.46875 4.015625 -6.296875 C 4.015625 -6.0625 3.984375 -5.40625 3.640625 -4.890625 C 3.28125 -4.359375 2.875 -4.328125 2.546875 -4.3125 Z M 2.1875 -4.28125 "/>
</g>
<g id="glyph-4-0">
<path d="M 5.25 4.1875 C 5.25 4.171875 5.25 4.140625 5.203125 4.09375 C 4.40625 3.28125 2.296875 1.078125 2.296875 -4.28125 C 2.296875 -9.640625 4.375 -11.8125 5.21875 -12.671875 C 5.21875 -12.6875 5.25 -12.71875 5.25 -12.78125 C 5.25 -12.828125 5.203125 -12.859375 5.140625 -12.859375 C 4.953125 -12.859375 3.484375 -11.59375 2.640625 -9.703125 C 1.78125 -7.796875 1.546875 -5.9375 1.546875 -4.296875 C 1.546875 -3.0625 1.671875 -0.96875 2.703125 1.25 C 3.515625 3.046875 4.921875 4.296875 5.140625 4.296875 C 5.21875 4.296875 5.25 4.265625 5.25 4.1875 Z M 5.25 4.1875 "/>
</g>
<g id="glyph-4-1">
<path d="M 4.515625 -4.28125 C 4.515625 -5.515625 4.390625 -7.609375 3.359375 -9.828125 C 2.546875 -11.609375 1.140625 -12.859375 0.921875 -12.859375 C 0.875 -12.859375 0.8125 -12.84375 0.8125 -12.765625 C 0.8125 -12.71875 0.828125 -12.703125 0.84375 -12.671875 C 1.671875 -11.8125 3.765625 -9.640625 3.765625 -4.296875 C 3.765625 1.0625 1.6875 3.25 0.84375 4.109375 C 0.828125 4.140625 0.8125 4.15625 0.8125 4.1875 C 0.8125 4.28125 0.875 4.296875 0.921875 4.296875 C 1.109375 4.296875 2.578125 3.015625 3.421875 1.140625 C 4.28125 -0.765625 4.515625 -2.625 4.515625 -4.28125 Z M 4.515625 -4.28125 "/>
</g>
<g id="glyph-4-2">
<path d="M 11.046875 -5.515625 C 11.296875 -5.515625 11.5625 -5.515625 11.5625 -5.796875 C 11.5625 -6.109375 11.265625 -6.109375 10.96875 -6.109375 L 1.375 -6.109375 C 1.078125 -6.109375 0.796875 -6.109375 0.796875 -5.796875 C 0.796875 -5.515625 1.046875 -5.515625 1.3125 -5.515625 Z M 10.96875 -2.453125 C 11.265625 -2.453125 11.5625 -2.453125 11.5625 -2.765625 C 11.5625 -3.0625 11.296875 -3.0625 11.046875 -3.0625 L 1.3125 -3.0625 C 1.046875 -3.0625 0.796875 -3.0625 0.796875 -2.765625 C 0.796875 -2.453125 1.078125 -2.453125 1.375 -2.453125 Z M 10.96875 -2.453125 "/>
</g>
<g id="glyph-4-3">
<path d="M 4.03125 4.28125 L 4.03125 3.671875 L 2.421875 3.671875 L 2.421875 -12.265625 L 4.03125 -12.265625 L 4.03125 -12.859375 L 1.8125 -12.859375 L 1.8125 4.28125 Z M 4.03125 4.28125 "/>
</g>
<g id="glyph-4-4">
<path d="M 4.5625 -10.96875 C 4.5625 -11.328125 4.546875 -11.34375 4.3125 -11.34375 C 3.640625 -10.546875 2.625 -10.28125 1.671875 -10.25 C 1.609375 -10.25 1.53125 -10.25 1.515625 -10.21875 C 1.5 -10.1875 1.5 -10.15625 1.5 -9.78125 C 2.03125 -9.78125 2.921875 -9.890625 3.609375 -10.296875 L 3.609375 -1.25 C 3.609375 -0.65625 3.578125 -0.453125 2.09375 -0.453125 L 1.578125 -0.453125 L 1.578125 0 C 2.40625 -0.015625 3.265625 -0.03125 4.09375 -0.03125 C 4.90625 -0.03125 5.765625 -0.015625 6.59375 0 L 6.59375 -0.453125 L 6.078125 -0.453125 C 4.609375 -0.453125 4.5625 -0.640625 4.5625 -1.25 Z M 4.5625 -10.96875 "/>
</g>
<g id="glyph-4-5">
<path d="M 2.453125 -12.859375 L 0.234375 -12.859375 L 0.234375 -12.265625 L 1.859375 -12.265625 L 1.859375 3.671875 L 0.234375 3.671875 L 0.234375 4.28125 L 2.453125 4.28125 Z M 2.453125 -12.859375 "/>
</g>
<g id="glyph-4-6">
<path d="M 6 -6.015625 C 5.671875 -6.015625 5.1875 -6.015625 5.1875 -5.40625 C 5.1875 -4.921875 5.578125 -4.796875 5.796875 -4.796875 C 5.921875 -4.796875 6.421875 -4.84375 6.421875 -5.4375 C 6.421875 -6.65625 5.25 -7.59375 3.9375 -7.59375 C 2.109375 -7.59375 0.5625 -5.90625 0.5625 -3.703125 C 0.5625 -1.421875 2.1875 0.140625 3.9375 0.140625 C 6.0625 0.140625 6.59375 -1.84375 6.59375 -2.03125 C 6.59375 -2.09375 6.578125 -2.140625 6.453125 -2.140625 C 6.34375 -2.140625 6.3125 -2.125 6.25 -1.90625 C 5.796875 -0.515625 4.828125 -0.171875 4.09375 -0.171875 C 2.984375 -0.171875 1.671875 -1.1875 1.671875 -3.71875 C 1.671875 -6.34375 2.9375 -7.28125 3.953125 -7.28125 C 4.625 -7.28125 5.609375 -6.953125 6 -6.015625 Z M 6 -6.015625 "/>
</g>
<g id="glyph-4-7">
<path d="M 7.40625 -3.671875 C 7.40625 -5.875 5.796875 -7.59375 3.9375 -7.59375 C 2.0625 -7.59375 0.46875 -5.875 0.46875 -3.671875 C 0.46875 -1.515625 2.0625 0.140625 3.9375 0.140625 C 5.796875 0.140625 7.40625 -1.515625 7.40625 -3.671875 Z M 3.9375 -0.171875 C 3.125 -0.171875 2.4375 -0.65625 2.046875 -1.328125 C 1.609375 -2.09375 1.5625 -3.0625 1.5625 -3.8125 C 1.5625 -4.53125 1.59375 -5.421875 2.046875 -6.203125 C 2.390625 -6.765625 3.0625 -7.3125 3.9375 -7.3125 C 4.703125 -7.3125 5.359375 -6.890625 5.765625 -6.28125 C 6.296875 -5.484375 6.296875 -4.34375 6.296875 -3.8125 C 6.296875 -3.140625 6.265625 -2.109375 5.796875 -1.28125 C 5.328125 -0.5 4.578125 -0.171875 3.9375 -0.171875 Z M 3.9375 -0.171875 "/>
</g>
<g id="glyph-4-8">
<path d="M 5.3125 -7.25 C 5.3125 -7.5625 5.28125 -7.578125 5.1875 -7.578125 C 5.125 -7.578125 5.09375 -7.5625 4.890625 -7.296875 C 4.84375 -7.234375 4.6875 -7.0625 4.640625 -6.984375 C 4.09375 -7.578125 3.3125 -7.59375 3.015625 -7.59375 C 1.109375 -7.59375 0.421875 -6.59375 0.421875 -5.59375 C 0.421875 -4.046875 2.1875 -3.6875 2.671875 -3.59375 C 3.765625 -3.359375 4.140625 -3.296875 4.5 -2.984375 C 4.71875 -2.78125 5.09375 -2.40625 5.09375 -1.78125 C 5.09375 -1.0625 4.6875 -0.140625 3.109375 -0.140625 C 1.609375 -0.140625 1.078125 -1.265625 0.765625 -2.78125 C 0.71875 -3.015625 0.71875 -3.046875 0.578125 -3.046875 C 0.453125 -3.046875 0.421875 -3.015625 0.421875 -2.671875 L 0.421875 -0.203125 C 0.421875 0.109375 0.453125 0.125 0.546875 0.125 C 0.640625 0.125 0.65625 0.109375 0.734375 -0.03125 C 0.84375 -0.1875 1.09375 -0.59375 1.203125 -0.765625 C 1.546875 -0.3125 2.140625 0.140625 3.109375 0.140625 C 4.8125 0.140625 5.71875 -0.796875 5.71875 -2.125 C 5.71875 -3 5.25 -3.46875 5.03125 -3.671875 C 4.515625 -4.203125 3.921875 -4.328125 3.1875 -4.46875 C 2.25 -4.671875 1.046875 -4.90625 1.046875 -5.953125 C 1.046875 -6.40625 1.28125 -7.34375 3.015625 -7.34375 C 4.859375 -7.34375 4.96875 -5.625 5 -5.078125 C 5.015625 -5 5.09375 -4.984375 5.15625 -4.984375 C 5.3125 -4.984375 5.3125 -5.03125 5.3125 -5.328125 Z M 5.3125 -7.25 "/>
</g>
<g id="glyph-4-9">
<path d="M 7.15625 -2.65625 L 6.859375 -2.65625 C 6.6875 -1.4375 6.546875 -1.234375 6.46875 -1.140625 C 6.390625 -1 5.15625 -1 4.90625 -1 L 1.609375 -1 C 2.234375 -1.671875 3.4375 -2.890625 4.890625 -4.296875 C 5.9375 -5.28125 7.15625 -6.453125 7.15625 -8.15625 C 7.15625 -10.1875 5.546875 -11.34375 3.75 -11.34375 C 1.859375 -11.34375 0.703125 -9.6875 0.703125 -8.140625 C 0.703125 -7.46875 1.203125 -7.390625 1.40625 -7.390625 C 1.578125 -7.390625 2.09375 -7.484375 2.09375 -8.09375 C 2.09375 -8.625 1.65625 -8.78125 1.40625 -8.78125 C 1.3125 -8.78125 1.203125 -8.75 1.140625 -8.71875 C 1.453125 -10.1875 2.453125 -10.90625 3.5 -10.90625 C 5 -10.90625 5.96875 -9.71875 5.96875 -8.15625 C 5.96875 -6.65625 5.09375 -5.375 4.125 -4.265625 L 0.703125 -0.390625 L 0.703125 0 L 6.75 0 Z M 7.15625 -2.65625 "/>
</g>
<g id="glyph-4-10">
<path d="M 2.65625 -10.578125 C 2.65625 -10.953125 2.359375 -11.28125 1.953125 -11.28125 C 1.578125 -11.28125 1.25 -10.96875 1.25 -10.578125 C 1.25 -10.203125 1.5625 -9.875 1.953125 -9.875 C 2.328125 -9.875 2.65625 -10.1875 2.65625 -10.578125 Z M 0.65625 -7.328125 L 0.65625 -6.890625 C 1.609375 -6.890625 1.75 -6.78125 1.75 -5.953125 L 1.75 -1.1875 C 1.75 -0.53125 1.6875 -0.453125 0.578125 -0.453125 L 0.578125 0 C 1 -0.03125 1.734375 -0.03125 2.15625 -0.03125 C 2.578125 -0.03125 3.28125 -0.03125 3.671875 0 L 3.671875 -0.453125 C 2.65625 -0.453125 2.625 -0.546875 2.625 -1.171875 L 2.625 -7.515625 Z M 0.65625 -7.328125 "/>
</g>
<g id="glyph-4-11">
<path d="M 7.125 -5.21875 C 7.125 -6.09375 6.953125 -7.515625 4.921875 -7.515625 C 3.578125 -7.515625 2.875 -6.46875 2.609375 -5.78125 L 2.59375 -5.78125 L 2.59375 -7.515625 L 0.5625 -7.328125 L 0.5625 -6.890625 C 1.578125 -6.890625 1.734375 -6.78125 1.734375 -5.953125 L 1.734375 -1.1875 C 1.734375 -0.53125 1.671875 -0.453125 0.5625 -0.453125 L 0.5625 0 C 0.984375 -0.03125 1.734375 -0.03125 2.1875 -0.03125 C 2.625 -0.03125 3.40625 -0.03125 3.8125 0 L 3.8125 -0.453125 C 2.71875 -0.453125 2.640625 -0.515625 2.640625 -1.1875 L 2.640625 -4.484375 C 2.640625 -6.0625 3.609375 -7.25 4.8125 -7.25 C 6.078125 -7.25 6.21875 -6.109375 6.21875 -5.28125 L 6.21875 -1.1875 C 6.21875 -0.53125 6.140625 -0.453125 5.046875 -0.453125 L 5.046875 0 C 5.453125 -0.03125 6.21875 -0.03125 6.65625 -0.03125 C 7.109375 -0.03125 7.875 -0.03125 8.296875 0 L 8.296875 -0.453125 C 7.1875 -0.453125 7.125 -0.515625 7.125 -1.1875 Z M 7.125 -5.21875 "/>
</g>
<g id="glyph-4-12">
<path d="M 7.21875 -5.515625 C 7.21875 -6.5625 7.1875 -8.34375 6.46875 -9.71875 C 5.84375 -10.921875 4.828125 -11.34375 3.9375 -11.34375 C 3.109375 -11.34375 2.0625 -10.96875 1.40625 -9.734375 C 0.71875 -8.453125 0.65625 -6.859375 0.65625 -5.515625 C 0.65625 -4.53125 0.671875 -3.046875 1.203125 -1.734375 C 1.9375 0.03125 3.265625 0.28125 3.9375 0.28125 C 4.71875 0.28125 5.921875 -0.046875 6.625 -1.6875 C 7.140625 -2.875 7.21875 -4.265625 7.21875 -5.515625 Z M 3.9375 0 C 2.828125 0 2.1875 -0.9375 1.9375 -2.25 C 1.75 -3.265625 1.75 -4.734375 1.75 -5.703125 C 1.75 -7.015625 1.75 -8.125 1.96875 -9.171875 C 2.296875 -10.625 3.265625 -11.078125 3.9375 -11.078125 C 4.640625 -11.078125 5.546875 -10.609375 5.875 -9.203125 C 6.09375 -8.21875 6.109375 -7.078125 6.109375 -5.703125 C 6.109375 -4.578125 6.109375 -3.21875 5.90625 -2.203125 C 5.546875 -0.328125 4.53125 0 3.9375 0 Z M 3.9375 0 "/>
</g>
<g id="glyph-4-13">
<path d="M 2.84375 -6.6875 C 2.84375 -7.109375 2.5 -7.390625 2.140625 -7.390625 C 1.796875 -7.390625 1.4375 -7.109375 1.4375 -6.6875 C 1.4375 -6.25 1.78125 -5.96875 2.140625 -5.96875 C 2.484375 -5.96875 2.84375 -6.25 2.84375 -6.6875 Z M 2.84375 -0.703125 C 2.84375 -1.140625 2.5 -1.40625 2.140625 -1.40625 C 1.796875 -1.40625 1.4375 -1.140625 1.4375 -0.703125 C 1.4375 -0.28125 1.78125 0 2.140625 0 C 2.484375 0 2.84375 -0.28125 2.84375 -0.703125 Z M 2.84375 -0.703125 "/>
</g>
<g id="glyph-4-14">
<path d="M 6.46875 -3.984375 L 11.03125 -3.984375 C 11.265625 -3.984375 11.5625 -3.984375 11.5625 -4.28125 C 11.5625 -4.578125 11.28125 -4.578125 11.03125 -4.578125 L 6.46875 -4.578125 L 6.46875 -9.140625 C 6.46875 -9.375 6.46875 -9.671875 6.1875 -9.671875 C 5.875 -9.671875 5.875 -9.390625 5.875 -9.140625 L 5.875 -4.578125 L 1.328125 -4.578125 C 1.078125 -4.578125 0.796875 -4.578125 0.796875 -4.296875 C 0.796875 -3.984375 1.0625 -3.984375 1.328125 -3.984375 L 5.875 -3.984375 L 5.875 0.5625 C 5.875 0.8125 5.875 1.09375 6.171875 1.09375 C 6.46875 1.09375 6.46875 0.828125 6.46875 0.5625 Z M 6.46875 -3.984375 "/>
</g>
<g id="glyph-5-0">
<path d="M 2.390625 -4.796875 L 3.5 -4.796875 C 3.71875 -4.796875 3.84375 -4.796875 3.84375 -5 C 3.84375 -5.140625 3.765625 -5.140625 3.53125 -5.140625 L 2.484375 -5.140625 L 2.921875 -6.875 C 2.96875 -7.046875 2.96875 -7.0625 2.96875 -7.15625 C 2.96875 -7.34375 2.8125 -7.453125 2.65625 -7.453125 C 2.5625 -7.453125 2.28125 -7.421875 2.1875 -7.03125 L 1.734375 -5.140625 L 0.609375 -5.140625 C 0.375 -5.140625 0.265625 -5.140625 0.265625 -4.90625 C 0.265625 -4.796875 0.34375 -4.796875 0.578125 -4.796875 L 1.640625 -4.796875 L 0.84375 -1.640625 C 0.75 -1.234375 0.71875 -1.109375 0.71875 -0.953125 C 0.71875 -0.390625 1.109375 0.125 1.78125 0.125 C 2.984375 0.125 3.625 -1.625 3.625 -1.703125 C 3.625 -1.78125 3.578125 -1.8125 3.5 -1.8125 C 3.484375 -1.8125 3.4375 -1.8125 3.40625 -1.765625 C 3.390625 -1.75 3.390625 -1.734375 3.296875 -1.546875 C 3.046875 -0.953125 2.5 -0.125 1.8125 -0.125 C 1.453125 -0.125 1.4375 -0.421875 1.4375 -0.671875 C 1.4375 -0.6875 1.4375 -0.921875 1.46875 -1.0625 Z M 2.390625 -4.796875 "/>
</g>
<g id="glyph-5-1">
<path d="M 3.375 -1.703125 C 3.375 -1.765625 3.328125 -1.8125 3.25 -1.8125 C 3.140625 -1.8125 3.140625 -1.78125 3.078125 -1.578125 C 2.765625 -0.484375 2.28125 -0.125 1.890625 -0.125 C 1.734375 -0.125 1.578125 -0.15625 1.578125 -0.515625 C 1.578125 -0.828125 1.71875 -1.1875 1.84375 -1.546875 L 2.6875 -3.765625 C 2.71875 -3.859375 2.796875 -4.078125 2.796875 -4.296875 C 2.796875 -4.796875 2.4375 -5.25 1.859375 -5.25 C 0.765625 -5.25 0.328125 -3.53125 0.328125 -3.4375 C 0.328125 -3.390625 0.375 -3.328125 0.453125 -3.328125 C 0.5625 -3.328125 0.578125 -3.375 0.625 -3.546875 C 0.90625 -4.546875 1.359375 -5.015625 1.828125 -5.015625 C 1.9375 -5.015625 2.140625 -5 2.140625 -4.625 C 2.140625 -4.3125 1.984375 -3.921875 1.890625 -3.65625 L 1.046875 -1.4375 C 0.984375 -1.25 0.90625 -1.0625 0.90625 -0.84375 C 0.90625 -0.3125 1.28125 0.125 1.84375 0.125 C 2.9375 0.125 3.375 -1.625 3.375 -1.703125 Z M 3.28125 -7.4375 C 3.28125 -7.625 3.140625 -7.828125 2.875 -7.828125 C 2.59375 -7.828125 2.28125 -7.578125 2.28125 -7.265625 C 2.28125 -6.96875 2.546875 -6.859375 2.6875 -6.859375 C 3 -6.859375 3.28125 -7.171875 3.28125 -7.4375 Z M 3.28125 -7.4375 "/>
</g>
<g id="glyph-6-0">
<path d="M 9.40625 -3.953125 C 9.703125 -3.953125 10.015625 -3.953125 10.015625 -4.296875 C 10.015625 -4.640625 9.703125 -4.640625 9.40625 -4.640625 L 2.125 -4.640625 C 2.328125 -6.9375 4.3125 -8.578125 6.734375 -8.578125 L 9.40625 -8.578125 C 9.703125 -8.578125 10.015625 -8.578125 10.015625 -8.921875 C 10.015625 -9.265625 9.703125 -9.265625 9.40625 -9.265625 L 6.703125 -9.265625 C 3.765625 -9.265625 1.421875 -7.046875 1.421875 -4.296875 C 1.421875 -1.546875 3.765625 0.6875 6.703125 0.6875 L 9.40625 0.6875 C 9.703125 0.6875 10.015625 0.6875 10.015625 0.34375 C 10.015625 0 9.703125 0 9.40625 0 L 6.734375 0 C 4.3125 0 2.328125 -1.65625 2.125 -3.953125 Z M 9.40625 -3.953125 "/>
</g>
<g id="glyph-6-1">
<path d="M 11.3125 -3.953125 C 11.609375 -3.953125 11.921875 -3.953125 11.921875 -4.296875 C 11.921875 -4.640625 11.609375 -4.640625 11.3125 -4.640625 L 2.03125 -4.640625 C 1.734375 -4.640625 1.421875 -4.640625 1.421875 -4.296875 C 1.421875 -3.953125 1.734375 -3.953125 2.03125 -3.953125 Z M 11.3125 -3.953125 "/>
</g>
<g id="glyph-6-2">
<path d="M 10.8125 -11.625 C 10.953125 -11.859375 10.953125 -11.90625 10.953125 -11.953125 C 10.953125 -12.078125 10.859375 -12.296875 10.609375 -12.296875 C 10.40625 -12.296875 10.359375 -12.1875 10.234375 -11.953125 L 2.53125 3.046875 C 2.390625 3.28125 2.390625 3.3125 2.390625 3.359375 C 2.390625 3.5 2.5 3.703125 2.734375 3.703125 C 2.9375 3.703125 2.984375 3.609375 3.109375 3.359375 Z M 10.8125 -11.625 "/>
</g>
</g>
</defs>
<g fill="rgb(0%, 0%, 0%)" fill-opacity="1">
<use xlink:href="#glyph-0-0" x="75.903705" y="16.778661"/>
<use xlink:href="#glyph-0-1" x="80.870587" y="16.778661"/>
<use xlink:href="#glyph-0-2" x="83.629746" y="16.778661"/>
</g>
<g fill="rgb(0%, 0%, 0%)" fill-opacity="1">
<use xlink:href="#glyph-0-3" x="91.905233" y="16.778661"/>
<use xlink:href="#glyph-0-4" x="99.493167" y="16.778661"/>
<use xlink:href="#glyph-0-5" x="103.907621" y="16.778661"/>
</g>
<g fill="rgb(0%, 0%, 0%)" fill-opacity="1">
<use xlink:href="#glyph-0-6" x="111.107067" y="16.778661"/>
<use xlink:href="#glyph-0-7" x="118.833107" y="16.778661"/>
<use xlink:href="#glyph-0-5" x="124.351424" y="16.778661"/>
<use xlink:href="#glyph-0-8" x="128.242264" y="16.778661"/>
</g>
<g fill="rgb(0%, 0%, 0%)" fill-opacity="1">
<use xlink:href="#glyph-0-4" x="133.217095" y="16.778661"/>
<use xlink:href="#glyph-0-9" x="137.631549" y="16.778661"/>
</g>
<g fill="rgb(0%, 0%, 0%)" fill-opacity="1">
<use xlink:href="#glyph-0-10" x="142.871665" y="16.778661"/>
</g>
<g fill="rgb(0%, 0%, 0%)" fill-opacity="1">
<use xlink:href="#glyph-0-4" x="148.668182" y="16.778661"/>
<use xlink:href="#glyph-0-11" x="153.082637" y="16.778661"/>
<use xlink:href="#glyph-0-5" x="158.049519" y="16.778661"/>
<use xlink:href="#glyph-0-12" x="161.940359" y="16.778661"/>
<use xlink:href="#glyph-0-13" x="164.699518" y="16.778661"/>
</g>
<g fill="rgb(0%, 0%, 0%)" fill-opacity="1">
<use xlink:href="#glyph-1-0" x="73.889149" y="42.611854"/>
<use xlink:href="#glyph-1-1" x="88.118821" y="42.611854"/>
<use xlink:href="#glyph-1-2" x="98.409923" y="42.611854"/>
<use xlink:href="#glyph-1-3" x="108.701025" y="42.611854"/>
<use xlink:href="#glyph-1-4" x="118.992128" y="42.611854"/>
</g>
<g fill="rgb(0%, 0%, 0%)" fill-opacity="1">
<use xlink:href="#glyph-1-5" x="134.435648" y="42.611854"/>
<use xlink:href="#glyph-1-6" x="143.698327" y="42.611854"/>
<use xlink:href="#glyph-1-7" x="148.843878" y="42.611854"/>
<use xlink:href="#glyph-1-6" x="158.106557" y="42.611854"/>
</g>
<g fill="rgb(0%, 0%, 0%)" fill-opacity="1">
<use xlink:href="#glyph-1-8" x="163.234939" y="42.611854"/>
</g>
<g fill="rgb(0%, 0%, 0%)" fill-opacity="1">
<use xlink:href="#glyph-1-9" x="17.402786" y="68.445048"/>
<use xlink:href="#glyph-1-10" x="27.693888" y="68.445048"/>
<use xlink:href="#glyph-1-11" x="37.46992" y="68.445048"/>
<use xlink:href="#glyph-1-12" x="42.615471" y="68.445048"/>
<use xlink:href="#glyph-1-12" x="50.84801" y="68.445048"/>
<use xlink:href="#glyph-1-11" x="59.080548" y="68.445048"/>
<use xlink:href="#glyph-1-13" x="64.226099" y="68.445048"/>
<use xlink:href="#glyph-1-14" x="72.62346" y="68.445048"/>
<use xlink:href="#glyph-1-13" x="80.100562" y="68.445048"/>
<use xlink:href="#glyph-1-3" x="88.497923" y="68.445048"/>
</g>
<g fill="rgb(0%, 0%, 0%)" fill-opacity="1">
<use xlink:href="#glyph-1-9" x="104.969867" y="68.445048"/>
<use xlink:href="#glyph-1-11" x="115.260969" y="68.445048"/>
<use xlink:href="#glyph-1-13" x="120.406521" y="68.445048"/>
</g>
<g fill="rgb(0%, 0%, 0%)" fill-opacity="1">
<use xlink:href="#glyph-2-0" x="134.967555" y="68.445048"/>
</g>
<g fill="rgb(0%, 0%, 0%)" fill-opacity="1">
<use xlink:href="#glyph-3-0" x="145.984334" y="71.02009"/>
</g>
<g fill="rgb(0%, 0%, 0%)" fill-opacity="1">
<use xlink:href="#glyph-4-0" x="152.318218" y="68.445048"/>
</g>
<g fill="rgb(0%, 0%, 0%)" fill-opacity="1">
<use xlink:href="#glyph-2-1" x="158.397763" y="68.445048"/>
</g>
<g fill="rgb(0%, 0%, 0%)" fill-opacity="1">
<use xlink:href="#glyph-4-1" x="164.468724" y="68.445048"/>
</g>
<g fill="rgb(0%, 0%, 0%)" fill-opacity="1">
<use xlink:href="#glyph-4-2" x="175.321252" y="68.445048"/>
</g>
<g fill="rgb(0%, 0%, 0%)" fill-opacity="1">
<use xlink:href="#glyph-5-0" x="192.445785" y="62.214883"/>
</g>
<g fill="rgb(0%, 0%, 0%)" fill-opacity="1">
<use xlink:href="#glyph-4-0" x="197.159049" y="68.445048"/>
</g>
<g fill="rgb(0%, 0%, 0%)" fill-opacity="1">
<use xlink:href="#glyph-2-1" x="203.238594" y="68.445048"/>
<use xlink:href="#glyph-2-2" x="209.309555" y="68.445048"/>
</g>
<g fill="rgb(0%, 0%, 0%)" fill-opacity="1">
<use xlink:href="#glyph-2-1" x="216.846748" y="68.445048"/>
</g>
<g fill="rgb(0%, 0%, 0%)" fill-opacity="1">
<use xlink:href="#glyph-4-1" x="222.917709" y="68.445048"/>
</g>
<g fill="rgb(0%, 0%, 0%)" fill-opacity="1">
<use xlink:href="#glyph-1-15" x="77.290957" y="90.303981"/>
</g>
<g fill="rgb(0%, 0%, 0%)" fill-opacity="1">
<use xlink:href="#glyph-2-1" x="84.495071" y="90.303981"/>
</g>
<g fill="rgb(0%, 0%, 0%)" fill-opacity="1">
<use xlink:href="#glyph-6-0" x="95.339016" y="90.303981"/>
</g>
<g fill="rgb(0%, 0%, 0%)" fill-opacity="1">
<use xlink:href="#glyph-4-3" x="111.541407" y="90.303981"/>
</g>
<g fill="rgb(0%, 0%, 0%)" fill-opacity="1">
<use xlink:href="#glyph-6-1" x="115.843959" y="90.303981"/>
</g>
<g fill="rgb(0%, 0%, 0%)" fill-opacity="1">
<use xlink:href="#glyph-4-4" x="129.180843" y="90.303981"/>
</g>
<g fill="rgb(0%, 0%, 0%)" fill-opacity="1">
<use xlink:href="#glyph-2-2" x="137.071718" y="90.303981"/>
</g>
<g fill="rgb(0%, 0%, 0%)" fill-opacity="1">
<use xlink:href="#glyph-4-4" x="144.591743" y="90.303981"/>
<use xlink:href="#glyph-4-5" x="152.465449" y="90.303981"/>
</g>
<g fill="rgb(0%, 0%, 0%)" fill-opacity="1">
<use xlink:href="#glyph-1-16" x="156.750833" y="90.303981"/>
<use xlink:href="#glyph-1-17" x="163.954948" y="90.303981"/>
</g>
<g fill="rgb(0%, 0%, 0%)" fill-opacity="1">
<use xlink:href="#glyph-2-0" x="49.732425" y="112.162914"/>
</g>
<g fill="rgb(0%, 0%, 0%)" fill-opacity="1">
<use xlink:href="#glyph-3-1" x="60.744668" y="114.737955"/>
</g>
<g fill="rgb(0%, 0%, 0%)" fill-opacity="1">
<use xlink:href="#glyph-4-0" x="67.078553" y="112.162914"/>
</g>
<g fill="rgb(0%, 0%, 0%)" fill-opacity="1">
<use xlink:href="#glyph-2-1" x="73.158098" y="112.162914"/>
</g>
<g fill="rgb(0%, 0%, 0%)" fill-opacity="1">
<use xlink:href="#glyph-4-1" x="79.229058" y="112.162914"/>
</g>
<g fill="rgb(0%, 0%, 0%)" fill-opacity="1">
<use xlink:href="#glyph-4-2" x="90.081587" y="112.162914"/>
</g>
<g fill="rgb(0%, 0%, 0%)" fill-opacity="1">
<use xlink:href="#glyph-5-0" x="107.207117" y="105.931751"/>
</g>
<g fill="rgb(0%, 0%, 0%)" fill-opacity="1">
<use xlink:href="#glyph-4-0" x="111.919384" y="112.162914"/>
<use xlink:href="#glyph-4-6" x="117.998929" y="112.162914"/>
<use xlink:href="#glyph-4-7" x="124.976413" y="112.162914"/>
<use xlink:href="#glyph-4-8" x="132.850119" y="112.162914"/>
</g>
<g fill="rgb(0%, 0%, 0%)" fill-opacity="1">
<use xlink:href="#glyph-2-1" x="141.887884" y="112.162914"/>
<use xlink:href="#glyph-2-2" x="147.958844" y="112.162914"/>
</g>
<g fill="rgb(0%, 0%, 0%)" fill-opacity="1">
<use xlink:href="#glyph-4-6" x="155.478869" y="112.162914"/>
<use xlink:href="#glyph-4-7" x="162.456353" y="112.162914"/>
<use xlink:href="#glyph-4-8" x="170.330059" y="112.162914"/>
</g>
<g fill="rgb(0%, 0%, 0%)" fill-opacity="1">
<use xlink:href="#glyph-2-1" x="179.367824" y="112.162914"/>
</g>
<g fill="rgb(0%, 0%, 0%)" fill-opacity="1">
<use xlink:href="#glyph-4-1" x="185.438784" y="112.162914"/>
</g>
<g fill="rgb(0%, 0%, 0%)" fill-opacity="1">
<use xlink:href="#glyph-1-17" x="191.518329" y="112.162914"/>
</g>
<g fill="rgb(0%, 0%, 0%)" fill-opacity="1">
<use xlink:href="#glyph-2-0" x="14.504618" y="134.020849"/>
</g>
<g fill="rgb(0%, 0%, 0%)" fill-opacity="1">
<use xlink:href="#glyph-3-2" x="25.517858" y="136.596888"/>
</g>
<g fill="rgb(0%, 0%, 0%)" fill-opacity="1">
<use xlink:href="#glyph-4-0" x="31.851742" y="134.020849"/>
</g>
<g fill="rgb(0%, 0%, 0%)" fill-opacity="1">
<use xlink:href="#glyph-2-1" x="37.931287" y="134.020849"/>
</g>
<g fill="rgb(0%, 0%, 0%)" fill-opacity="1">
<use xlink:href="#glyph-4-1" x="44.002248" y="134.020849"/>
</g>
<g fill="rgb(0%, 0%, 0%)" fill-opacity="1">
<use xlink:href="#glyph-4-2" x="54.854776" y="134.020849"/>
</g>
<g fill="rgb(0%, 0%, 0%)" fill-opacity="1">
<use xlink:href="#glyph-5-0" x="71.97931" y="127.790684"/>
</g>
<g fill="rgb(0%, 0%, 0%)" fill-opacity="1">
<use xlink:href="#glyph-4-0" x="76.692574" y="134.020849"/>
<use xlink:href="#glyph-4-9" x="82.772119" y="134.020849"/>
</g>
<g fill="rgb(0%, 0%, 0%)" fill-opacity="1">
<use xlink:href="#glyph-4-8" x="93.513049" y="134.020849"/>
<use xlink:href="#glyph-4-10" x="99.683589" y="134.020849"/>
<use xlink:href="#glyph-4-11" x="103.968973" y="134.020849"/>
</g>
<g fill="rgb(0%, 0%, 0%)" fill-opacity="1">
<use xlink:href="#glyph-2-1" x="115.590673" y="134.020849"/>
</g>
<g fill="rgb(0%, 0%, 0%)" fill-opacity="1">
<use xlink:href="#glyph-6-1" x="125.490322" y="134.020849"/>
</g>
<g fill="rgb(0%, 0%, 0%)" fill-opacity="1">
<use xlink:href="#glyph-4-4" x="142.655894" y="134.020849"/>
</g>
<g fill="rgb(0%, 0%, 0%)" fill-opacity="1">
<use xlink:href="#glyph-2-2" x="150.529601" y="134.020849"/>
</g>
<g fill="rgb(0%, 0%, 0%)" fill-opacity="1">
<use xlink:href="#glyph-4-9" x="158.049625" y="134.020849"/>
</g>
<g fill="rgb(0%, 0%, 0%)" fill-opacity="1">
<use xlink:href="#glyph-4-8" x="168.790555" y="134.020849"/>
<use xlink:href="#glyph-4-10" x="174.961096" y="134.020849"/>
<use xlink:href="#glyph-4-11" x="179.24648" y="134.020849"/>
</g>
<g fill="rgb(0%, 0%, 0%)" fill-opacity="1">
<use xlink:href="#glyph-2-1" x="190.885349" y="134.020849"/>
</g>
<g fill="rgb(0%, 0%, 0%)" fill-opacity="1">
<use xlink:href="#glyph-6-1" x="200.767829" y="134.020849"/>
</g>
<g fill="rgb(0%, 0%, 0%)" fill-opacity="1">
<use xlink:href="#glyph-4-4" x="217.933401" y="134.020849"/>
<use xlink:href="#glyph-4-1" x="225.807107" y="134.020849"/>
</g>
<g fill="rgb(0%, 0%, 0%)" fill-opacity="1">
<use xlink:href="#glyph-1-15" x="23.923167" y="155.879782"/>
</g>
<g fill="rgb(0%, 0%, 0%)" fill-opacity="1">
<use xlink:href="#glyph-2-1" x="31.127282" y="155.879782"/>
</g>
<g fill="rgb(0%, 0%, 0%)" fill-opacity="1">
<use xlink:href="#glyph-6-0" x="41.971226" y="155.879782"/>
</g>
<g fill="rgb(0%, 0%, 0%)" fill-opacity="1">
<use xlink:href="#glyph-4-3" x="58.190786" y="155.879782"/>
<use xlink:href="#glyph-4-12" x="62.47617" y="155.879782"/>
</g>
<g fill="rgb(0%, 0%, 0%)" fill-opacity="1">
<use xlink:href="#glyph-2-2" x="70.349876" y="155.879782"/>
</g>
<g fill="rgb(0%, 0%, 0%)" fill-opacity="1">
<use xlink:href="#glyph-2-3" x="77.8699" y="155.879782"/>
</g>
<g fill="rgb(0%, 0%, 0%)" fill-opacity="1">
<use xlink:href="#glyph-4-5" x="88.023651" y="155.879782"/>
</g>
<g fill="rgb(0%, 0%, 0%)" fill-opacity="1">
<use xlink:href="#glyph-1-16" x="92.309035" y="155.879782"/>
</g>
<g fill="rgb(0%, 0%, 0%)" fill-opacity="1">
<use xlink:href="#glyph-1-2" x="105.693992" y="155.879782"/>
<use xlink:href="#glyph-1-3" x="115.985094" y="155.879782"/>
<use xlink:href="#glyph-1-18" x="126.276196" y="155.879782"/>
</g>
<g fill="rgb(0%, 0%, 0%)" fill-opacity="1">
<use xlink:href="#glyph-1-12" x="142.730971" y="155.879782"/>
<use xlink:href="#glyph-1-13" x="150.96351" y="155.879782"/>
<use xlink:href="#glyph-1-11" x="159.36087" y="155.879782"/>
<use xlink:href="#glyph-1-4" x="164.506421" y="155.879782"/>
<use xlink:href="#glyph-1-13" x="173.7691" y="155.879782"/>
<use xlink:href="#glyph-1-3" x="182.166461" y="155.879782"/>
</g>
<g fill="rgb(0%, 0%, 0%)" fill-opacity="1">
<use xlink:href="#glyph-1-9" x="198.638405" y="155.879782"/>
<use xlink:href="#glyph-1-11" x="208.929507" y="155.879782"/>
<use xlink:href="#glyph-1-13" x="214.075059" y="155.879782"/>
</g>
<g fill="rgb(0%, 0%, 0%)" fill-opacity="1">
<use xlink:href="#glyph-1-19" x="18.846884" y="177.738715"/>
<use xlink:href="#glyph-1-20" x="24.507505" y="177.738715"/>
<use xlink:href="#glyph-1-14" x="34.798607" y="177.738715"/>
</g>
<g fill="rgb(0%, 0%, 0%)" fill-opacity="1">
<use xlink:href="#glyph-2-4" x="48.456552" y="177.738715"/>
</g>
<g fill="rgb(0%, 0%, 0%)" fill-opacity="1">
<use xlink:href="#glyph-5-1" x="64.320007" y="180.313757"/>
</g>
<g fill="rgb(0%, 0%, 0%)" fill-opacity="1">
<use xlink:href="#glyph-4-13" x="73.569014" y="177.738715"/>
<use xlink:href="#glyph-4-2" x="77.854398" y="177.738715"/>
</g>
<g fill="rgb(0%, 0%, 0%)" fill-opacity="1">
<use xlink:href="#glyph-4-3" x="94.985632" y="177.738715"/>
</g>
<g fill="rgb(0%, 0%, 0%)" fill-opacity="1">
<use xlink:href="#glyph-2-0" x="99.271016" y="177.738715"/>
</g>
<g fill="rgb(0%, 0%, 0%)" fill-opacity="1">
<use xlink:href="#glyph-5-1" x="110.281809" y="180.313757"/>
</g>
<g fill="rgb(0%, 0%, 0%)" fill-opacity="1">
<use xlink:href="#glyph-4-5" x="114.761703" y="177.738715"/>
</g>
<g fill="rgb(0%, 0%, 0%)" fill-opacity="1">
<use xlink:href="#glyph-1-21" x="119.047087" y="177.738715"/>
</g>
<g fill="rgb(0%, 0%, 0%)" fill-opacity="1">
<use xlink:href="#glyph-1-15" x="130.37348" y="177.738715"/>
<use xlink:href="#glyph-1-11" x="137.577595" y="177.738715"/>
<use xlink:href="#glyph-1-16" x="142.723146" y="177.738715"/>
</g>
<g fill="rgb(0%, 0%, 0%)" fill-opacity="1">
<use xlink:href="#glyph-2-4" x="156.090934" y="177.738715"/>
</g>
<g fill="rgb(0%, 0%, 0%)" fill-opacity="1">
<use xlink:href="#glyph-3-0" x="171.966126" y="180.313757"/>
</g>
<g fill="rgb(0%, 0%, 0%)" fill-opacity="1">
<use xlink:href="#glyph-6-2" x="183.069123" y="177.738715"/>
</g>
<g fill="rgb(0%, 0%, 0%)" fill-opacity="1">
<use xlink:href="#glyph-4-2" x="183.069123" y="177.738715"/>
</g>
<g fill="rgb(0%, 0%, 0%)" fill-opacity="1">
<use xlink:href="#glyph-2-4" x="200.200357" y="177.738715"/>
</g>
<g fill="rgb(0%, 0%, 0%)" fill-opacity="1">
<use xlink:href="#glyph-3-1" x="216.068951" y="180.313757"/>
</g>
<g fill="rgb(0%, 0%, 0%)" fill-opacity="1">
<use xlink:href="#glyph-1-17" x="222.402836" y="177.738715"/>
</g>
<g fill="rgb(0%, 0%, 0%)" fill-opacity="1">
<use xlink:href="#glyph-2-4" x="33.220045" y="199.597648"/>
</g>
<g fill="rgb(0%, 0%, 0%)" fill-opacity="1">
<use xlink:href="#glyph-3-1" x="49.091158" y="202.172689"/>
</g>
<g fill="rgb(0%, 0%, 0%)" fill-opacity="1">
<use xlink:href="#glyph-6-2" x="60.195153" y="199.597648"/>
</g>
<g fill="rgb(0%, 0%, 0%)" fill-opacity="1">
<use xlink:href="#glyph-4-2" x="60.195153" y="199.597648"/>
</g>
<g fill="rgb(0%, 0%, 0%)" fill-opacity="1">
<use xlink:href="#glyph-2-4" x="77.326387" y="199.597648"/>
</g>
<g fill="rgb(0%, 0%, 0%)" fill-opacity="1">
<use xlink:href="#glyph-3-2" x="93.193983" y="202.172689"/>
</g>
<g fill="rgb(0%, 0%, 0%)" fill-opacity="1">
<use xlink:href="#glyph-1-17" x="99.527868" y="199.597648"/>
</g>
<g fill="rgb(0%, 0%, 0%)" fill-opacity="1">
<use xlink:href="#glyph-2-4" x="110.854261" y="199.597648"/>
</g>
<g fill="rgb(0%, 0%, 0%)" fill-opacity="1">
<use xlink:href="#glyph-3-0" x="126.719391" y="202.172689"/>
</g>
<g fill="rgb(0%, 0%, 0%)" fill-opacity="1">
<use xlink:href="#glyph-6-2" x="137.822389" y="199.597648"/>
</g>
<g fill="rgb(0%, 0%, 0%)" fill-opacity="1">
<use xlink:href="#glyph-4-2" x="137.822389" y="199.597648"/>
</g>
<g fill="rgb(0%, 0%, 0%)" fill-opacity="1">
<use xlink:href="#glyph-2-4" x="154.953623" y="199.597648"/>
</g>
<g fill="rgb(0%, 0%, 0%)" fill-opacity="1">
<use xlink:href="#glyph-3-2" x="170.822217" y="202.172689"/>
</g>
<g fill="rgb(0%, 0%, 0%)" fill-opacity="1">
<use xlink:href="#glyph-1-22" x="177.156101" y="199.597648"/>
</g>
<g fill="rgb(0%, 0%, 0%)" fill-opacity="1">
<use xlink:href="#glyph-1-15" x="188.482494" y="199.597648"/>
<use xlink:href="#glyph-1-11" x="195.686609" y="199.597648"/>
<use xlink:href="#glyph-1-11" x="200.83216" y="199.597648"/>
<use xlink:href="#glyph-1-16" x="205.977712" y="199.597648"/>
</g>
<g fill="rgb(0%, 0%, 0%)" fill-opacity="1">
<use xlink:href="#glyph-2-4" x="20.882384" y="221.456581"/>
</g>
<g fill="rgb(0%, 0%, 0%)" fill-opacity="1">
<use xlink:href="#glyph-3-1" x="36.753497" y="224.031622"/>
</g>
<g fill="rgb(0%, 0%, 0%)" fill-opacity="1">
<use xlink:href="#glyph-4-2" x="47.856494" y="221.456581"/>
</g>
<g fill="rgb(0%, 0%, 0%)" fill-opacity="1">
<use xlink:href="#glyph-6-1" x="64.987728" y="221.456581"/>
</g>
<g fill="rgb(0%, 0%, 0%)" fill-opacity="1">
<use xlink:href="#glyph-2-4" x="78.341781" y="221.456581"/>
</g>
<g fill="rgb(0%, 0%, 0%)" fill-opacity="1">
<use xlink:href="#glyph-3-0" x="94.210237" y="224.031622"/>
</g>
<g fill="rgb(0%, 0%, 0%)" fill-opacity="1">
<use xlink:href="#glyph-1-17" x="100.544122" y="221.456581"/>
</g>
<g fill="rgb(0%, 0%, 0%)" fill-opacity="1">
<use xlink:href="#glyph-2-4" x="111.870515" y="221.456581"/>
</g>
<g fill="rgb(0%, 0%, 0%)" fill-opacity="1">
<use xlink:href="#glyph-3-0" x="127.735645" y="224.031622"/>
</g>
<g fill="rgb(0%, 0%, 0%)" fill-opacity="1">
<use xlink:href="#glyph-4-14" x="137.885219" y="221.456581"/>
</g>
<g fill="rgb(0%, 0%, 0%)" fill-opacity="1">
<use xlink:href="#glyph-2-4" x="154.054989" y="221.456581"/>
</g>
<g fill="rgb(0%, 0%, 0%)" fill-opacity="1">
<use xlink:href="#glyph-3-1" x="169.930626" y="224.031622"/>
</g>
<g fill="rgb(0%, 0%, 0%)" fill-opacity="1">
<use xlink:href="#glyph-4-2" x="181.033623" y="221.456581"/>
</g>
<g fill="rgb(0%, 0%, 0%)" fill-opacity="1">
<use xlink:href="#glyph-2-4" x="198.164858" y="221.456581"/>
</g>
<g fill="rgb(0%, 0%, 0%)" fill-opacity="1">
<use xlink:href="#glyph-3-2" x="214.032454" y="224.031622"/>
</g>
<g fill="rgb(0%, 0%, 0%)" fill-opacity="1">
<use xlink:href="#glyph-1-6" x="220.366339" y="221.456581"/>
</g>
</svg>
