<?xml version="1.0" encoding="UTF-8"?>
<svg xmlns="http://www.w3.org/2000/svg" xmlns:xlink="http://www.w3.org/1999/xlink" width="246.697pt" height="35.367pt" viewBox="0 0 246.697 35.367">
<defs>
<g>
<g id="glyph-0-0">
<path d="M 1.421875 5.71875 C 1.421875 5.875 1.421875 6.078125 1.625 6.078125 C 1.84375 6.078125 1.84375 5.875 1.84375 5.71875 L 1.84375 0.15625 C 1.84375 0 1.84375 -0.203125 1.640625 -0.203125 C 1.421875 -0.203125 1.421875 -0.015625 1.421875 0.15625 Z M 1.421875 5.71875 "/>
</g>
<g id="glyph-1-0">
<path d="M 1.5625 -6.984375 C 1.5625 -7.15625 1.5625 -7.34375 1.359375 -7.34375 C 1.15625 -7.34375 1.15625 -7.15625 1.15625 -6.984375 L 1.15625 2.09375 C 1.15625 2.265625 1.15625 2.453125 1.359375 2.453125 C 1.5625 2.453125 1.5625 2.265625 1.5625 2.09375 Z M 1.5625 -6.984375 "/>
</g>
<g id="glyph-1-1">
<path d="M 6.453125 -2.25 C 6.609375 -2.25 6.78125 -2.25 6.78125 -2.453125 C 6.78125 -2.640625 6.609375 -2.640625 6.453125 -2.640625 L 1.15625 -2.640625 C 0.984375 -2.640625 0.8125 -2.640625 0.8125 -2.453125 C 0.8125 -2.25 0.984375 -2.25 1.15625 -2.25 Z M 6.453125 -2.25 "/>
</g>
<g id="glyph-1-2">
<path d="M 6.609375 -5.8125 C 6.703125 -5.859375 6.78125 -5.90625 6.78125 -6.03125 C 6.78125 -6.140625 6.703125 -6.21875 6.59375 -6.21875 C 6.546875 -6.21875 6.453125 -6.1875 6.421875 -6.15625 L 1 -3.609375 C 0.84375 -3.53125 0.8125 -3.46875 0.8125 -3.390625 C 0.8125 -3.296875 0.875 -3.234375 1 -3.171875 L 6.421875 -0.625 C 6.546875 -0.5625 6.5625 -0.5625 6.59375 -0.5625 C 6.703125 -0.5625 6.78125 -0.640625 6.78125 -0.75 C 6.78125 -0.84375 6.75 -0.90625 6.578125 -0.984375 L 1.46875 -3.390625 Z M 6.453125 1.34375 C 6.609375 1.34375 6.78125 1.34375 6.78125 1.140625 C 6.78125 0.953125 6.578125 0.953125 6.4375 0.953125 L 1.15625 0.953125 C 1.015625 0.953125 0.8125 0.953125 0.8125 1.140625 C 0.8125 1.34375 0.984375 1.34375 1.15625 1.34375 Z M 6.453125 1.34375 "/>
</g>
<g id="glyph-2-0">
<path d="M 3.265625 -2.953125 C 3.328125 -3.203125 3.546875 -4.109375 4.234375 -4.109375 C 4.28125 -4.109375 4.515625 -4.109375 4.71875 -3.984375 C 4.453125 -3.9375 4.25 -3.6875 4.25 -3.453125 C 4.25 -3.296875 4.359375 -3.109375 4.625 -3.109375 C 4.84375 -3.109375 5.15625 -3.28125 5.15625 -3.671875 C 5.15625 -4.1875 4.578125 -4.328125 4.25 -4.328125 C 3.671875 -4.328125 3.328125 -3.8125 3.21875 -3.578125 C 2.96875 -4.21875 2.453125 -4.328125 2.15625 -4.328125 C 1.140625 -4.328125 0.59375 -3.0625 0.59375 -2.8125 C 0.59375 -2.71875 0.6875 -2.71875 0.703125 -2.71875 C 0.78125 -2.71875 0.8125 -2.734375 0.828125 -2.828125 C 1.15625 -3.859375 1.8125 -4.109375 2.140625 -4.109375 C 2.328125 -4.109375 2.671875 -4.015625 2.671875 -3.453125 C 2.671875 -3.15625 2.5 -2.5 2.140625 -1.125 C 1.984375 -0.515625 1.640625 -0.109375 1.21875 -0.109375 C 1.15625 -0.109375 0.921875 -0.109375 0.71875 -0.234375 C 0.96875 -0.28125 1.1875 -0.484375 1.1875 -0.765625 C 1.1875 -1.03125 0.96875 -1.109375 0.828125 -1.109375 C 0.53125 -1.109375 0.28125 -0.84375 0.28125 -0.53125 C 0.28125 -0.09375 0.765625 0.109375 1.203125 0.109375 C 1.84375 0.109375 2.203125 -0.578125 2.234375 -0.640625 C 2.34375 -0.28125 2.703125 0.109375 3.28125 0.109375 C 4.296875 0.109375 4.84375 -1.15625 4.84375 -1.40625 C 4.84375 -1.5 4.765625 -1.5 4.734375 -1.5 C 4.640625 -1.5 4.625 -1.453125 4.609375 -1.390625 C 4.28125 -0.34375 3.625 -0.109375 3.3125 -0.109375 C 2.921875 -0.109375 2.765625 -0.421875 2.765625 -0.75 C 2.765625 -0.96875 2.828125 -1.1875 2.9375 -1.609375 Z M 3.265625 -2.953125 "/>
</g>
<g id="glyph-2-1">
<path d="M 4.75 -3.734375 C 4.796875 -3.859375 4.796875 -3.890625 4.796875 -3.953125 C 4.796875 -4.125 4.65625 -4.21875 4.515625 -4.21875 C 4.40625 -4.21875 4.25 -4.15625 4.171875 -4.015625 C 4.140625 -3.96875 4.0625 -3.65625 4.03125 -3.484375 C 3.96875 -3.234375 3.890625 -2.96875 3.828125 -2.703125 L 3.390625 -0.9375 C 3.359375 -0.796875 2.9375 -0.109375 2.28125 -0.109375 C 1.796875 -0.109375 1.6875 -0.53125 1.6875 -0.90625 C 1.6875 -1.34375 1.84375 -1.953125 2.1875 -2.8125 C 2.34375 -3.21875 2.375 -3.328125 2.375 -3.515625 C 2.375 -3.96875 2.0625 -4.328125 1.578125 -4.328125 C 0.640625 -4.328125 0.28125 -2.90625 0.28125 -2.8125 C 0.28125 -2.71875 0.375 -2.71875 0.40625 -2.71875 C 0.5 -2.71875 0.515625 -2.734375 0.5625 -2.890625 C 0.828125 -3.8125 1.21875 -4.109375 1.546875 -4.109375 C 1.625 -4.109375 1.796875 -4.109375 1.796875 -3.796875 C 1.796875 -3.546875 1.6875 -3.296875 1.625 -3.109375 C 1.234375 -2.078125 1.0625 -1.515625 1.0625 -1.0625 C 1.0625 -0.1875 1.671875 0.109375 2.25 0.109375 C 2.625 0.109375 2.96875 -0.0625 3.234375 -0.328125 C 3.109375 0.171875 3 0.65625 2.609375 1.171875 C 2.34375 1.5 1.96875 1.796875 1.53125 1.796875 C 1.390625 1.796875 0.953125 1.765625 0.78125 1.375 C 0.9375 1.375 1.0625 1.375 1.203125 1.265625 C 1.296875 1.171875 1.40625 1.046875 1.40625 0.859375 C 1.40625 0.5625 1.140625 0.515625 1.03125 0.515625 C 0.8125 0.515625 0.484375 0.671875 0.484375 1.15625 C 0.484375 1.640625 0.921875 2 1.53125 2 C 2.53125 2 3.546875 1.109375 3.8125 0.015625 Z M 4.75 -3.734375 "/>
</g>
<g id="glyph-3-0">
<path d="M 4 -2.25 L 6.734375 -2.25 C 6.859375 -2.25 7.046875 -2.25 7.046875 -2.453125 C 7.046875 -2.640625 6.859375 -2.640625 6.734375 -2.640625 L 4 -2.640625 L 4 -5.375 C 4 -5.515625 4 -5.703125 3.8125 -5.703125 C 3.609375 -5.703125 3.609375 -5.515625 3.609375 -5.375 L 3.609375 -2.640625 L 0.875 -2.640625 C 0.734375 -2.640625 0.546875 -2.640625 0.546875 -2.453125 C 0.546875 -2.25 0.734375 -2.25 0.875 -2.25 L 3.609375 -2.25 L 3.609375 0.484375 C 3.609375 0.625 3.609375 0.8125 3.8125 0.8125 C 4 0.8125 4 0.625 4 0.484375 Z M 4 -2.25 "/>
</g>
</g>
</defs>
<g fill="rgb(0%, 0%, 0%)" fill-opacity="1">
<use xlink:href="#glyph-0-0" x="78.20056" y="13.212522"/>
</g>
<g fill="rgb(0%, 0%, 0%)" fill-opacity="1">
<use xlink:href="#glyph-0-0" x="78.20056" y="19.085409"/>
</g>
<g fill="rgb(0%, 0%, 0%)" fill-opacity="1">
<use xlink:href="#glyph-1-0" x="83.093977" y="21.531626"/>
</g>
<g fill="rgb(0%, 0%, 0%)" fill-opacity="1">
<use xlink:href="#glyph-2-0" x="85.812924" y="21.531626"/>
</g>
<g fill="rgb(0%, 0%, 0%)" fill-opacity="1">
<use xlink:href="#glyph-1-0" x="91.406437" y="21.531626"/>
</g>
<g fill="rgb(0%, 0%, 0%)" fill-opacity="1">
<use xlink:href="#glyph-1-1" x="96.298191" y="21.531626"/>
</g>
<g fill="rgb(0%, 0%, 0%)" fill-opacity="1">
<use xlink:href="#glyph-1-0" x="106.083658" y="21.531626"/>
</g>
<g fill="rgb(0%, 0%, 0%)" fill-opacity="1">
<use xlink:href="#glyph-2-1" x="108.802604" y="21.531626"/>
</g>
<g fill="rgb(0%, 0%, 0%)" fill-opacity="1">
<use xlink:href="#glyph-1-0" x="113.953726" y="21.531626"/>
</g>
<g fill="rgb(0%, 0%, 0%)" fill-opacity="1">
<use xlink:href="#glyph-0-0" x="118.305755" y="13.212522"/>
</g>
<g fill="rgb(0%, 0%, 0%)" fill-opacity="1">
<use xlink:href="#glyph-0-0" x="118.305755" y="19.085409"/>
</g>
<g fill="rgb(0%, 0%, 0%)" fill-opacity="1">
<use xlink:href="#glyph-1-2" x="127.006037" y="21.531626"/>
</g>
<g fill="rgb(0%, 0%, 0%)" fill-opacity="1">
<use xlink:href="#glyph-1-0" x="140.060504" y="21.531626"/>
</g>
<g fill="rgb(0%, 0%, 0%)" fill-opacity="1">
<use xlink:href="#glyph-2-0" x="142.769663" y="21.531626"/>
</g>
<g fill="rgb(0%, 0%, 0%)" fill-opacity="1">
<use xlink:href="#glyph-3-0" x="150.545771" y="21.531626"/>
</g>
<g fill="rgb(0%, 0%, 0%)" fill-opacity="1">
<use xlink:href="#glyph-2-1" x="160.331238" y="21.531626"/>
</g>
<g fill="rgb(0%, 0%, 0%)" fill-opacity="1">
<use xlink:href="#glyph-1-0" x="165.48236" y="21.531626"/>
</g>
</svg>
