<?xml version="1.0" encoding="UTF-8"?>
<svg xmlns="http://www.w3.org/2000/svg" xmlns:xlink="http://www.w3.org/1999/xlink" width="246.697pt" height="100.424pt" viewBox="0 0 246.697 100.424">
<defs>
<g>
<g id="glyph-0-0">
<path d="M 1.4375 5.78125 C 1.4375 5.9375 1.4375 6.15625 1.640625 6.15625 C 1.859375 6.15625 1.859375 5.953125 1.859375 5.78125 L 1.859375 0.15625 C 1.859375 0 1.859375 -0.203125 1.65625 -0.203125 C 1.4375 -0.203125 1.4375 -0.015625 1.4375 0.15625 Z M 1.4375 5.78125 "/>
</g>
<g id="glyph-0-1">
<path d="M 12.546875 13.875 L 13.734375 10.703125 L 13.5 10.703125 C 13.109375 11.734375 12.0625 12.40625 10.921875 12.703125 C 10.703125 12.75 9.734375 13 7.828125 13 L 1.859375 13 L 6.90625 7.09375 C 6.96875 7.015625 7 6.984375 7 6.9375 C 7 6.921875 7 6.890625 6.921875 6.78125 L 2.3125 0.46875 L 7.734375 0.46875 C 9.0625 0.46875 9.96875 0.609375 10.0625 0.640625 C 10.59375 0.71875 11.453125 0.875 12.234375 1.375 C 12.484375 1.53125 13.15625 1.984375 13.5 2.78125 L 13.734375 2.78125 L 12.546875 0 L 0.828125 0 C 0.609375 0 0.59375 0.015625 0.5625 0.0625 C 0.5625 0.09375 0.5625 0.28125 0.5625 0.390625 L 5.796875 7.5625 L 0.65625 13.578125 C 0.5625 13.703125 0.5625 13.75 0.5625 13.765625 C 0.5625 13.875 0.65625 13.875 0.828125 13.875 Z M 12.546875 13.875 "/>
</g>
<g id="glyph-0-2">
<path d="M 7.3125 -0.390625 C 7 -0.390625 6.953125 -0.359375 6.953125 -0.046875 L 6.953125 5.40625 C 6.953125 5.5625 6.953125 5.75 7.15625 5.75 C 7.34375 5.75 7.34375 5.5625 7.34375 5.40625 L 7.34375 0 L 10.3125 0 C 10.484375 0 10.65625 0 10.65625 -0.203125 C 10.65625 -0.390625 10.484375 -0.390625 10.3125 -0.390625 Z M 7.3125 -0.390625 "/>
</g>
<g id="glyph-0-3">
<path d="M 6.953125 5.796875 C 6.953125 5.96875 6.953125 6.140625 7.15625 6.140625 C 7.34375 6.140625 7.34375 5.96875 7.34375 5.796875 L 7.34375 0.15625 C 7.34375 -0.015625 7.34375 -0.203125 7.15625 -0.203125 C 6.953125 -0.203125 6.953125 -0.015625 6.953125 0.15625 Z M 6.953125 5.796875 "/>
</g>
<g id="glyph-0-4">
<path d="M 6.953125 17.828125 C 7.328125 17.828125 7.34375 17.765625 7.34375 17.46875 L 7.34375 0.15625 C 7.34375 -0.015625 7.34375 -0.203125 7.15625 -0.203125 C 6.953125 -0.203125 6.953125 -0.015625 6.953125 0.15625 L 6.953125 15.3125 L 6.9375 15.3125 L 2.484375 1.765625 L 1.09375 4.46875 L 1.25 4.625 L 2.078125 3.015625 Z M 6.953125 17.828125 "/>
</g>
<g id="glyph-1-0">
<path d="M 0.84375 -0.4375 C 0.8125 -0.34375 0.78125 -0.171875 0.78125 -0.15625 C 0.78125 0 0.90625 0.0625 1.015625 0.0625 C 1.140625 0.0625 1.25 -0.015625 1.28125 -0.078125 C 1.3125 -0.140625 1.375 -0.375 1.40625 -0.515625 C 1.4375 -0.640625 1.515625 -0.96875 1.5625 -1.140625 C 1.609375 -1.296875 1.640625 -1.4375 1.671875 -1.609375 C 1.75 -1.890625 1.765625 -1.9375 1.96875 -2.234375 C 2.171875 -2.5 2.484375 -2.859375 3.015625 -2.859375 C 3.40625 -2.859375 3.421875 -2.515625 3.421875 -2.375 C 3.421875 -1.96875 3.125 -1.1875 3.015625 -0.90625 C 2.9375 -0.703125 2.90625 -0.640625 2.90625 -0.53125 C 2.90625 -0.15625 3.21875 0.0625 3.5625 0.0625 C 4.265625 0.0625 4.5625 -0.890625 4.5625 -0.984375 C 4.5625 -1.078125 4.46875 -1.078125 4.453125 -1.078125 C 4.359375 -1.078125 4.34375 -1.046875 4.328125 -0.96875 C 4.15625 -0.40625 3.859375 -0.125 3.59375 -0.125 C 3.4375 -0.125 3.40625 -0.21875 3.40625 -0.375 C 3.40625 -0.53125 3.453125 -0.625 3.578125 -0.921875 C 3.65625 -1.140625 3.9375 -1.875 3.9375 -2.265625 C 3.9375 -2.9375 3.40625 -3.0625 3.03125 -3.0625 C 2.46875 -3.0625 2.078125 -2.703125 1.859375 -2.421875 C 1.8125 -2.90625 1.40625 -3.0625 1.125 -3.0625 C 0.828125 -3.0625 0.671875 -2.84375 0.578125 -2.6875 C 0.421875 -2.421875 0.328125 -2.03125 0.328125 -2 C 0.328125 -1.90625 0.421875 -1.90625 0.4375 -1.90625 C 0.546875 -1.90625 0.546875 -1.921875 0.59375 -2.109375 C 0.703125 -2.53125 0.828125 -2.859375 1.109375 -2.859375 C 1.28125 -2.859375 1.328125 -2.71875 1.328125 -2.53125 C 1.328125 -2.390625 1.265625 -2.140625 1.21875 -1.953125 C 1.171875 -1.765625 1.109375 -1.484375 1.0625 -1.328125 Z M 0.84375 -0.4375 "/>
</g>
<g id="glyph-1-1">
<path d="M 2.171875 -4.609375 C 2.171875 -4.625 2.203125 -4.703125 2.203125 -4.71875 C 2.203125 -4.75 2.171875 -4.8125 2.09375 -4.8125 C 1.953125 -4.8125 1.375 -4.765625 1.203125 -4.75 C 1.140625 -4.734375 1.046875 -4.734375 1.046875 -4.578125 C 1.046875 -4.484375 1.140625 -4.484375 1.234375 -4.484375 C 1.5625 -4.484375 1.5625 -4.4375 1.5625 -4.390625 C 1.5625 -4.34375 1.546875 -4.296875 1.53125 -4.234375 L 0.5625 -0.3125 C 0.515625 -0.1875 0.515625 -0.171875 0.515625 -0.15625 C 0.515625 -0.046875 0.609375 0.0625 0.75 0.0625 C 0.9375 0.0625 1.03125 -0.0625 1.078125 -0.21875 C 1.09375 -0.25 1.390625 -1.46875 1.421875 -1.5625 C 1.90625 -1.515625 2.296875 -1.359375 2.296875 -1 C 2.296875 -0.96875 2.296875 -0.921875 2.296875 -0.859375 C 2.265625 -0.75 2.265625 -0.71875 2.265625 -0.640625 C 2.265625 -0.15625 2.65625 0.0625 3 0.0625 C 3.671875 0.0625 3.875 -0.984375 3.875 -0.984375 C 3.875 -1.078125 3.78125 -1.078125 3.765625 -1.078125 C 3.671875 -1.078125 3.65625 -1.046875 3.625 -0.921875 C 3.546875 -0.625 3.359375 -0.125 3.015625 -0.125 C 2.828125 -0.125 2.78125 -0.296875 2.78125 -0.484375 C 2.78125 -0.609375 2.78125 -0.625 2.8125 -0.796875 C 2.828125 -0.8125 2.84375 -0.9375 2.84375 -1.015625 C 2.84375 -1.625 2.015625 -1.734375 1.734375 -1.75 C 1.921875 -1.875 2.1875 -2.109375 2.296875 -2.203125 C 2.65625 -2.546875 3 -2.859375 3.390625 -2.859375 C 3.46875 -2.859375 3.5625 -2.84375 3.625 -2.78125 C 3.328125 -2.71875 3.265625 -2.484375 3.265625 -2.390625 C 3.265625 -2.234375 3.375 -2.125 3.53125 -2.125 C 3.71875 -2.125 3.9375 -2.28125 3.9375 -2.578125 C 3.9375 -2.796875 3.765625 -3.0625 3.40625 -3.0625 C 3 -3.0625 2.640625 -2.78125 2.296875 -2.453125 C 2 -2.171875 1.765625 -1.953125 1.484375 -1.84375 Z M 2.171875 -4.609375 "/>
</g>
<g id="glyph-2-0">
<path d="M 5.328125 -2.328125 C 5.4375 -2.328125 5.59375 -2.328125 5.59375 -2.5 C 5.59375 -2.671875 5.421875 -2.671875 5.328125 -2.671875 L 0.75 -2.671875 C 0.65625 -2.671875 0.484375 -2.671875 0.484375 -2.5 C 0.484375 -2.328125 0.640625 -2.328125 0.75 -2.328125 Z M 5.328125 -0.8125 C 5.421875 -0.8125 5.59375 -0.8125 5.59375 -0.96875 C 5.59375 -1.140625 5.4375 -1.140625 5.328125 -1.140625 L 0.75 -1.140625 C 0.640625 -1.140625 0.484375 -1.140625 0.484375 -0.96875 C 0.484375 -0.8125 0.65625 -0.8125 0.75 -0.8125 Z M 5.328125 -0.8125 "/>
</g>
<g id="glyph-2-1">
<path d="M 2.328125 -4.40625 C 2.328125 -4.59375 2.3125 -4.609375 2.109375 -4.609375 C 1.671875 -4.171875 1.046875 -4.15625 0.75 -4.15625 L 0.75 -3.90625 C 0.921875 -3.90625 1.375 -3.90625 1.765625 -4.109375 L 1.765625 -0.5625 C 1.765625 -0.34375 1.765625 -0.25 1.0625 -0.25 L 0.8125 -0.25 L 0.8125 0 C 0.921875 0 1.78125 -0.03125 2.046875 -0.03125 C 2.25 -0.03125 3.125 0 3.28125 0 L 3.28125 -0.25 L 3.015625 -0.25 C 2.328125 -0.25 2.328125 -0.34375 2.328125 -0.5625 Z M 2.328125 -4.40625 "/>
</g>
<g id="glyph-2-2">
<path d="M 3.5 -1.265625 L 3.265625 -1.265625 C 3.25 -1.109375 3.171875 -0.703125 3.09375 -0.625 C 3.03125 -0.59375 2.5 -0.59375 2.40625 -0.59375 L 1.125 -0.59375 C 1.859375 -1.234375 2.09375 -1.421875 2.515625 -1.75 C 3.03125 -2.171875 3.5 -2.59375 3.5 -3.25 C 3.5 -4.09375 2.765625 -4.609375 1.875 -4.609375 C 1.015625 -4.609375 0.4375 -4 0.4375 -3.359375 C 0.4375 -3.015625 0.734375 -2.96875 0.8125 -2.96875 C 0.96875 -2.96875 1.171875 -3.09375 1.171875 -3.34375 C 1.171875 -3.46875 1.125 -3.71875 0.765625 -3.71875 C 0.984375 -4.203125 1.453125 -4.359375 1.78125 -4.359375 C 2.46875 -4.359375 2.828125 -3.8125 2.828125 -3.25 C 2.828125 -2.65625 2.40625 -2.171875 2.171875 -1.921875 L 0.5 -0.265625 C 0.4375 -0.203125 0.4375 -0.1875 0.4375 0 L 3.296875 0 Z M 3.5 -1.265625 "/>
</g>
<g id="glyph-3-0">
<path d="M 3.3125 -2.984375 C 3.375 -3.25 3.59375 -4.15625 4.296875 -4.15625 C 4.34375 -4.15625 4.578125 -4.15625 4.78125 -4.03125 C 4.5 -3.984375 4.3125 -3.734375 4.3125 -3.5 C 4.3125 -3.34375 4.421875 -3.15625 4.6875 -3.15625 C 4.90625 -3.15625 5.21875 -3.328125 5.21875 -3.71875 C 5.21875 -4.234375 4.640625 -4.375 4.296875 -4.375 C 3.71875 -4.375 3.375 -3.859375 3.265625 -3.625 C 3.015625 -4.28125 2.484375 -4.375 2.1875 -4.375 C 1.15625 -4.375 0.59375 -3.09375 0.59375 -2.859375 C 0.59375 -2.75 0.6875 -2.75 0.71875 -2.75 C 0.796875 -2.75 0.828125 -2.78125 0.84375 -2.859375 C 1.171875 -3.90625 1.828125 -4.15625 2.171875 -4.15625 C 2.359375 -4.15625 2.703125 -4.078125 2.703125 -3.5 C 2.703125 -3.1875 2.53125 -2.53125 2.171875 -1.140625 C 2.015625 -0.53125 1.671875 -0.109375 1.234375 -0.109375 C 1.171875 -0.109375 0.9375 -0.109375 0.734375 -0.234375 C 0.984375 -0.28125 1.203125 -0.5 1.203125 -0.765625 C 1.203125 -1.046875 0.984375 -1.125 0.828125 -1.125 C 0.53125 -1.125 0.28125 -0.859375 0.28125 -0.546875 C 0.28125 -0.09375 0.78125 0.109375 1.21875 0.109375 C 1.875 0.109375 2.234375 -0.578125 2.265625 -0.640625 C 2.375 -0.28125 2.734375 0.109375 3.328125 0.109375 C 4.34375 0.109375 4.90625 -1.171875 4.90625 -1.421875 C 4.90625 -1.515625 4.828125 -1.515625 4.796875 -1.515625 C 4.703125 -1.515625 4.6875 -1.46875 4.671875 -1.40625 C 4.34375 -0.34375 3.671875 -0.109375 3.34375 -0.109375 C 2.96875 -0.109375 2.796875 -0.421875 2.796875 -0.765625 C 2.796875 -0.984375 2.859375 -1.203125 2.96875 -1.640625 Z M 3.3125 -2.984375 "/>
</g>
<g id="glyph-3-1">
<path d="M 4.8125 -3.78125 C 4.859375 -3.90625 4.859375 -3.9375 4.859375 -4 C 4.859375 -4.1875 4.71875 -4.265625 4.5625 -4.265625 C 4.46875 -4.265625 4.3125 -4.203125 4.21875 -4.0625 C 4.203125 -4.015625 4.125 -3.703125 4.078125 -3.53125 C 4.015625 -3.265625 3.9375 -3 3.890625 -2.734375 L 3.4375 -0.953125 C 3.390625 -0.796875 2.96875 -0.109375 2.3125 -0.109375 C 1.8125 -0.109375 1.703125 -0.546875 1.703125 -0.90625 C 1.703125 -1.359375 1.875 -1.984375 2.203125 -2.859375 C 2.375 -3.265625 2.40625 -3.375 2.40625 -3.5625 C 2.40625 -4.015625 2.09375 -4.375 1.59375 -4.375 C 0.65625 -4.375 0.28125 -2.9375 0.28125 -2.859375 C 0.28125 -2.75 0.390625 -2.75 0.40625 -2.75 C 0.5 -2.75 0.515625 -2.78125 0.5625 -2.9375 C 0.828125 -3.859375 1.234375 -4.15625 1.5625 -4.15625 C 1.640625 -4.15625 1.8125 -4.15625 1.8125 -3.84375 C 1.8125 -3.59375 1.71875 -3.34375 1.640625 -3.15625 C 1.25 -2.09375 1.0625 -1.53125 1.0625 -1.0625 C 1.0625 -0.1875 1.6875 0.109375 2.28125 0.109375 C 2.671875 0.109375 3 -0.0625 3.28125 -0.34375 C 3.15625 0.171875 3.03125 0.65625 2.640625 1.1875 C 2.375 1.53125 2 1.8125 1.546875 1.8125 C 1.40625 1.8125 0.953125 1.78125 0.796875 1.390625 C 0.953125 1.390625 1.078125 1.390625 1.21875 1.28125 C 1.3125 1.1875 1.421875 1.0625 1.421875 0.875 C 1.421875 0.5625 1.15625 0.53125 1.046875 0.53125 C 0.828125 0.53125 0.5 0.6875 0.5 1.171875 C 0.5 1.671875 0.9375 2.03125 1.546875 2.03125 C 2.5625 2.03125 3.59375 1.125 3.859375 0.015625 Z M 4.8125 -3.78125 "/>
</g>
<g id="glyph-4-0">
<path d="M 6.6875 -5.890625 C 6.796875 -5.9375 6.875 -5.984375 6.875 -6.109375 C 6.875 -6.21875 6.796875 -6.296875 6.671875 -6.296875 C 6.625 -6.296875 6.53125 -6.265625 6.5 -6.234375 L 1.015625 -3.65625 C 0.859375 -3.578125 0.828125 -3.5 0.828125 -3.421875 C 0.828125 -3.34375 0.875 -3.265625 1.015625 -3.203125 L 6.5 -0.640625 C 6.625 -0.5625 6.640625 -0.5625 6.671875 -0.5625 C 6.78125 -0.5625 6.875 -0.65625 6.875 -0.765625 C 6.875 -0.859375 6.828125 -0.90625 6.671875 -0.984375 L 1.484375 -3.421875 Z M 6.53125 1.359375 C 6.703125 1.359375 6.875 1.359375 6.875 1.15625 C 6.875 0.953125 6.671875 0.953125 6.515625 0.953125 L 1.171875 0.953125 C 1.03125 0.953125 0.828125 0.953125 0.828125 1.15625 C 0.828125 1.359375 1 1.359375 1.171875 1.359375 Z M 6.53125 1.359375 "/>
</g>
<g id="glyph-5-0">
<path d="M 3.28125 2.375 C 3.28125 2.34375 3.28125 2.328125 3.109375 2.15625 C 1.875 0.90625 1.5625 -0.953125 1.5625 -2.484375 C 1.5625 -4.203125 1.9375 -5.921875 3.15625 -7.15625 C 3.28125 -7.28125 3.28125 -7.296875 3.28125 -7.328125 C 3.28125 -7.40625 3.234375 -7.4375 3.1875 -7.4375 C 3.078125 -7.4375 2.1875 -6.75 1.609375 -5.5 C 1.09375 -4.40625 0.984375 -3.3125 0.984375 -2.484375 C 0.984375 -1.703125 1.09375 -0.5 1.640625 0.609375 C 2.234375 1.828125 3.078125 2.484375 3.1875 2.484375 C 3.234375 2.484375 3.28125 2.453125 3.28125 2.375 Z M 3.28125 2.375 "/>
</g>
<g id="glyph-5-1">
<path d="M 4.046875 -2.28125 L 6.8125 -2.28125 C 6.953125 -2.28125 7.140625 -2.28125 7.140625 -2.484375 C 7.140625 -2.671875 6.953125 -2.671875 6.8125 -2.671875 L 4.046875 -2.671875 L 4.046875 -5.453125 C 4.046875 -5.59375 4.046875 -5.78125 3.859375 -5.78125 C 3.65625 -5.78125 3.65625 -5.59375 3.65625 -5.453125 L 3.65625 -2.671875 L 0.875 -2.671875 C 0.75 -2.671875 0.5625 -2.671875 0.5625 -2.484375 C 0.5625 -2.28125 0.75 -2.28125 0.875 -2.28125 L 3.65625 -2.28125 L 3.65625 0.5 C 3.65625 0.640625 3.65625 0.828125 3.859375 0.828125 C 4.046875 0.828125 4.046875 0.640625 4.046875 0.5 Z M 4.046875 -2.28125 "/>
</g>
<g id="glyph-5-2">
<path d="M 2.859375 -2.484375 C 2.859375 -3.25 2.75 -4.453125 2.203125 -5.5625 C 1.609375 -6.78125 0.765625 -7.4375 0.65625 -7.4375 C 0.609375 -7.4375 0.5625 -7.390625 0.5625 -7.328125 C 0.5625 -7.296875 0.5625 -7.28125 0.75 -7.109375 C 1.71875 -6.125 2.28125 -4.546875 2.28125 -2.484375 C 2.28125 -0.78125 1.921875 0.953125 0.6875 2.203125 C 0.5625 2.328125 0.5625 2.34375 0.5625 2.375 C 0.5625 2.4375 0.609375 2.484375 0.65625 2.484375 C 0.765625 2.484375 1.65625 1.796875 2.234375 0.546875 C 2.75 -0.546875 2.859375 -1.640625 2.859375 -2.484375 Z M 2.859375 -2.484375 "/>
</g>
</g>
</defs>
<g fill="rgb(0%, 0%, 0%)" fill-opacity="1">
<use xlink:href="#glyph-0-0" x="57.105449" y="14.444153"/>
</g>
<g fill="rgb(0%, 0%, 0%)" fill-opacity="1">
<use xlink:href="#glyph-0-0" x="57.105449" y="20.387066"/>
</g>
<g fill="rgb(0%, 0%, 0%)" fill-opacity="1">
<use xlink:href="#glyph-0-0" x="57.105449" y="26.330974"/>
</g>
<g fill="rgb(0%, 0%, 0%)" fill-opacity="1">
<use xlink:href="#glyph-0-0" x="57.105449" y="32.274882"/>
</g>
<g fill="rgb(0%, 0%, 0%)" fill-opacity="1">
<use xlink:href="#glyph-0-0" x="57.105449" y="38.217795"/>
</g>
<g fill="rgb(0%, 0%, 0%)" fill-opacity="1">
<use xlink:href="#glyph-1-0" x="65.163232" y="19.396746"/>
</g>
<g fill="rgb(0%, 0%, 0%)" fill-opacity="1">
<use xlink:href="#glyph-0-1" x="60.457224" y="22.3687"/>
</g>
<g fill="rgb(0%, 0%, 0%)" fill-opacity="1">
<use xlink:href="#glyph-1-1" x="60.407509" y="43.693389"/>
</g>
<g fill="rgb(0%, 0%, 0%)" fill-opacity="1">
<use xlink:href="#glyph-2-0" x="64.784962" y="43.693389"/>
<use xlink:href="#glyph-2-1" x="70.866105" y="43.693389"/>
</g>
<g fill="rgb(0%, 0%, 0%)" fill-opacity="1">
<use xlink:href="#glyph-3-0" x="76.466401" y="31.778727"/>
</g>
<g fill="rgb(0%, 0%, 0%)" fill-opacity="1">
<use xlink:href="#glyph-1-1" x="82.127928" y="33.265201"/>
</g>
<g fill="rgb(0%, 0%, 0%)" fill-opacity="1">
<use xlink:href="#glyph-3-1" x="87.001972" y="31.778727"/>
</g>
<g fill="rgb(0%, 0%, 0%)" fill-opacity="1">
<use xlink:href="#glyph-1-1" x="91.858119" y="33.265201"/>
</g>
<g fill="rgb(0%, 0%, 0%)" fill-opacity="1">
<use xlink:href="#glyph-0-0" x="96.732163" y="14.444153"/>
</g>
<g fill="rgb(0%, 0%, 0%)" fill-opacity="1">
<use xlink:href="#glyph-0-0" x="96.732163" y="20.387066"/>
</g>
<g fill="rgb(0%, 0%, 0%)" fill-opacity="1">
<use xlink:href="#glyph-0-0" x="96.732163" y="26.330974"/>
</g>
<g fill="rgb(0%, 0%, 0%)" fill-opacity="1">
<use xlink:href="#glyph-0-0" x="96.732163" y="32.274882"/>
</g>
<g fill="rgb(0%, 0%, 0%)" fill-opacity="1">
<use xlink:href="#glyph-0-0" x="96.732163" y="38.217795"/>
</g>
<g fill="rgb(0%, 0%, 0%)" fill-opacity="1">
<use xlink:href="#glyph-4-0" x="102.785443" y="31.778727"/>
</g>
<g fill="rgb(0%, 0%, 0%)" fill-opacity="1">
<use xlink:href="#glyph-0-2" x="113.242465" y="11.688956"/>
</g>
<g fill="rgb(0%, 0%, 0%)" fill-opacity="1">
<use xlink:href="#glyph-0-3" x="113.242465" y="17.236139"/>
</g>
<g fill="rgb(0%, 0%, 0%)" fill-opacity="1">
<use xlink:href="#glyph-0-3" x="113.242465" y="23.180047"/>
</g>
<g fill="rgb(0%, 0%, 0%)" fill-opacity="1">
<use xlink:href="#glyph-0-4" x="113.242465" y="29.12296"/>
</g>
<path fill="none" stroke-width="0.398" stroke-linecap="butt" stroke-linejoin="miter" stroke="rgb(0%, 0%, 0%)" stroke-opacity="1" stroke-miterlimit="10" d="M 0.000730361 -0.00110302 L 26.747014 -0.00110302 " transform="matrix(0.994297, 0, 0, -0.994297, 123.698493, 11.491091)"/>
<g fill="rgb(0%, 0%, 0%)" fill-opacity="1">
<use xlink:href="#glyph-1-0" x="128.454215" y="19.396746"/>
</g>
<g fill="rgb(0%, 0%, 0%)" fill-opacity="1">
<use xlink:href="#glyph-0-1" x="123.748207" y="22.3687"/>
</g>
<g fill="rgb(0%, 0%, 0%)" fill-opacity="1">
<use xlink:href="#glyph-1-1" x="123.698493" y="43.693389"/>
</g>
<g fill="rgb(0%, 0%, 0%)" fill-opacity="1">
<use xlink:href="#glyph-2-0" x="128.075945" y="43.693389"/>
<use xlink:href="#glyph-2-1" x="134.157088" y="43.693389"/>
</g>
<g fill="rgb(0%, 0%, 0%)" fill-opacity="1">
<use xlink:href="#glyph-3-0" x="139.757384" y="31.778727"/>
</g>
<g fill="rgb(0%, 0%, 0%)" fill-opacity="1">
<use xlink:href="#glyph-2-2" x="145.418911" y="28.367294"/>
</g>
<g fill="rgb(0%, 0%, 0%)" fill-opacity="1">
<use xlink:href="#glyph-1-1" x="145.418911" y="34.767584"/>
</g>
<g fill="rgb(0%, 0%, 0%)" fill-opacity="1">
<use xlink:href="#glyph-0-2" x="153.044175" y="11.688956"/>
</g>
<g fill="rgb(0%, 0%, 0%)" fill-opacity="1">
<use xlink:href="#glyph-0-3" x="153.044175" y="17.236139"/>
</g>
<g fill="rgb(0%, 0%, 0%)" fill-opacity="1">
<use xlink:href="#glyph-0-3" x="153.044175" y="23.180047"/>
</g>
<g fill="rgb(0%, 0%, 0%)" fill-opacity="1">
<use xlink:href="#glyph-0-4" x="153.044175" y="29.12296"/>
</g>
<path fill="none" stroke-width="0.398" stroke-linecap="butt" stroke-linejoin="miter" stroke="rgb(0%, 0%, 0%)" stroke-opacity="1" stroke-miterlimit="10" d="M -0.000203816 -0.00110302 L 25.936777 -0.00110302 " transform="matrix(0.994297, 0, 0, -0.994297, 163.500203, 11.491091)"/>
<g fill="rgb(0%, 0%, 0%)" fill-opacity="1">
<use xlink:href="#glyph-1-0" x="168.255925" y="19.396746"/>
</g>
<g fill="rgb(0%, 0%, 0%)" fill-opacity="1">
<use xlink:href="#glyph-0-1" x="163.549918" y="22.3687"/>
</g>
<g fill="rgb(0%, 0%, 0%)" fill-opacity="1">
<use xlink:href="#glyph-1-1" x="163.500203" y="43.693389"/>
</g>
<g fill="rgb(0%, 0%, 0%)" fill-opacity="1">
<use xlink:href="#glyph-2-0" x="167.877655" y="43.693389"/>
<use xlink:href="#glyph-2-1" x="173.958798" y="43.693389"/>
</g>
<g fill="rgb(0%, 0%, 0%)" fill-opacity="1">
<use xlink:href="#glyph-3-1" x="179.559094" y="31.778727"/>
</g>
<g fill="rgb(0%, 0%, 0%)" fill-opacity="1">
<use xlink:href="#glyph-2-2" x="184.771199" y="28.367294"/>
</g>
<g fill="rgb(0%, 0%, 0%)" fill-opacity="1">
<use xlink:href="#glyph-1-1" x="184.416235" y="34.767584"/>
</g>
<g fill="rgb(0%, 0%, 0%)" fill-opacity="1">
<use xlink:href="#glyph-0-2" x="39.199154" y="54.680371"/>
</g>
<g fill="rgb(0%, 0%, 0%)" fill-opacity="1">
<use xlink:href="#glyph-0-3" x="39.199154" y="60.227554"/>
</g>
<g fill="rgb(0%, 0%, 0%)" fill-opacity="1">
<use xlink:href="#glyph-0-3" x="39.199154" y="66.171462"/>
</g>
<g fill="rgb(0%, 0%, 0%)" fill-opacity="1">
<use xlink:href="#glyph-0-4" x="39.199154" y="72.114375"/>
</g>
<path fill="none" stroke-width="0.398" stroke-linecap="butt" stroke-linejoin="miter" stroke="rgb(0%, 0%, 0%)" stroke-opacity="1" stroke-miterlimit="10" d="M 0.00107478 -0.00187998 L 59.268764 -0.00187998 " transform="matrix(0.994297, 0, 0, -0.994297, 49.655181, 54.482506)"/>
<g fill="rgb(0%, 0%, 0%)" fill-opacity="1">
<use xlink:href="#glyph-1-0" x="54.410904" y="62.388161"/>
</g>
<g fill="rgb(0%, 0%, 0%)" fill-opacity="1">
<use xlink:href="#glyph-0-1" x="49.70589" y="65.360115"/>
</g>
<g fill="rgb(0%, 0%, 0%)" fill-opacity="1">
<use xlink:href="#glyph-1-1" x="49.655181" y="86.685798"/>
</g>
<g fill="rgb(0%, 0%, 0%)" fill-opacity="1">
<use xlink:href="#glyph-2-0" x="54.032634" y="86.685798"/>
<use xlink:href="#glyph-2-1" x="60.113777" y="86.685798"/>
</g>
<g fill="rgb(0%, 0%, 0%)" fill-opacity="1">
<use xlink:href="#glyph-5-0" x="64.06354" y="74.771137"/>
</g>
<g fill="rgb(0%, 0%, 0%)" fill-opacity="1">
<use xlink:href="#glyph-3-0" x="67.915899" y="74.771137"/>
</g>
<g fill="rgb(0%, 0%, 0%)" fill-opacity="1">
<use xlink:href="#glyph-1-1" x="73.577968" y="76.256616"/>
</g>
<g fill="rgb(0%, 0%, 0%)" fill-opacity="1">
<use xlink:href="#glyph-5-1" x="80.652391" y="74.771137"/>
</g>
<g fill="rgb(0%, 0%, 0%)" fill-opacity="1">
<use xlink:href="#glyph-3-1" x="90.556194" y="74.771137"/>
</g>
<g fill="rgb(0%, 0%, 0%)" fill-opacity="1">
<use xlink:href="#glyph-1-1" x="95.414719" y="76.256616"/>
</g>
<g fill="rgb(0%, 0%, 0%)" fill-opacity="1">
<use xlink:href="#glyph-5-2" x="100.288763" y="74.771137"/>
</g>
<g fill="rgb(0%, 0%, 0%)" fill-opacity="1">
<use xlink:href="#glyph-2-2" x="104.14067" y="71.90955"/>
</g>
<g fill="rgb(0%, 0%, 0%)" fill-opacity="1">
<use xlink:href="#glyph-4-0" x="111.336398" y="74.771137"/>
</g>
<g fill="rgb(0%, 0%, 0%)" fill-opacity="1">
<use xlink:href="#glyph-0-2" x="121.792425" y="54.680371"/>
</g>
<g fill="rgb(0%, 0%, 0%)" fill-opacity="1">
<use xlink:href="#glyph-0-3" x="121.792425" y="60.227554"/>
</g>
<g fill="rgb(0%, 0%, 0%)" fill-opacity="1">
<use xlink:href="#glyph-0-3" x="121.792425" y="66.171462"/>
</g>
<g fill="rgb(0%, 0%, 0%)" fill-opacity="1">
<use xlink:href="#glyph-0-4" x="121.792425" y="72.114375"/>
</g>
<path fill="none" stroke-width="0.398" stroke-linecap="butt" stroke-linejoin="miter" stroke="rgb(0%, 0%, 0%)" stroke-opacity="1" stroke-miterlimit="10" d="M 0.00155616 -0.00187998 L 26.747839 -0.00187998 " transform="matrix(0.994297, 0, 0, -0.994297, 132.248453, 54.482506)"/>
<g fill="rgb(0%, 0%, 0%)" fill-opacity="1">
<use xlink:href="#glyph-1-0" x="137.004175" y="62.388161"/>
</g>
<g fill="rgb(0%, 0%, 0%)" fill-opacity="1">
<use xlink:href="#glyph-0-1" x="132.299162" y="65.360115"/>
</g>
<g fill="rgb(0%, 0%, 0%)" fill-opacity="1">
<use xlink:href="#glyph-1-1" x="132.248453" y="86.685798"/>
</g>
<g fill="rgb(0%, 0%, 0%)" fill-opacity="1">
<use xlink:href="#glyph-2-0" x="136.625905" y="86.685798"/>
<use xlink:href="#glyph-2-1" x="142.707048" y="86.685798"/>
</g>
<g fill="rgb(0%, 0%, 0%)" fill-opacity="1">
<use xlink:href="#glyph-3-0" x="148.308338" y="74.771137"/>
</g>
<g fill="rgb(0%, 0%, 0%)" fill-opacity="1">
<use xlink:href="#glyph-2-2" x="153.969866" y="71.358709"/>
</g>
<g fill="rgb(0%, 0%, 0%)" fill-opacity="1">
<use xlink:href="#glyph-1-1" x="153.969866" y="77.758999"/>
</g>
<g fill="rgb(0%, 0%, 0%)" fill-opacity="1">
<use xlink:href="#glyph-5-1" x="161.044289" y="74.771137"/>
</g>
<g fill="rgb(0%, 0%, 0%)" fill-opacity="1">
<use xlink:href="#glyph-0-2" x="170.95047" y="54.680371"/>
</g>
<g fill="rgb(0%, 0%, 0%)" fill-opacity="1">
<use xlink:href="#glyph-0-3" x="170.95047" y="60.227554"/>
</g>
<g fill="rgb(0%, 0%, 0%)" fill-opacity="1">
<use xlink:href="#glyph-0-3" x="170.95047" y="66.171462"/>
</g>
<g fill="rgb(0%, 0%, 0%)" fill-opacity="1">
<use xlink:href="#glyph-0-4" x="170.95047" y="72.114375"/>
</g>
<path fill="none" stroke-width="0.398" stroke-linecap="butt" stroke-linejoin="miter" stroke="rgb(0%, 0%, 0%)" stroke-opacity="1" stroke-miterlimit="10" d="M -0.000249283 -0.00187998 L 25.936731 -0.00187998 " transform="matrix(0.994297, 0, 0, -0.994297, 181.406498, 54.482506)"/>
<g fill="rgb(0%, 0%, 0%)" fill-opacity="1">
<use xlink:href="#glyph-1-0" x="186.162221" y="62.388161"/>
</g>
<g fill="rgb(0%, 0%, 0%)" fill-opacity="1">
<use xlink:href="#glyph-0-1" x="181.456213" y="65.360115"/>
</g>
<g fill="rgb(0%, 0%, 0%)" fill-opacity="1">
<use xlink:href="#glyph-1-1" x="181.406498" y="86.685798"/>
</g>
<g fill="rgb(0%, 0%, 0%)" fill-opacity="1">
<use xlink:href="#glyph-2-0" x="185.78395" y="86.685798"/>
<use xlink:href="#glyph-2-1" x="191.865093" y="86.685798"/>
</g>
<g fill="rgb(0%, 0%, 0%)" fill-opacity="1">
<use xlink:href="#glyph-3-1" x="197.465389" y="74.771137"/>
</g>
<g fill="rgb(0%, 0%, 0%)" fill-opacity="1">
<use xlink:href="#glyph-2-2" x="202.677494" y="71.358709"/>
</g>
<g fill="rgb(0%, 0%, 0%)" fill-opacity="1">
<use xlink:href="#glyph-1-1" x="202.32253" y="77.758999"/>
</g>
</svg>
